<?xml version="1.0" encoding="UTF-8"?>
<svg xmlns="http://www.w3.org/2000/svg" id="a" width="865.76" height="682.89" viewBox="0 0 865.76 682.89">
  <path d="M515.11,585.23c-.13,0-.26-.05-.35-.15-.09-.09-.15-.22-.15-.35v-144.53c.38-23.4-4.35-23.77-4.4-23.78-.07,0-.13,0-.2-.02-.06-.02-.12-.05-.17-.1-.05-.04-.09-.1-.12-.15-.03-.06-.04-.12-.05-.19,0-.13,.04-.26,.13-.36s.21-.16,.35-.17c.29,0,.58,.08,.84,.2,.26,.12,.5,.3,.69,.52,1.93,1.82,4.19,7.47,3.92,24.06v144.54c0,.13-.06,.25-.16,.34-.09,.09-.22,.14-.34,.14Z"></path>
  <path d="M422.59,583c-.13,0-.26-.06-.35-.16-.09-.1-.14-.23-.14-.36l3.72-140.07c0-14.67,3.49-21,6.42-23.77,1.38-1.45,3.26-2.29,5.26-2.35,.13,.01,.25,.07,.34,.17,.09,.1,.13,.23,.12,.36,0,.07-.01,.14-.04,.2-.03,.06-.07,.12-.12,.16-.05,.04-.11,.08-.18,.1-.07,.02-.13,.02-.2,.01-1.73,.11-3.35,.86-4.54,2.12-2.77,2.62-6.07,8.74-6.07,23l-3.72,140.08c0,.07-.01,.13-.04,.2-.03,.06-.06,.12-.11,.17-.05,.05-.1,.09-.17,.11-.06,.02-.13,.04-.2,.04Z"></path>
  <path d="M552.26,570.75c-.13,0-.25-.05-.34-.13-.09-.09-.15-.2-.16-.33l-9.66-126.7c-1.44-29.5-11.78-30-11.89-30-.13,0-.26-.05-.35-.15-.09-.09-.15-.22-.15-.35s.05-.26,.15-.35c.09-.09,.22-.15,.35-.15,.5,0,11.39,.38,12.88,30.91l9.66,126.68c0,.13-.04,.26-.12,.36-.09,.1-.21,.16-.34,.18l-.03,.03Z"></path>
  <path d="M444.14,571.11c-.13-.01-.25-.07-.34-.17-.09-.1-.13-.23-.13-.36l10-151.22c0-.07,.02-.13,.05-.19,.03-.06,.07-.11,.12-.16,.05-.04,.11-.08,.17-.1,.06-.02,.13-.03,.19-.03,.06,0,.13,.02,.19,.05,.06,.03,.11,.07,.15,.12,.04,.05,.08,.11,.1,.17,.02,.06,.03,.13,.03,.19l-10,151.22c0,.07-.02,.13-.05,.19-.03,.06-.07,.11-.12,.16-.05,.04-.11,.08-.17,.1-.06,.02-.13,.03-.19,.03Z"></path>
  <path d="M542.2,411.38l-76.88,11-30.84-6.31,63.16-8.18,44.53,2.74c.08,.02,.16,.07,.21,.13,.05,.06,.08,.15,.09,.23,0,.08-.02,.17-.07,.24-.05,.07-.12,.12-.2,.15Z" fill="#fff" fill-rule="evenodd"></path>
  <path d="M465.3,422.87h-.08l-33.77-6.91,66.13-8.56,44.62,2.73c.22,.01,.43,.11,.58,.27,.15,.16,.24,.37,.25,.59,0,.22-.07,.44-.21,.61-.14,.17-.34,.28-.56,.31l-76.97,10.97Zm-27.78-6.71l27.82,5.7,75.68-10.82-43.41-2.67-60.09,7.79Z"></path>
  <path d="M342.3,386.75l-65.42,27.94c-4.06,1.68-7.54,4.5-10.02,8.12-2.48,3.62-3.87,7.88-3.98,12.27-.07,5.55,1.91,12,8.15,18.79,1.4,1.51,3.01,2.81,4.77,3.88,10.11,6.24,49.24,32,71.29,50.09,.3,.25,.65,.43,1.02,.52,.37,.1,.77,.11,1.15,.05,.38-.07,.74-.22,1.06-.44,.32-.22,.58-.51,.77-.85,3.54-6,12.9-20.17,25.54-26.16,.19-.09,.35-.22,.47-.39,.12-.17,.2-.36,.23-.57,.03-.21,0-.41-.07-.61-.07-.19-.2-.36-.36-.5l-24.7-20.53,22.47-15.62s35.77-.79,54.17-26l-32.37-25.55-54.17-4.45Z" fill="#231f20" fill-rule="evenodd"></path>
  <path d="M487.41,113.06v23.49c0,4.88-1.47,9.65-4.23,13.68-1.79,2.6-4.07,4.83-6.7,6.56-4.59,3.01-10.06,4.37-15.52,3.85s-10.59-2.86-14.54-6.66c-1.14-1.09-2.17-2.3-3.08-3.59-2.83-4.06-4.34-8.89-4.33-13.84v-23.49c0-3.18,.63-6.32,1.84-9.26,1.22-2.94,3-5.6,5.25-7.85,2.25-2.25,4.91-4.03,7.85-5.25,2.94-1.22,6.08-1.84,9.26-1.84s6.32,.63,9.26,1.84c2.94,1.22,5.6,3,7.85,5.25,2.25,2.25,4.03,4.92,5.25,7.85,1.22,2.94,1.84,6.08,1.84,9.26Z" fill="#fff" fill-rule="evenodd"></path>
  <path d="M463.21,161.25c-3.24,0-6.46-.63-9.46-1.87-3-1.24-5.72-3.06-8.02-5.35-2.29-2.29-4.11-5.02-5.35-8.02-1.24-3-1.88-6.21-1.87-9.46v-23.49c0-6.55,2.6-12.83,7.23-17.47,4.63-4.63,10.92-7.23,17.47-7.23s12.83,2.6,17.46,7.23c4.63,4.63,7.24,10.91,7.24,17.47v23.49c.01,5-1.49,9.88-4.32,14-1.83,2.65-4.15,4.93-6.84,6.7-4.02,2.63-8.73,4.02-13.54,4Zm0-71.89c-6.28,0-12.31,2.5-16.75,6.95-4.44,4.44-6.94,10.47-6.95,16.75v23.49c0,4.84,1.47,9.57,4.24,13.55,.89,1.27,1.89,2.44,3,3.52,3.35,3.23,7.57,5.39,12.15,6.24,4.57,.84,9.29,.32,13.57-1.5,4.28-1.82,7.93-4.86,10.49-8.74,2.57-3.88,3.93-8.42,3.93-13.07v-23.49c0-3.11-.61-6.2-1.8-9.07-1.19-2.88-2.94-5.49-5.14-7.69-2.2-2.2-4.81-3.95-7.69-5.14-2.88-1.19-5.96-1.8-9.07-1.8h.02Z"></path>
  <path d="M596.36,316.36c-7.11,3.84-14.02,8.04-20.7,12.59-9.09,6.33-18.75,11.8-28.86,16.32-3.01,1.28-5.93,2.76-8.75,4.43l-3.07,1.82c-.55,.32-1.16,.53-1.8,.6-.63,.07-1.28,.01-1.89-.17-.61-.19-1.17-.5-1.66-.92-.48-.42-.87-.93-1.15-1.51-.57-1.2-1.24-2.35-2-3.43l-15.2-19.87c-.12-.16-.21-.35-.25-.55-.04-.2-.04-.41,.01-.61,.05-.2,.14-.39,.27-.54,.13-.16,.29-.29,.48-.37l14.69-6.83c3.18-1.2,6.46-2.15,9.79-2.84,2.51-.48,4.77-1.85,6.34-3.87,1.01-1.41,2.36-2.55,3.92-3.3,1.57-.75,3.3-1.09,5.03-.98,.83,.05,1.66-.12,2.4-.51,.74-.38,1.36-.96,1.81-1.66,1.63-2.71,3.72-5.1,6.19-7.07,.19-.15,.34-.34,.42-.57,.09-.22,.12-.47,.08-.7-.04-.24-.14-.46-.29-.64-.15-.19-.35-.33-.58-.41-4.57-1.74-8.51-4.81-11.31-8.82,0,0-7.87-9.43-14.84-16.68-3.37-3.52-7.21-6.55-11.42-9-2.52-1.36-4.87-3.02-7-4.93-.08-.08-.18-.14-.29-.18-.11-.03-.23-.04-.34-.02-.11,.02-.22,.07-.31,.14-.09,.07-.16,.16-.21,.27-2.21,4.56-11.91,24-21.46,32.81-1.24,1.14-2.03,2.69-2.22,4.37-.35,3.11-1.33,6.12-2.87,8.85-.68,1.21-.97,2.61-.82,4,.59,5.76,3.13,21.22,13.89,38.25,5.38,8.34,8.57,17.9,9.27,27.8,.73,9.74-1.42,19.47-6.18,28-.14,.24-.32,.44-.55,.59-.22,.16-.48,.26-.75,.31-.27,.05-.54,.03-.81-.04-.26-.07-.51-.2-.72-.37l-27.93-23.23s-6.35-5.8-15.83-12.71c-8.27-6.04-17.88-9.97-28-11.48-10.2-1.53-26-3.48-48.09-5.15,0,0,11-18.62,13-37.08,.15-1.3,.25-2.59,.3-3.89,.08-1.9-.09-3.8-.51-5.66-.1-.46-.21-.92-.35-1.37-1.27-4.34-1.77-8.87-1.49-13.38,.13-2.47-.15-4.94-.85-7.31-2.27-7.88-6.71-26.14-4.32-41.53,.03-.19,.01-.38-.06-.56-.09-.26-.27-.48-.5-.63-.24-.14-.51-.2-.79-.15-3.31,.54-11,2-16.17,4.36,0,0-6.72,4.61-12.72,7.94-2.53,1.41-4.92,3.06-7.14,4.92-4.26,3.56-12,9.17-18.75,9.55,0,0-2.22,.28,.41,3.18,0,0,3.87,2.08,3.46,8.44,0,0-.28,3.05,6.23,5.54,0,0,5.52,2.85,7.82,8.4,1.08,2.7,2.63,5.19,4.57,7.35l14.18,15.37c.19,.2,.3,.47,.3,.74s-.11,.54-.3,.74c-7.73,7.67-16.68,14.01-26.47,18.77-.25,.12-.52,.15-.79,.09s-.5-.21-.67-.43c-4-5-26.61-33.78-33.17-45.55l-11.28-15.32s-8.49-6.45-3.39-14.41c1.02-1.59,1.91-3.26,2.66-5,1.01-2.55,2.59-4.82,4.63-6.65,1.45-1.18,2.79-2.5,4-3.93,3.5-4,10.11-11.12,16.45-15.42l16.25-10.56c4.72-3.02,9.05-6.61,12.89-10.68,2-2.08,4.29-3.87,6.8-5.3,0,0,29-21.95,40.23-26,0,0,12.36-3.32,32.84,.55l53.13,7.19s42.25,9.63,47.82,19.52c.69,1.21,1.55,2.31,2.54,3.29,.71,.7,1.28,1.52,1.7,2.42,1.54,3.5,3.61,6.74,6.14,9.6l23.18,25.51c1.33,1.5,2.8,2.87,4.39,4.1,1.04,.79,1.83,1.86,2.3,3.08,1.45,3.62,3.52,6.97,6.1,9.9l3.21,3.55c.67,.73,1.41,1.4,2.21,2,1,.86,1.67,2.05,1.88,3.36,.57,2.26,1.66,4.35,3.19,6.11,1.11,1.3,1.98,2.78,2.57,4.38,.42,1.15,1.07,2.2,1.91,3.09,1.3,1.32,2.44,2.79,3.39,4.38,.66,1.23,1.59,2.3,2.72,3.13,2.12,1.52,4.91,5.08,2.94,12.86-.12,2.65,.09,5.3,.63,7.89,0,0,2.18,4.05-5.71,8.32Z" fill="#c7404e" fill-rule="evenodd"></path>
  <path d="M503.85,401.08c-.56,0-1.09-.19-1.52-.55l-27.97-23.24c-.08-.07-6.46-5.87-15.81-12.68-8.19-5.98-17.71-9.89-27.74-11.4-9.35-1.39-25.27-3.42-48.05-5.14l-.8-.06,.4-.69c.11-.19,10.94-18.75,13-36.88,.15-1.32,.26-2.61,.31-3.86,.07-1.86-.1-3.72-.5-5.53-.1-.45-.22-.9-.35-1.34-1.27-4.4-1.76-8.98-1.46-13.55,.13-2.41-.15-4.83-.84-7.15-2.11-7.33-6.75-26.08-4.32-41.73,.03-.09,.03-.2,0-.29-.04-.16-.15-.3-.29-.39-.14-.09-.31-.12-.47-.09-3.08,.5-10.8,1.93-16,4.29-.37,.25-7,4.69-12.78,7.92-2.5,1.39-4.86,3.02-7.06,4.86-4.12,3.45-12.06,9.28-19,9.67,0,0-.31,.06-.38,.27-.07,.21-.12,.68,1.08,2,.6,.36,4,2.7,3.64,8.87,0,0-.08,2.74,5.9,5,3.57,1.94,6.41,4.99,8.11,8.68,1.06,2.64,2.58,5.08,4.48,7.2l14.18,15.37c.28,.29,.43,.68,.43,1.09s-.15,.79-.43,1.09c-7.81,7.74-16.85,14.14-26.74,18.93-.35,.17-.74,.21-1.12,.12-.38-.09-.71-.29-.95-.6-2.69-3.41-26.44-33.53-33.22-45.64l-11.22-15.21c-.77-.62-8.51-7.14-3.45-15,1-1.57,1.88-3.21,2.63-4.91,1.05-2.63,2.7-4.98,4.82-6.86,1.43-1.16,2.75-2.45,3.94-3.86,3.42-3.92,10.12-11.15,16.55-15.52l16.28-10.53c4.68-3,8.97-6.57,12.79-10.61,2.04-2.11,4.37-3.93,6.92-5.39,1.14-.86,29.11-22,40.31-26.06,.16,0,12.74-3.31,33.1,.54l53.11,7.14c1.78,.4,42.57,9.8,48.19,19.77,.67,1.17,1.5,2.23,2.46,3.17,.74,.75,1.35,1.62,1.8,2.57,1.52,3.45,3.56,6.65,6.06,9.48l23.17,25.5c1.31,1.47,2.75,2.81,4.32,4,1.11,.85,1.96,1.99,2.46,3.29,1.43,3.57,3.46,6.87,6,9.76l3.21,3.55c.66,.71,1.38,1.36,2.15,1.94,1.09,.94,1.82,2.23,2.06,3.65,.54,2.19,1.6,4.21,3.09,5.9,1.14,1.34,2.04,2.88,2.65,4.53,.39,1.08,1,2.07,1.8,2.91,1.33,1.35,2.49,2.86,3.47,4.49,.62,1.18,1.5,2.21,2.57,3,2.06,1.48,5.2,5.18,3.14,13.34-.11,2.56,.1,5.13,.62,7.65,.26,.56,1.82,4.7-6,8.93-7.09,3.84-13.98,8.03-20.64,12.56-9.14,6.35-18.85,11.83-29,16.37-2.99,1.27-5.9,2.74-8.69,4.4l-3.06,1.82c-.6,.36-1.28,.59-1.98,.68-.7,.08-1.41,.02-2.08-.19-.68-.2-1.31-.55-1.85-1.01-.54-.46-.98-1.03-1.29-1.68-.57-1.17-1.24-2.29-2-3.35l-15.19-19.86c-.17-.22-.29-.48-.35-.76-.06-.28-.05-.56,.02-.83,.06-.27,.19-.52,.36-.74,.17-.22,.39-.39,.64-.51l14.7-6.84c3.23-1.21,6.54-2.17,9.91-2.87,2.38-.46,4.51-1.77,6-3.69,1.06-1.47,2.48-2.66,4.12-3.44,1.64-.78,3.45-1.14,5.26-1.03,.74,.05,1.48-.11,2.14-.45,.66-.34,1.22-.86,1.61-1.49,1.66-2.75,3.8-5.18,6.31-7.19,.12-.09,.21-.21,.27-.35,.06-.14,.08-.29,.05-.44-.02-.15-.09-.29-.18-.41-.1-.12-.22-.21-.37-.26-4.67-1.77-8.69-4.91-11.55-9-.06-.06-7.91-9.47-14.79-16.63-3.3-3.46-7.07-6.44-11.19-8.86-2.56-1.37-4.95-3.05-7.11-5-.03-.01-.06-.02-.09-.02s-.06,0-.09,.02c-.03,0-.07,.02-.1,.04s-.05,.05-.06,.08c-2.67,5.53-12.11,24.24-21.57,33-1.15,1.06-1.89,2.5-2.07,4.06-.35,3.17-1.35,6.23-2.93,9-.63,1.12-.89,2.4-.75,3.68,.59,5.8,3.12,21.11,13.81,38,5.41,8.4,8.62,18.03,9.34,28,.77,9.85-1.4,19.7-6.24,28.31-.17,.3-.4,.56-.69,.76-.28,.2-.6,.33-.94,.39-.14,.02-.28,.02-.42,.01Zm-120.19-53.95c22.39,1.71,38.08,3.71,47.34,5.09,10.19,1.54,19.86,5.51,28.18,11.58,9.4,6.85,15.81,12.68,15.87,12.74l27.92,23.21c.15,.13,.33,.22,.52,.28,.19,.05,.39,.06,.59,.03,.2-.04,.38-.11,.55-.23,.16-.11,.3-.26,.4-.44,4.74-8.45,6.87-18.11,6.12-27.76-.7-9.81-3.86-19.29-9.19-27.56-10.81-17.11-13.37-32.6-14-38.47-.16-1.48,.15-2.97,.89-4.27,1.51-2.67,2.46-5.61,2.8-8.65,.2-1.8,1.05-3.46,2.38-4.68,9.57-8.84,19.46-28.77,21.35-32.67,.08-.18,.21-.33,.36-.45,.15-.12,.33-.2,.53-.23,.19-.03,.39-.02,.57,.04,.18,.06,.35,.16,.49,.3,2.1,1.88,4.42,3.51,6.9,4.85,4.25,2.47,8.13,5.52,11.53,9.07,6.91,7.18,14.78,16.62,14.86,16.71,2.75,3.94,6.62,6.96,11.11,8.67,.31,.11,.58,.31,.79,.56,.21,.26,.35,.56,.4,.88,.05,.32,.01,.66-.11,.96s-.32,.57-.58,.78c-2.42,1.93-4.48,4.28-6.08,6.93-.49,.79-1.18,1.43-2,1.85-.82,.42-1.74,.62-2.66,.56-1.65-.09-3.3,.23-4.79,.94s-2.78,1.79-3.74,3.14c-1.64,2.12-4,3.57-6.64,4.06-3.3,.69-6.55,1.63-9.71,2.81l-14.65,6.83c-.12,.05-.23,.13-.31,.23-.08,.1-.14,.22-.17,.35-.03,.13-.03,.26,0,.39,.03,.13,.08,.25,.16,.35l15.23,19.83c.79,1.12,1.48,2.3,2.07,3.53,.25,.52,.6,.98,1.04,1.35,.44,.37,.94,.65,1.49,.81,.54,.17,1.11,.22,1.67,.15,.56-.07,1.1-.25,1.59-.54l3.06-1.82c2.83-1.68,5.78-3.17,8.81-4.46,14.77-6.28,28.63-16.13,28.77-16.22,6.7-4.56,13.62-8.77,20.75-12.63,7.31-3.95,5.63-7.5,5.56-7.65v-.1c-.55-2.65-.77-5.35-.65-8.05v-.1c1.94-7.62-.88-11-2.74-12.32-1.19-.87-2.17-2-2.86-3.3-.94-1.55-2.05-2.99-3.32-4.28-.89-.94-1.57-2.05-2-3.26-.57-1.55-1.41-2.98-2.48-4.23-1.59-1.81-2.72-3.98-3.29-6.32-.2-1.19-.8-2.28-1.71-3.08-.82-.62-1.58-1.31-2.27-2.06l-3.21-3.55c-2.62-2.97-4.72-6.37-6.19-10.05-.46-1.12-1.22-2.1-2.19-2.82-1.62-1.24-3.11-2.64-4.46-4.17l-23.17-25.5c-2.57-2.9-4.68-6.19-6.23-9.74-.4-.84-.94-1.61-1.6-2.27-1.02-1.01-1.9-2.15-2.62-3.39-5.4-9.59-47.08-19.18-47.5-19.28l-53.09-7.18c-20.13-3.81-32.52-.61-32.64-.57-11,4-39.76,25.71-40.05,25.93-2.49,1.42-4.76,3.18-6.75,5.24-3.88,4.11-8.24,7.72-13,10.76l-16.29,10.54c-6.33,4.3-13,11.45-16.35,15.33-1.22,1.46-2.59,2.8-4.08,4-1.96,1.78-3.49,3.99-4.47,6.46-.77,1.73-1.67,3.4-2.7,5-4.79,7.47,2.94,13.49,3.28,13.74l.1,.1,11.25,15.32c6.75,12.1,30.48,42.16,33.16,45.54,.1,.12,.24,.21,.39,.25,.15,.04,.32,.02,.46-.05,9.74-4.74,18.63-11.04,26.33-18.66,.1-.11,.16-.26,.16-.4s-.06-.3-.16-.4l-14.17-15.37c-1.98-2.21-3.57-4.75-4.67-7.5-2.21-5.3-7.54-8.12-7.59-8.15-6.73-2.57-6.51-5.88-6.5-6,.39-5.93-3-7.88-3.2-8l-.13-.1c-1.19-1.31-1.62-2.32-1.33-3.1,.1-.25,.27-.46,.49-.62,.21-.16,.47-.26,.73-.29,6.73-.39,14.48-6.08,18.5-9.44,2.24-1.89,4.66-3.56,7.22-5,5.64-3.12,12-7.4,12.66-7.84l.14-.09c5.11-2.33,12.4-3.75,16.3-4.39,.39-.06,.79,.01,1.13,.22,.34,.2,.6,.52,.72,.89,.1,.26,.12,.54,.07,.81-2.39,15.44,2.21,34,4.31,41.3,.72,2.43,1.01,4.96,.87,7.48-.29,4.45,.21,8.92,1.47,13.2,.14,.47,.26,.94,.36,1.41,.42,1.9,.6,3.85,.53,5.79-.06,1.27-.16,2.59-.31,3.93-1.8,16.42-10.69,33.09-12.67,36.65Z"></path>
  <path d="M483.43,182.08s-8,33.49-22.69,55.9l-17.44,28.23,3.06-75.83-3.77-40.15c4.35,4.2,14.11,10.52,20.63,10.52,3.94,0,7.82-.95,11.3-2.78,3.49-1.83,6.47-4.49,8.7-7.74l.21,31.85Z" fill="#fff" fill-rule="evenodd"></path>
  <path d="M442.72,268.09l3.13-77.73-3.9-41.42,1,.93c4.52,4.35,14.08,10.38,20.29,10.38,3.85,0,7.64-.94,11.05-2.73,3.41-1.79,6.32-4.39,8.5-7.57l.9-1.32,.27,33.51v.06c-.08,.33-8.21,33.82-22.76,56.06l-18.48,29.83Zm.48-116.61l3.64,38.85-3,74,16.52-26.58c14.17-21.66,22.23-54.1,22.62-55.7l-.29-30.3c-2.31,2.96-5.27,5.36-8.64,7.01-3.38,1.65-7.08,2.5-10.84,2.5-6.05-.01-15.08-5.42-20.01-9.78Z"></path>
  <path d="M431.69,145.93l-6.41,17.56c-.57,1.63-1.56,3.08-2.87,4.19s-2.91,1.85-4.61,2.14c-2.44,.37-4.91,.51-7.38,.43,0,0-10.58-1.41-18.81,2.83,0,0,12.7-3.3,20.22,1.17,0,0,7.73,4.94,13.75,3.33,1.15-.33,2.36-.39,3.54-.2,1.81,.32,3.84,1.34,3.69,4.32-.12,1.67-.83,3.24-2.01,4.43-1.18,1.19-2.74,1.92-4.41,2.06-2.81,.27-6.85-.21-12.21-2.89,0,0-9.4-6.11-13.4-2.35,0,0,7.29,.24,16.69,6.82,.71,.47,14.11,6.11,21.17-.94,0,0-.47-10.62-1.32-13.25-2.51-9.75-4.38-19.66-5.63-29.65Z" fill-rule="evenodd"></path>
  <path d="M383.25,347.57s-25.43-1-30.91,7.1c0,0-3.54,4.83-9.34,29l-18.7,79c-.03,.16-.03,.32,.02,.47,.04,.15,.12,.29,.23,.41,.11,.12,.24,.2,.39,.26,.15,.05,.31,.07,.47,.05,2.24-.37,6.93-.67,13.38,1.56,5.5,1.85,10.4,5.16,14.16,9.58,.9,1.06,1.69,2.2,2.35,3.42,.08,.17,.21,.32,.37,.42,.16,.1,.35,.15,.54,.15s.38-.05,.54-.15c.16-.1,.29-.25,.37-.42l17.56-35.67s7.19-16.69,8.21-25.09c.07-.58,.3-1.14,.66-1.6,1.34-1.67,2.38-3.56,3.07-5.58,.22-.69,.66-1.28,1.25-1.69,.59-.41,1.31-.61,2.03-.56,5.18,.3,17.67,1.69,37.55,8,0,0,57.93,21.77,74.9-16.61l-43-35.39c-9.22-6.59-19.98-10.7-31.24-11.93l-44.85-4.73Z" fill="#231f20" fill-rule="evenodd"></path>
  <path d="M354.42,501.92l67.25,46.31s4.76-5.11,9.77-10.65c5.26-5.77,8.35-13.2,8.74-21,.24-3.32-.17-6.66-1.2-9.83-.75-1.97-2.15-3.63-3.97-4.69-1.82-1.07-3.95-1.48-6.03-1.17-4.1,.61-8.11,1.74-11.93,3.37,0,0-3.72,3.26-17.22-5.58l-23-17.69s-11.71,4.41-22.41,20.93Z" fill="#fff" fill-rule="evenodd"></path>
  <path d="M421.74,548.89l-68-46.83,.26-.41c10.67-16.47,22.46-21.09,22.58-21.14l.26-.1,23.26,17.86c12.82,8.4,16.56,5.63,16.6,5.6l.13-.08c3.86-1.64,7.91-2.78,12.05-3.41,2.2-.33,4.45,.1,6.38,1.23s3.4,2.88,4.19,4.96c1.05,3.22,1.47,6.62,1.23,10-.4,7.92-3.54,15.45-8.87,21.32-4.95,5.48-9.72,10.6-9.77,10.65l-.3,.35Zm-66.63-47.14l66.49,45.79c1.12-1.2,5.23-5.64,9.47-10.33,5.18-5.7,8.22-13.01,8.61-20.7,.24-3.26-.16-6.53-1.17-9.64-.71-1.87-2.04-3.44-3.77-4.45-1.73-1.01-3.75-1.39-5.72-1.09-4.04,.61-7.99,1.73-11.75,3.32-.63,.44-4.95,2.78-17.75-5.61l-22.83-17.49c-1.74,.76-12.04,5.71-21.58,20.2Z"></path>
  <path d="M485.2,515.65l-46.09-16.9c-.51-.19-1.07-.22-1.61-.1-.53,.13-1.02,.41-1.39,.81-.38,.4-.63,.9-.72,1.44-.09,.54-.03,1.1,.19,1.6,.02,.04,.04,.08,.05,.12,0,0,5.4,2.08,4.56,14.34-6.37-5.85-13-11.56-16-14.11-.47-.4-1.03-.69-1.62-.84-.6-.16-1.22-.18-1.83-.07-2.08,.32-4.21,.11-6.19-.62-.6-.21-1.25-.25-1.87-.1-.62,.14-1.19,.46-1.63,.91-9.82,10-13.15,29.81-13.15,29.81l10.47,7.22c1.16-14.66,9.07-30,9.07-30l19.12,21.19c-1.18,2.24-2.62,4.32-4.31,6.2l-10.62,11.7,21.73,17.21c1.49,1.19,2.45,2.91,2.69,4.8l.8,6.36s5.7-3.23,9.55-2.82c.14,.01,.28,.06,.4,.14,.12,.08,.23,.18,.3,.3,.08,.12,.12,.26,.14,.4,.01,.14,0,.29-.05,.42-1,2.71-4,10.07-6.85,10.64,1.51,1.48,3.34,2.6,5.34,3.26,2.01,.66,4.14,.85,6.24,.56,1.17-.16,2.28-.59,3.24-1.27,.96-.68,1.75-1.58,2.29-2.62,2.9-5.49,8.93-17.56,9.64-23.9,0,0,3.32-7.47-6.7-12.62-1.94-.96-3.8-2.08-5.57-3.32-6.08-4.37-17.72-14.21-18.92-26.18l36.07,10.24,3.22-14.2Z" fill="#c7404e" fill-rule="evenodd"></path>
  <path d="M459.95,590.14c-1.86,.01-3.7-.35-5.41-1.05-1.72-.71-3.28-1.75-4.59-3.06l-.58-.65,.86-.17c2.09-.42,4.72-5.61,6.48-10.33,.03-.06,.04-.12,.04-.18s-.02-.13-.04-.18c-.04-.06-.09-.11-.15-.14-.06-.04-.12-.06-.19-.07-3.64-.4-9.2,2.73-9.26,2.76l-.65,.37-.89-7.11c-.22-1.76-1.11-3.36-2.5-4.46l-22.07-17.57,11-12.1c1.59-1.76,2.96-3.7,4.08-5.79l-18.4-20.38c-1.49,3.07-7.69,16.47-8.69,29.18l-.07,.86-11.56-7.89,.05-.31c0-.2,3.48-20.06,13.29-30.08,.51-.52,1.16-.88,1.87-1.04,.71-.16,1.45-.13,2.13,.11,1.9,.7,3.94,.91,5.94,.6,.68-.13,1.37-.1,2.04,.07,.67,.17,1.29,.49,1.82,.93,3.14,2.68,9.17,7.91,15.19,13.41,.44-10.75-4.25-12.77-4.3-12.79l-.18-.08-.14-.3c-.27-.58-.37-1.23-.26-1.87,.1-.64,.4-1.23,.84-1.69,.44-.48,1.01-.83,1.65-.98,.64-.15,1.3-.12,1.92,.11l46.51,17.06-3.37,15.15-35.9-10.18c1.54,11.28,12.27,20.53,18.62,25.09,1.75,1.24,3.59,2.34,5.51,3.29,9.76,5,7.28,12.34,7,13.18-.73,6.29-6.38,17.74-9.68,24-.58,1.11-1.43,2.07-2.46,2.79s-2.22,1.18-3.47,1.35c-.67,.09-1.35,.14-2.03,.15Zm-8.74-4.26c1.45,1.24,3.14,2.16,4.96,2.7,1.83,.54,3.75,.69,5.64,.44,1.09-.14,2.13-.55,3.03-1.18,.9-.63,1.63-1.47,2.14-2.44,2.65-5,8.88-17.39,9.58-23.73v-.14c.13-.29,3-7.12-6.47-12-1.96-.98-3.85-2.1-5.64-3.36-6.62-4.77-17.91-14.55-19.11-26.54l-.08-.73,36.27,10.29,3.05-13.25-45.68-16.75c-.43-.16-.9-.19-1.34-.08-.44,.11-.85,.35-1.16,.69-.3,.32-.5,.71-.58,1.14-.08,.43-.02,.87,.15,1.27,1,.52,5.45,3.45,4.68,14.74l-.07,1-.77-.7c-6.25-5.75-12.67-11.3-15.94-14.1-.41-.34-.89-.59-1.41-.73s-1.06-.16-1.59-.07c-2.17,.34-4.39,.12-6.45-.64-.51-.19-1.07-.22-1.61-.1-.53,.12-1.02,.4-1.39,.8-8.93,9.1-12.49,26.67-13,29.22l9.5,6.55c1.38-14.34,9-29.2,9.05-29.35l.33-.64,19.84,22-.16,.31c-1.2,2.27-2.67,4.39-4.39,6.3l-10.23,11.36,21.23,16.9c1.59,1.27,2.63,3.11,2.88,5.13l.7,5.64c1.64-.85,6-2.89,9.21-2.54,.22,.02,.43,.1,.61,.21,.19,.12,.34,.27,.46,.46,.12,.19,.19,.4,.21,.61,.02,.22,0,.44-.08,.64-1.22,3.52-3.73,9.18-6.37,10.65Z"></path>
  <path d="M446.81,576.62s-3,10,3.49,9.08c0,0,3.3-.66,6.91-10.77,.05-.13,.06-.27,.05-.4-.01-.14-.06-.27-.13-.38-.07-.12-.16-.22-.28-.3-.11-.08-.24-.13-.38-.15-1.35-.21-4.22,.05-9.67,2.92Z" fill="#fff" fill-rule="evenodd"></path>
  <path d="M449.48,586.26c-.52,.03-1.04-.06-1.52-.26s-.91-.51-1.25-.9c-2.19-2.54-.46-8.37-.38-8.62l.06-.2,.18-.1c5.44-2.9,8.43-3.22,10-3,.21,.04,.4,.11,.57,.23,.17,.12,.32,.27,.43,.45,.11,.18,.17,.38,.19,.6,.02,.21,0,.42-.07,.62-3.6,10.08-6.92,11-7.29,11.09-.31,.05-.61,.08-.92,.09Zm-2.25-9.3c-.27,1-1.4,5.59,.23,7.49,.35,.36,.8,.61,1.28,.75,.49,.13,1,.13,1.49,0,0,0,3.09-.87,6.51-10.44,.03-.06,.04-.12,.04-.18s-.01-.13-.04-.18c-.03-.05-.08-.1-.13-.13-.05-.03-.11-.06-.17-.07-1.18-.17-3.87-.04-9.21,2.77Z"></path>
  <path d="M326.02,463.95s-7.87,33.23-14.66,44.6c-4.86,7.89-9.24,16.07-13.12,24.49-2.01,3.7-3.69,7.58-5,11.59,0,0,18,4.44,25.57,7.51,.42,.18,.89,.21,1.34,.1,.44-.11,.84-.37,1.12-.73,1.16-1.48,2.92-4.46,3.89-9.73,.29-1.91,1.21-3.68,2.62-5,1.35-3.04,2.09-6.31,2.19-9.63,0,0,10.49-28.2,25.14-49.19-3.15-4.72-7.52-8.51-12.63-10.98-5.12-2.46-10.8-3.51-16.46-3.03Z" fill="#fff" fill-rule="evenodd"></path>
  <path d="M319.6,552.8c-.34,0-.68-.06-1-.19-7.49-3-25.32-7.45-25.5-7.5l-.51-.12,.15-.5c1.33-4.04,3.03-7.96,5.07-11.69,3.88-8.43,8.26-16.61,13.12-24.51,6.67-11.17,14.52-44.13,14.6-44.46l.08-.36h.37c5.74-.46,11.51,.62,16.7,3.12,5.19,2.5,9.62,6.34,12.84,11.12l.17,.27-.19,.27c-14.08,20.17-24.44,47.38-25.06,49-.1,3.36-.86,6.67-2.23,9.74l-.14,.17c-2,1.59-2.43,4.67-2.44,4.7-1,5.27-2.7,8.33-4,10-.25,.3-.56,.54-.91,.7-.35,.16-.73,.24-1.12,.24Zm-25.74-8.53c3,.75,18.29,4.65,25.12,7.41,.32,.13,.68,.16,1.02,.07,.34-.09,.64-.28,.87-.55,1.21-1.55,2.86-4.46,3.79-9.51,.3-2,1.25-3.85,2.71-5.25,1.27-2.95,1.98-6.11,2.09-9.32v-.16c.1-.28,10.59-28.26,25-49-3.11-4.49-7.34-8.09-12.26-10.46-4.92-2.37-10.37-3.42-15.82-3.05-.91,3.83-8.18,33.59-14.62,44.39-4.84,7.87-9.19,16.02-13.05,24.41-1.92,3.53-3.55,7.22-4.85,11.02Z"></path>
  <path d="M293.23,544.63s-3.84,7.82-6.3,14.73c-.86,2.41-2.17,4.65-3.85,6.58-1.26,1.45-2.31,3.07-3.12,4.81-1.4,2.99-3.48,5.62-6.08,7.66-.66,.52-1.35,.98-2.08,1.39,0,0,16.88,2.52,19,8.3,.04,.13,.05,.26,.03,.4-.02,.13-.07,.26-.15,.37-.08,.11-.18,.2-.3,.26-.12,.06-.25,.1-.39,.1-3.69,0-16.54,0-24.34-2,0,0-1.1,14,3.71,15.52l35.42,.44s10.06,.88,10.06-11.59c0,0,1.3-17,4.58-21l.79,22.28c.03,.76,.33,1.49,.84,2.06,.51,.57,1.21,.94,1.96,1.04,3.12,.42,8.36,.85,12.49-.25,.66-.18,1.25-.57,1.67-1.11,.43-.54,.67-1.2,.7-1.89l1.48-44.16s.22-6.34-2.41-7.43c0,0-.43,5.46-3.06,5.68l-.22-13.12s3.5,.22,3.28-5.46l.06-4.25c.02-.6-.12-1.19-.41-1.72-.28-.53-.7-.97-1.21-1.28-1-.57-2.3-.61-3.62,1.54-8.32-2.42-16.5-5.28-24.52-8.56-.25-.11-.51-.16-.78-.17-.27,0-.54,.05-.78,.15-.25,.1-.47,.26-.66,.45-.19,.19-.34,.42-.43,.67l-2.41,6.29c-.17,.49-.15,1.04,.07,1.51,.22,.48,.62,.84,1.11,1.03,8.48,3.32,17.27,5.81,26.24,7.43-.44,1.86-1.04,3.68-1.79,5.43,0,0-1.92,1.22-2.62,5-.52,3.56-1.92,6.94-4.06,9.83-.27,.33-.63,.57-1.04,.68-.41,.11-.85,.1-1.25-.04-3.8-1.31-14.96-5.11-25.61-7.6Z" fill="#c7404e" fill-rule="evenodd"></path>
  <path d="M305.26,603.75h-.49l-35.53-.46c-5.13-1.63-4.11-15.45-4.06-16v-.59l.58,.15c7.73,2,20.49,2,24.21,2,.06,0,.12-.02,.17-.04,.05-.03,.1-.07,.13-.12,.02-.04,.04-.09,.04-.14s-.01-.1-.04-.14c-2-5.44-18.46-7.95-18.63-8l-1.56-.23,1.42-.71c.71-.38,1.38-.83,2-1.34,2.54-1.99,4.57-4.55,5.94-7.47,.83-1.81,1.9-3.49,3.19-5,1.64-1.89,2.92-4.07,3.76-6.42,2.44-6.86,6.28-14.7,6.32-14.78l.17-.36,.39,.09c8.68,2.09,17.26,4.62,25.69,7.57,.3,.11,.63,.13,.95,.05,.31-.08,.59-.27,.79-.52,2.1-2.82,3.47-6.1,4-9.57,.66-3.54,2.31-5,2.75-5.32,.65-1.51,1.16-3.07,1.54-4.67-8.81-1.64-17.45-4.11-25.8-7.37-.62-.24-1.11-.71-1.38-1.32-.27-.6-.29-1.29-.05-1.9l2.41-6.29c.12-.32,.3-.61,.54-.85,.24-.24,.52-.43,.83-.56,.31-.14,.66-.21,1-.21s.69,.07,1,.21c7.88,3.23,15.93,6.05,24.11,8.43,1.59-2.33,3.22-1.88,4.08-1.39,.59,.36,1.08,.88,1.41,1.49,.33,.61,.49,1.3,.46,2l-.06,4.25c.09,2.27-.39,4-1.44,5-.5,.49-1.14,.82-1.83,.93l.2,12c1.41-.74,2-3.82,2.08-5.07l.05-.69,.64,.27c2.86,1.19,2.73,7.23,2.71,7.91l-1.59,44.19c-.02,.8-.31,1.57-.8,2.2-.49,.63-1.18,1.08-1.95,1.29-4.07,1.09-9.14,.75-12.68,.26-.87-.12-1.68-.54-2.27-1.2-.59-.65-.93-1.5-.96-2.38l-.73-20.61c-2.51,5.38-3.61,19.21-3.61,19.36,0,4.24-1.16,7.47-3.44,9.56-1.84,1.63-4.21,2.53-6.66,2.52Zm-35.78-1.45l35.34,.43c2.36,.11,4.66-.69,6.45-2.23,2.06-1.9,3.1-4.88,3.1-8.86,.06-.74,1.35-17.29,4.7-21.31l.84-1,.83,23.58c.02,.65,.27,1.26,.7,1.74,.43,.48,1.02,.79,1.67,.88,2.82,.39,8.17,.87,12.29-.24,.56-.16,1.06-.49,1.42-.95,.36-.46,.56-1.02,.58-1.6l1.46-44.18c0-1.48-.15-5.18-1.51-6.55-.25,1.63-1.07,5.12-3.42,5.31l-.53,.05-.23-14.2h.54c.61-.02,1.19-.28,1.62-.71,.81-.81,1.2-2.28,1.12-4.24l.06-4.28c.02-.52-.09-1.03-.33-1.48-.24-.46-.6-.84-1.04-1.12-.39-.22-1.55-.9-2.94,1.37l-.2,.32-.36-.1c-8.34-2.43-16.55-5.29-24.59-8.58-.19-.08-.39-.12-.59-.12s-.4,.04-.59,.12c-.18,.08-.35,.19-.49,.34-.14,.14-.25,.32-.32,.5l-2.42,6.29c-.14,.37-.13,.78,.03,1.15,.16,.36,.46,.65,.83,.79,8.45,3.31,17.21,5.79,26.14,7.4l.54,.08-.13,.53c-.44,1.91-1.06,3.78-1.86,5.58l-.15,.15s-1.75,1.19-2.4,4.7c-.53,3.63-1.96,7.06-4.15,10-.34,.41-.79,.71-1.3,.85-.51,.14-1.06,.12-1.56-.05-4.12-1.45-14.76-5.06-25.13-7.52-.77,1.62-4,8.35-6.1,14.33-.9,2.48-2.26,4.76-4,6.74-1.21,1.43-2.22,3.02-3,4.72-1.43,3.07-3.57,5.76-6.23,7.85-.35,.27-.68,.51-1,.72,4.09,.73,16.21,3.32,18.09,8.39,.07,.2,.1,.41,.07,.62-.03,.21-.11,.41-.23,.58-.12,.18-.29,.33-.48,.43-.19,.1-.41,.16-.62,.17-3.67,0-16,0-23.9-1.86-.21,4.18,0,13.26,3.38,14.46h0Z"></path>
  <path d="M333.89,546.81l-.18-6.9s2.89-.33,3.24,1.22c0,0-.25,5.53-3.06,5.68Z" fill="#fff" fill-rule="evenodd"></path>
  <path d="M333.41,547.34l-.21-7.87,.45-.06c.14,0,3.34-.36,3.79,1.61v.13c0,.24-.3,6-3.53,6.16l-.5,.03Zm.81-7l.16,5.81c1.5-.65,2-3.69,2.07-5-.22-.66-1.45-.8-2.23-.77v-.04Z"></path>
  <path d="M272.06,580.11s-6.28,2-6.42,6.4c0,.21,.07,.41,.2,.57,.13,.16,.32,.27,.53,.31,3,.57,15.28,2.74,23.76,1.94,.13-.01,.26-.06,.37-.13,.11-.07,.2-.17,.27-.28,.07-.11,.11-.24,.12-.37s-.01-.26-.06-.38c-.6-1.43-2.8-4.1-10.71-6.56l-8.05-1.5Z" fill="#fff" fill-rule="evenodd"></path>
  <path d="M286,590c-6.62-.15-13.22-.86-19.73-2.11-.32-.06-.61-.24-.82-.49-.21-.25-.32-.57-.31-.9,.15-4.66,6.49-6.77,6.76-6.86h.13l8.18,1.52c7.8,2.43,10.32,5.07,11.07,6.86,.08,.19,.12,.4,.11,.61-.01,.21-.08,.41-.19,.59-.11,.18-.25,.33-.43,.44-.17,.11-.37,.18-.57,.21-1.35,.08-2.75,.13-4.2,.13Zm-13.9-9.37c-.83,.3-5.84,2.25-6,5.9,0,.09,.03,.18,.09,.24,.06,.07,.14,.11,.23,.13,3.44,.65,15.32,2.71,23.62,1.93,.05,0,.1-.02,.15-.05,.04-.03,.08-.07,.11-.11,.03-.04,.04-.1,.05-.15,0-.05,0-.1-.02-.15-.55-1.31-2.63-3.86-10.39-6.29l-7.83-1.45Z"></path>
  <path d="M384.01,416.27l-.93-.39c.13-.29,11.88-29.48-17.63-54.22l.65-.76c30.08,25.22,18.03,55.07,17.91,55.37Z" fill="#fff"></path>
  <path d="M386.61,401.69c-.07,0-.14-.02-.2-.05-.12-.05-.21-.15-.26-.28-.05-.12-.04-.26,.01-.38,10.37-22.91-14.27-46.19-14.52-46.43-.09-.09-.14-.21-.14-.34s.05-.25,.13-.34c.09-.09,.21-.15,.33-.16,.13,0,.25,.03,.35,.11,.26,.24,25.42,24,14.75,47.57-.04,.09-.1,.17-.18,.22-.08,.05-.18,.08-.28,.08Z" fill="#fff"></path>
  <path d="M356.73,464.41c-.07,0-.14-.02-.2-.05-.06-.02-.12-.06-.16-.11-.05-.05-.08-.1-.11-.17-.02-.06-.04-.13-.03-.19,0-.07,.02-.13,.05-.19,.23-.52,23.09-52.38,27.6-81,.22-1.46,.9-2.8,1.94-3.85,1.04-1.04,2.39-1.72,3.85-1.95,22.53-3.22,45.45-2.41,67.7,2.39,.13,.03,.24,.11,.31,.22,.07,.11,.1,.25,.07,.37-.03,.13-.11,.24-.22,.32s-.25,.1-.38,.07c-22.12-4.78-44.92-5.59-67.33-2.38-1.25,.18-2.42,.76-3.32,1.65-.9,.89-1.49,2.05-1.68,3.3-4.53,28.74-27.43,80.73-27.66,81.25-.04,.08-.1,.16-.17,.21-.07,.06-.16,.09-.25,.1Z" fill="#fff"></path>
  <path d="M562,295.26c-.12,0-.23-.03-.32-.11-.1-.09-.16-.21-.17-.34-.01-.13,.03-.26,.11-.37,.45-.54,11.18-13.12,19.39-12.59,1.15,.08,2.26,.43,3.23,1.04,.97,.61,1.79,1.44,2.36,2.44,.05,.05,.08,.12,.1,.18,.02,.07,.03,.14,.02,.21s-.04,.14-.07,.2c-.04,.06-.09,.11-.15,.15s-.13,.07-.2,.08c-.07,0-.14,0-.21-.01-.07-.02-.13-.05-.19-.1-.05-.05-.1-.1-.13-.17-.49-.86-1.19-1.58-2.03-2.11-.84-.52-1.8-.83-2.79-.89-7.68-.51-18.46,12.11-18.57,12.24-.05,.05-.11,.09-.18,.11-.07,.03-.14,.04-.2,.04Z"></path>
  <path d="M535.84,269.27c-3.37-3.52-7.21-6.55-11.42-9-2.52-1.36-4.87-3.02-7-4.93-.08-.08-.18-.14-.29-.18-.11-.04-.23-.04-.34-.02-.11,.02-.22,.07-.31,.14-.09,.07-.16,.16-.21,.27l3.68-13.64c.06-.23,.2-.43,.39-.58,.19-.14,.42-.22,.66-.22s.47,.08,.66,.22c.19,.14,.33,.35,.39,.58,2.68,9.97,7.37,19.28,13.79,27.36Z" fill-rule="evenodd"></path>
  <path d="M388.94,235.75c0,.06,0,.12-.04,.18-.03,.05-.07,.1-.12,.14-.05,.04-.11,.06-.17,.06-.06,0-.12,0-.18-.03-.22-.12-.48-.16-.73-.12-3.31,.54-10.95,2-16.17,4.36,2.76-1.51,5.44-3.18,8-5,3.89-2.8,6.81-6.75,8.33-11.29v-.13c.06-.17,.17-.3,.32-.39,.15-.09,.33-.11,.5-.08,.17,.04,.32,.13,.42,.27,.1,.14,.15,.31,.14,.49-.35,3.84-.46,7.69-.31,11.54Z" fill-rule="evenodd"></path>
  <path d="M336.48,282.75h-.12c-15.37-2.74-39.16-12.11-39.4-12.2-.12-.05-.22-.15-.27-.27-.05-.12-.06-.26,0-.38,.02-.06,.06-.12,.1-.17,.05-.05,.1-.09,.16-.11,.06-.03,.13-.04,.19-.04s.13,.01,.19,.04c.24,.09,23.94,9.42,39.21,12.15,.13,.01,.26,.08,.34,.18,.09,.1,.13,.23,.11,.37-.01,.13-.08,.26-.18,.34-.1,.08-.23,.13-.37,.11l.03-.02Z"></path>
  <path d="M332.88,263.25c-.1,0-.2-.03-.29-.09-.08-.06-.15-.14-.18-.24-4.55-13-32.79-16.66-33.08-16.69-.13-.02-.25-.09-.33-.19-.08-.11-.12-.24-.1-.37,0-.07,.03-.13,.06-.19,.03-.06,.08-.11,.13-.15,.05-.04,.11-.07,.18-.09,.06-.02,.13-.02,.2-.01,1.18,.15,29.14,3.8,33.89,17.36,.02,.06,.03,.13,.03,.19,0,.07-.02,.13-.05,.19-.03,.06-.07,.11-.12,.15-.05,.04-.1,.08-.17,.1-.05,.02-.11,.03-.17,.03Z"></path>
  <path d="M392.36,202.5c-.13,0-.25-.07-.34-.17s-.13-.23-.12-.36c.9-11.95-1.47-17.41-3.62-19.9-.89-1.18-2.2-1.99-3.66-2.26-.13-.01-.25-.07-.34-.17s-.13-.23-.12-.36c0-.06,.02-.13,.05-.19,.03-.06,.07-.11,.11-.16,.05-.04,.1-.08,.17-.1,.06-.02,.13-.03,.19-.03,1.71,.28,3.26,1.19,4.32,2.56,2.29,2.62,4.83,8.33,3.9,20.67,0,.07-.02,.13-.05,.19-.03,.06-.07,.11-.12,.15-.05,.04-.11,.07-.17,.1-.06,.02-.13,.03-.19,.02Z"></path>
  <path d="M425.71,183.56c-3.35-.05-6.66-.78-9.72-2.15-2.1-.95-4.01-2.28-5.62-3.92-5.5-5.39-15.13-2.49-15.23-2.46-.12,.02-.24,0-.35-.06-.1-.06-.18-.16-.22-.28-.04-.12-.03-.24,.02-.35s.14-.2,.25-.25c.41-.13,10.29-3.12,16.22,2.69,1.53,1.56,3.33,2.83,5.32,3.73,3.95,1.72,10,3.25,16.24,.74,.06-.02,.13-.04,.19-.04,.07,0,.13,.01,.19,.04,.06,.03,.12,.06,.16,.11,.04,.05,.08,.1,.11,.16,.05,.12,.04,.26,0,.38-.05,.12-.15,.22-.27,.27-2.32,.92-4.79,1.4-7.29,1.39Z"></path>
  <path d="M442.92,301.95c-.07,0-.15-.02-.21-.05s-.12-.08-.17-.14c-5-6-9.88-15.81-12.36-21.1-.78-1.67-1.41-3.19-1.94-4.65-13.61-38-9.63-84.82-9.58-85.29,.01-.13,.08-.25,.18-.34,.1-.09,.23-.13,.37-.12,.13,.01,.26,.08,.34,.18,.08,.1,.13,.23,.11,.37,0,.47-4,47.11,9.53,84.86,.52,1.43,1.14,2.93,1.91,4.56,2,4.23,7.14,14.73,12.22,20.9,.08,.1,.12,.23,.11,.36-.01,.13-.08,.25-.18,.34-.09,.08-.21,.12-.33,.12Z"></path>
  <path d="M454.21,304.11c-.07,0-.15-.02-.21-.05-.07-.03-.13-.08-.18-.13-11.51-13.67-11-37.5-11-37.74,.02-.13,.09-.24,.18-.32,.1-.08,.23-.12,.35-.12,.07,0,.13,.01,.19,.04,.06,.03,.11,.06,.16,.11,.04,.05,.08,.1,.1,.17,.02,.06,.03,.13,.03,.19,0,.23-.48,23.68,10.79,37.06,.06,.07,.1,.16,.11,.26,.01,.09,0,.19-.04,.27-.04,.09-.1,.16-.18,.21-.08,.05-.17,.08-.27,.09l-.04-.04Z"></path>
  <path d="M445.56,286.34c-.08,0-.16-.02-.23-.06-.07-.04-.13-.09-.18-.15-.04-.05-.07-.12-.08-.18-.01-.07-.01-.13,0-.2,.01-.07,.04-.13,.07-.18,.04-.06,.08-.1,.14-.14,.5-.35,50.07-35.58,56.45-91.36,.01-.13,.08-.25,.18-.33,.1-.08,.24-.12,.37-.11,.13,.01,.25,.08,.33,.18,.08,.1,.12,.23,.11,.37-6.43,56.24-56.37,91.72-56.87,92.07-.09,.06-.19,.09-.29,.09Z"></path>
  <path d="M428.77,300.94v9.55h-32.48c.14-1.3,.25-2.59,.3-3.89,.07-1.9-.1-3.8-.51-5.66h32.69Z" fill="#fff" fill-rule="evenodd"></path>
  <path d="M429.27,310.99h-33.54l.06-.56c.15-1.31,.25-2.6,.3-3.85,.07-1.86-.1-3.72-.5-5.53l-.13-.61h33.81v10.55Zm-32.43-1h31.43v-8.55h-31.57c.32,1.71,.46,3.44,.39,5.18-.04,1.13-.13,2.23-.25,3.37Z"></path>
  <path d="M447.18,308.83l9,37.82c.45,2.15,.76,4.33,.93,6.52,.54,7.74,1.51,15.44,2.92,23.07,.57,2.78,.96,5.6,1.15,8.44,.45,6.4,1.16,18.2,1.53,33.19l.51,31.36c.01,.71,.3,1.39,.81,1.89,.51,.5,1.19,.78,1.9,.79h5.35c.36,0,.72-.07,1.05-.22,.33-.14,.63-.35,.89-.61s.45-.57,.58-.9c.13-.34,.2-.7,.19-1.06l-.94-46c-.07-3.27-.5-6.52-1.27-9.69l-21-84.85-3.6,.24Z" fill="#c7404e" fill-rule="evenodd"></path>
  <path d="M471.25,452.4h-5.35c-.84,0-1.65-.34-2.25-.93-.6-.59-.95-1.39-.97-2.23l-.5-31.37c-.37-15.3-1.12-27.34-1.53-33.16-.19-2.81-.57-5.6-1.14-8.36-1.42-7.65-2.39-15.38-2.93-23.14-.16-2.17-.47-4.33-.92-6.46l-9.11-38.38,4.63-.31,.1,.41,21,84.85c.79,3.21,1.22,6.5,1.29,9.8l.94,46c.01,.43-.06,.85-.22,1.25-.16,.4-.39,.76-.69,1.07-.3,.31-.66,.55-1.05,.71-.4,.16-.82,.25-1.25,.25h-.05Zm-23.45-143.11l8.84,37.25c.45,2.17,.76,4.38,.94,6.59,.53,7.72,1.5,15.4,2.91,23,.57,2.8,.96,5.64,1.16,8.5,.41,5.83,1.15,17.89,1.53,33.21l.5,31.37c.01,.58,.25,1.13,.67,1.54,.42,.41,.97,.64,1.55,.64h5.35c.3,0,.59-.06,.86-.17,.27-.11,.52-.28,.72-.49,.21-.21,.37-.46,.48-.74,.11-.27,.16-.57,.15-.86l-.94-46c-.07-3.23-.49-6.45-1.26-9.59l-20.85-84.45-2.61,.2Z"></path>
  <path d="M480.91,302.69c-.07,0-.13,0-.19-.03s-.11-.06-.16-.11c-.05-.05-.08-.1-.11-.16-.03-.06-.04-.13-.04-.19s.01-.13,.04-.19c.03-.06,.06-.12,.11-.16,5.87-5.87,13.4-13.73,13.48-13.81,.04-.05,.1-.08,.16-.11,.06-.02,.12-.04,.19-.04s.13,.01,.19,.04c.06,.03,.11,.06,.16,.11,.05,.05,.08,.1,.11,.16,.03,.06,.04,.13,.04,.19s-.01,.13-.04,.19c-.02,.06-.06,.12-.11,.16-.08,.08-7.62,7.95-13.5,13.83-.09,.08-.21,.12-.33,.12Z"></path>
  <path d="M471.99,295.26c-.07,0-.14-.02-.21-.04-.07-.03-.12-.07-.17-.12-.08-.1-.13-.24-.11-.37,.01-.13,.07-.26,.18-.34,16.1-13.65,31.11-28.54,44.9-44.52,.08-.1,.2-.17,.33-.18,.13-.01,.26,.03,.37,.11,.1,.09,.16,.21,.18,.34s-.02,.26-.11,.37c-13.82,16.02-28.87,30.95-45,44.64-.1,.08-.22,.12-.35,.12Z"></path>
  <path d="M356.52,323.05s13.43,15.4,25,12.42c5.09-1.49,9.99-3.59,14.58-6.25,2.9-1.86,6.06-3.26,9.38-4.16,0,0,6.54-1,6.25-3.87,0,0,0-2.38-7.15-1.19-2.85,.46-5.66,1.13-8.41,2,0,0-.09-.06,0-.09,4.88-2.94,10.12-5.22,15.6-6.78,0,0,9.67-1.34,6.25-6.7,.73-.44,1.31-1.08,1.68-1.85,.14-.35,.21-.72,.18-1.1-.02-.38-.13-.74-.31-1.07-.18-.33-.44-.61-.75-.82-.31-.21-.66-.35-1.03-.41-2.16-.23-4.34-.04-6.43,.56l-7.59,1.48c1.92-1.66,4.14-2.93,6.55-3.72,0,0,3.27-1,2.08-4.16,0,0-1.49-3.28-8.63,1.19-2.86,1.77-5.36,4.07-7.36,6.77-1.44,2.04-3.31,3.75-5.47,5l-8.15,4.88s-5.26,2.41-9.23-.9l-4.38-3.31s-6.71,8.2-12.66,12.07Z" fill="#fff" fill-rule="evenodd"></path>
  <path d="M378.43,336.36c-10.83,0-21.78-12.4-22.29-13l-.38-.43,.49-.32c5.81-3.78,12.43-11.83,12.5-11.91l.31-.38,4.76,3.6c3.7,3.09,8.67,.86,8.72,.84l8.1-4.85c2.11-1.22,3.92-2.89,5.32-4.88,2.04-2.76,4.59-5.11,7.51-6.91,3.27-2,5.85-2.8,7.68-2.25,.35,.09,.68,.25,.97,.47,.29,.22,.53,.5,.7,.81,.2,.45,.3,.94,.3,1.43s-.1,.98-.3,1.43c-.52,.94-1.37,1.65-2.39,2-1.66,.6-3.24,1.38-4.72,2.35l5.51-1.08c2.16-.63,4.41-.84,6.65-.63,.46,.07,.89,.25,1.27,.52,.38,.27,.68,.62,.9,1.03,.22,.38,.34,.82,.36,1.26,.02,.44-.07,.88-.25,1.28-.33,.71-.83,1.32-1.46,1.79,.31,.49,.5,1.05,.54,1.63,.05,.58-.05,1.16-.27,1.69-1.33,2.89-6.89,3.69-7.13,3.72-4.22,1.21-8.31,2.85-12.19,4.9,2.64-.63,4.87-1,4.91-1,3.57-.59,6-.41,7.09,.55,.18,.13,.33,.31,.44,.5,.11,.2,.17,.41,.19,.64,.33,3.15-6,4.25-6.68,4.36-3.25,.89-6.34,2.27-9.17,4.09-4.64,2.68-9.59,4.8-14.73,6.32-1.06,.28-2.16,.42-3.26,.43Zm-21.15-13.21c2.26,2.43,14.05,14.43,24.15,11.84,5.05-1.48,9.9-3.56,14.45-6.19,2.93-1.89,6.13-3.32,9.5-4.23,1.63-.26,6.09-1.41,5.89-3.33,0,0,0-.24-.33-.47-.53-.4-2.05-1-6.24-.28-2.82,.45-5.6,1.1-8.33,1.94l-.43,.14-.43-.83,.4-.29c4.91-2.98,10.2-5.28,15.72-6.84,.12,0,5.32-.78,6.42-3.17,.18-.46,.23-.96,.15-1.45-.08-.49-.29-.95-.6-1.33l-.29-.45,.46-.26c.63-.39,1.14-.94,1.47-1.61,.12-.26,.17-.55,.16-.84-.01-.29-.1-.57-.24-.82-.15-.27-.36-.49-.61-.67-.25-.17-.54-.29-.84-.33-2.11-.19-4.24,.02-6.27,.61l-9.22,1.81,1.16-1.16c1.96-1.72,4.25-3.03,6.73-3.84,.76-.26,1.41-.78,1.81-1.48,.14-.32,.21-.66,.21-1s-.07-.68-.21-1c-.25-.37-.63-.63-1.07-.73-1.06-.3-3.11-.16-6.83,2.16-2.79,1.74-5.24,3.99-7.2,6.63-1.48,2.11-3.41,3.88-5.64,5.17l-8.15,4.87c-.27,.13-5.64,2.54-9.8-.93l-4-3c-1.36,1.54-6.8,7.83-11.95,11.36Z"></path>
  <path d="M397.36,315.14c-.08,0-.17-.02-.24-.06-.07-.04-.13-.1-.18-.17-.07-.11-.1-.25-.07-.38s.11-.24,.22-.31c2.39-1.56,4.64-2.91,5.78-3.57,.57-.34,1.19-.56,1.84-.66l13.26-2.09c.07,0,.13,0,.2,0,.06,.02,.12,.04,.18,.08,.05,.04,.1,.09,.13,.15,.03,.06,.06,.12,.07,.19,0,.07,0,.13-.01,.2-.02,.06-.04,.12-.08,.18-.04,.05-.09,.1-.15,.13-.06,.03-.12,.06-.18,.07l-13.25,2.1c-.53,.08-1.04,.26-1.5,.53-1.12,.66-3.36,2-5.74,3.55-.08,.04-.18,.06-.27,.06Z"></path>
  <path d="M397.78,309.93c-.08,0-.16,0-.23-.04-.07-.03-.14-.08-.19-.14-.04-.05-.07-.11-.08-.18-.01-.07-.02-.13,0-.2,.01-.07,.04-.13,.07-.18,.04-.05,.08-.1,.14-.14l6-4.16c.05-.04,.11-.08,.18-.1,.07-.02,.14-.03,.21-.02s.13,.03,.2,.07c.06,.04,.11,.08,.15,.14,.04,.06,.07,.12,.08,.19,.01,.07,.01,.14,0,.21-.01,.07-.04,.13-.08,.19-.04,.06-.09,.1-.15,.14l-6,4.17c-.09,.05-.18,.07-.28,.06Z"></path>
  <path d="M450.79,302.53s11.43-7.7,15.9-6.07c.32,.12,.61,.31,.86,.55,.24,.24,.44,.53,.56,.85,.77,1.89,3.34,9.25-.35,14.93-.2,.31-.48,.56-.8,.74-.32,.18-.69,.27-1.06,.26-2.1,0-7-.71-15.11-5.89v-5.37Z" fill="#fff" fill-rule="evenodd"></path>
  <path d="M465.88,314.32c-2.26,0-7.24-.78-15.36-6l-.23-.15v-5.95l.22-.15c.48-.32,11.7-7.81,16.35-6.12,.39,.15,.74,.37,1.04,.66,.3,.29,.53,.64,.68,1.02,.86,2.14,3.39,9.56-.4,15.4-.25,.38-.58,.7-.98,.91s-.85,.33-1.3,.34l-.02,.04Zm-14.59-6.66c7.77,4.91,12.46,5.66,14.59,5.66,.29,0,.57-.08,.83-.22,.25-.14,.47-.34,.63-.58,3.52-5.43,1.13-12.45,.31-14.47-.1-.25-.26-.49-.45-.68-.19-.19-.43-.34-.68-.44-3.39-1.23-11.93,3.68-15.23,5.86v4.87Z"></path>
  <path d="M450.88,304.95c-.12,0-.23-.04-.32-.11-.09-.07-.15-.17-.17-.28-.01-.07-.02-.13,0-.2,.01-.07,.04-.13,.07-.18,.04-.05,.08-.1,.14-.14,.05-.04,.11-.07,.18-.08l11.31-2.45c.13-.03,.27,0,.38,.07,.11,.07,.19,.19,.22,.32,.03,.13,0,.27-.07,.38-.07,.11-.19,.19-.32,.22l-11.31,2.46-.1-.02Z"></path>
  <path d="M462.18,308.8h-.11l-11.3-2.54c-.13-.03-.25-.11-.32-.22-.07-.11-.1-.25-.07-.38,.03-.13,.11-.25,.22-.32,.11-.07,.25-.1,.39-.07l11.31,2.54c.13,.01,.25,.08,.34,.19,.08,.1,.12,.24,.11,.37-.01,.13-.08,.25-.19,.34-.1,.08-.24,.12-.37,.11Z"></path>
  <path d="M445.2,302.36s-11.43-7.69-15.9-6.06c-.32,.12-.61,.31-.86,.55-.25,.24-.44,.53-.56,.85-.76,1.88-3.34,9.24,.35,14.93,.21,.31,.49,.56,.81,.73,.33,.17,.69,.27,1.06,.27,2.1,0,7-.72,15.1-5.89v-5.38Z" fill="#fff" fill-rule="evenodd"></path>
  <path d="M430.11,314.15c-.46,0-.91-.11-1.31-.33-.4-.22-.74-.54-.98-.92-3.78-5.83-1.26-13.25-.39-15.39,.15-.38,.38-.73,.67-1.02,.29-.29,.65-.51,1.04-.66,4.67-1.7,15.87,5.8,16.35,6.12l.22,.15v5.94l-.23,.15c-8.12,5.19-13.12,5.96-15.37,5.96Zm.65-17.58c-.44-.01-.88,.06-1.29,.2-.25,.1-.49,.25-.68,.44-.19,.19-.35,.42-.45,.67-.81,2-3.21,9.05,.31,14.48,.15,.24,.37,.44,.62,.58,.25,.14,.54,.21,.83,.21,2.13,0,6.82-.74,14.59-5.65v-4.87c-2.93-1.95-10.02-6.06-13.93-6.06Z"></path>
  <path d="M445.12,304.75h-.11l-11.31-2.46c-.07-.01-.13-.04-.18-.08-.06-.04-.1-.09-.14-.14-.04-.06-.06-.12-.07-.19-.01-.07-.01-.13,0-.2,.01-.07,.04-.13,.08-.18,.04-.05,.09-.1,.14-.14,.06-.04,.12-.06,.19-.07,.07-.01,.13,0,.2,0l11.3,2.46c.13,.01,.25,.08,.34,.18,.08,.1,.12,.24,.11,.37-.01,.13-.08,.26-.18,.34s-.24,.12-.37,.11Z"></path>
  <path d="M433.81,308.64c-.11,0-.22-.04-.31-.11-.09-.07-.15-.17-.18-.28-.01-.07-.02-.13,0-.2,.01-.07,.03-.13,.07-.18,.04-.06,.08-.1,.13-.14,.05-.04,.12-.06,.18-.08l11.31-2.54c.07-.01,.13-.02,.2,0,.07,.01,.13,.04,.19,.07,.06,.04,.1,.08,.14,.14,.04,.05,.07,.12,.08,.18,.01,.07,.02,.13,0,.2-.01,.07-.04,.13-.07,.19-.04,.06-.08,.1-.14,.14-.06,.04-.12,.07-.18,.08l-11.31,2.54h-.11Z"></path>
  <path d="M511.79,326.75l-6.37-.31s-3.2-1.23-5.91-6.15l-3.9-8.52c-.97-2.12-2.7-3.79-4.85-4.69l-24.16-10.12c-.55-.25-1.18-.31-1.77-.17-.59,.14-1.12,.46-1.51,.93-.7,.92-.83,2.4,1.51,4.61l-6.68-2c-.66-.2-1.36-.13-1.97,.17-.61,.31-1.08,.83-1.32,1.48-.23,.63-.22,1.32,.03,1.94,.25,.62,.73,1.13,1.33,1.42l2.95,1.41s-3.93,3.93,4.92,7.87c0,0-3.93,5.66,10.33,10.58l8.31,2.56c.59,.19,1.14,.5,1.6,.91s.83,.92,1.09,1.49c1.95,4.44,8.73,15.52,27.13,12.75l10.27-1.71-11.03-14.45Z" fill="#fff" fill-rule="evenodd"></path>
  <path d="M506.9,343.81c-14.33,0-20-9.17-21.94-13.49-.22-.5-.55-.95-.96-1.32-.41-.37-.89-.64-1.42-.8l-8.3-2.57c-6.3-2.17-10-4.77-10.95-7.72-.35-1.01-.32-2.1,.08-3.09-3.32-1.56-5.19-3.33-5.55-5.25-.17-.93,.03-1.89,.54-2.68l-2.39-1.14c-.73-.34-1.3-.94-1.6-1.68-.3-.74-.31-1.57-.02-2.32,.28-.77,.83-1.4,1.56-1.77,.72-.37,1.56-.45,2.35-.23l5,1.49c-1.33-1.82-1-3.12-.35-3.94,.45-.55,1.08-.94,1.78-1.11,.7-.16,1.43-.09,2.08,.2l24.17,10.12c2.26,.95,4.08,2.71,5.1,4.94l3.91,8.52c2.34,4.26,5.1,5.65,5.56,5.86l6.52,.32,.14,.18,11.53,15.13-11.09,1.84c-1.9,.31-3.82,.48-5.74,.51Zm-49.54-43.13c-.45,0-.88,.14-1.25,.4-.37,.26-.65,.62-.8,1.04-.19,.51-.19,1.08,.02,1.58,.21,.51,.6,.92,1.09,1.15l3.59,1.71-.5,.5c-.28,.31-.49,.68-.61,1.09-.12,.4-.14,.83-.07,1.25,.31,1.65,2.2,3.28,5.45,4.72l.55,.25-.35,.49c-.24,.42-.38,.88-.41,1.36-.04,.48,.03,.96,.2,1.4,.61,1.81,2.89,4.51,10.3,7.06l8.28,2.57c.66,.2,1.27,.55,1.79,1.01,.52,.46,.93,1.03,1.21,1.66,2,4.64,8.7,15.14,26.6,12.45l9.44-1.57-10.38-13.62-6.3-.33c-.14-.05-3.4-1.35-6.17-6.37l-3.91-8.55c-.92-2.01-2.56-3.59-4.59-4.44l-24.18-10.12c-.45-.2-.96-.26-1.44-.15-.48,.11-.92,.37-1.24,.75-.76,1-.27,2.32,1.45,3.95l1.52,1.43-8.64-2.6c-.21-.06-.43-.08-.65-.07Z"></path>
  <path d="M486.42,310.01c-.05,0-.11,0-.16,0l-21.59-7.26c-.06-.02-.12-.05-.17-.1-.05-.04-.09-.1-.12-.15-.03-.06-.05-.12-.05-.19,0-.07,0-.13,.03-.19,.04-.13,.13-.23,.25-.29s.25-.07,.38-.03l21.59,7.23c.12,.04,.23,.14,.29,.26,.06,.12,.07,.26,.03,.38-.03,.1-.1,.19-.18,.25-.09,.06-.19,.09-.29,.09Z"></path>
  <path d="M484.22,315.14c-8.25-.19-24.56-7.66-25.25-8-.12-.06-.21-.16-.26-.28s-.04-.26,.01-.38,.16-.21,.28-.26c.12-.05,.26-.04,.38,.01,.17,.08,16.81,7.71,24.85,7.89,.07,0,.13,.01,.19,.04s.12,.06,.16,.11c.04,.05,.08,.11,.1,.17,.02,.06,.03,.13,.03,.19,0,.07-.01,.13-.04,.2-.02,.06-.06,.12-.11,.17-.05,.05-.1,.09-.17,.11-.06,.03-.13,.04-.2,.04Z"></path>
  <path d="M485.14,321.18h-.07c-7.34-.97-14.49-3.04-21.2-6.16-.06-.03-.11-.07-.16-.12-.04-.05-.08-.11-.1-.17-.02-.06-.03-.13-.02-.19,0-.06,.02-.13,.06-.19,.06-.12,.16-.21,.29-.25,.13-.04,.26-.03,.38,.03,6.62,3.06,13.66,5.1,20.89,6.06,.13,0,.26,.07,.34,.17,.09,.1,.13,.23,.12,.36,0,.13-.07,.26-.17,.34-.1,.09-.23,.13-.36,.12h0Z"></path>
  <path d="M445.2,307.75l3.76,21.72c.45,2.15,.75,4.33,.92,6.52,.54,7.74,1.51,15.45,2.93,23.08,.57,2.78,.95,5.6,1.14,8.43,.45,6.4,1.17,18.2,1.53,33.19l.51,31.36c0,.71,.3,1.4,.81,1.9,.51,.5,1.2,.78,1.91,.78h5.34c.36,0,.72-.07,1.06-.21,.33-.14,.64-.35,.89-.6,.25-.26,.45-.57,.58-.9,.13-.34,.2-.7,.19-1.06l-.95-46c-.07-3.27-.49-6.52-1.27-9.7l-16.54-67.7-2.81-.8Z" fill="#c7404e" fill-rule="evenodd"></path>
  <path d="M464.05,435.25h-5.34c-.85,0-1.65-.34-2.26-.93-.6-.59-.95-1.4-.96-2.24l-.51-31.33c-.37-15.31-1.12-27.35-1.53-33.16-.19-2.81-.57-5.61-1.13-8.37-1.44-7.66-2.43-15.4-2.96-23.17-.17-2.17-.48-4.32-.92-6.45l-3.9-22.52,3.85,1.07,16.62,68c.78,3.21,1.21,6.5,1.28,9.81l.95,46c0,.43-.07,.85-.23,1.25s-.39,.76-.69,1.07c-.3,.31-.66,.55-1.05,.72-.4,.17-.82,.25-1.25,.26h.03Zm-18.22-126.79l3.62,21c.45,2.17,.76,4.36,.93,6.57,.53,7.72,1.51,15.4,2.92,23,.57,2.81,.96,5.65,1.15,8.51,.41,5.82,1.16,17.88,1.53,33.21l.51,31.36c0,.58,.25,1.14,.66,1.55,.42,.41,.97,.64,1.56,.64h5.34c.29,0,.59-.06,.86-.18,.27-.12,.52-.28,.72-.49,.21-.21,.37-.46,.48-.73,.11-.27,.16-.57,.16-.86l-.95-46c-.07-3.23-.49-6.45-1.25-9.59l-16.48-67.49-1.76-.49Z"></path>
  <path d="M449.2,300.85h-2.39c-.88,0-1.59,.71-1.59,1.59v5.59c0,.88,.71,1.59,1.59,1.59h2.39c.88,0,1.59-.71,1.59-1.59v-5.59c0-.88-.71-1.59-1.59-1.59Z" fill="#231f20"></path>
  <path d="M560.36,315.24c-6.56,0-13.08-.96-19.37-2.82-.11-.05-.2-.15-.24-.26-.05-.11-.05-.24-.01-.35,.04-.12,.12-.21,.23-.27,.11-.06,.23-.08,.35-.05,.2,.06,19.92,6.48,37.07-.47,.12-.05,.26-.05,.38,0,.12,.05,.22,.15,.27,.27,.05,.12,.05,.26,0,.38-.05,.12-.15,.22-.27,.27-5.86,2.27-12.11,3.39-18.39,3.3Z"></path>
  <path d="M463.21,160.75c4.74,.11,9.38-1.29,13.27-4-5.23,15-28.39,19.69-28.39,19.69l-5.51-26.24,.76,.15s9.56,9.89,19.87,10.4Z" fill-rule="evenodd"></path>
  <path d="M456.57,90.08s-18.21,5.11-17.16,23.67c-.75,7.47-.37,15.01,1.13,22.37,0,0,5.3,27.1,7.63,39.94,.68,3.74,.91,7.55,.68,11.35-.5,8.29-1.88,23.32-5.55,32,0,0,1.39-4.15-.27-14.12,0,0-1.94,14.67-8,16.33,0,0,6.92-24.07,1.66-45.94,0,0-15.77-59.77,2.77-82.74,0,0,10.79-15.23,20.2-13,0,0,7.2-3.6,15.78,4.43,0,0,18.81,5.81,22.41,35.7l7.2,43.72s4.19,23.96,18.31,29.23c0,0-33,8.71-39.65-13.16l-.53-29.63c.64-1.15,1.19-2.35,1.65-3.58,2.6-6.88,2.82-14.43,.63-21.45-2.64-8.57-8.4-25-15.23-30.56-.82-.66-1.58-1.39-2.35-2.11-1.46-1.45-3.29-2.44-5.3-2.88-2-.43-4.09-.29-6.01,.43Z" fill-rule="evenodd"></path>
  <path d="M342.07,387.76l-16.92,76.88,.98,.21,16.92-76.88-.98-.21Z" fill="#fff"></path>
  <path d="M455.47,137.1c5.34-.06,10.66-.06,16,0,.16,0,.32,.04,.46,.13,.14,.08,.25,.2,.33,.34,.08,.14,.12,.3,.11,.46,0,.16-.05,.32-.14,.45-4.67,7.35-12.86,7.35-17.53,0-.08-.14-.13-.29-.13-.45,0-.16,.04-.32,.12-.46,.08-.14,.19-.26,.33-.34,.14-.08,.29-.13,.46-.13Z" fill="#fff" fill-rule="evenodd"></path>
  <path d="M463.47,144.49c-3.52,0-6.87-2.09-9.19-5.75-.13-.21-.2-.45-.2-.7s.07-.49,.2-.7c.12-.22,.3-.41,.51-.54,.22-.13,.46-.2,.71-.2,5.31-.06,10.7-.06,16,0,.25,0,.5,.08,.71,.21,.22,.13,.39,.31,.52,.53,.12,.22,.18,.46,.17,.71,0,.25-.09,.49-.22,.69-2.32,3.66-5.69,5.75-9.21,5.75Zm-8-6.89c-.07,0-.14,.02-.2,.06-.06,.04-.11,.09-.15,.15-.04,.06-.05,.13-.05,.2,0,.07,.02,.14,.05,.2,2.14,3.36,5.18,5.28,8.35,5.28s6.21-1.92,8.34-5.28c.03-.06,.05-.13,.05-.19s-.02-.14-.05-.2c-.03-.07-.09-.12-.15-.16-.06-.04-.14-.06-.21-.06-5.29-.06-10.67-.06-15.98,0Z"></path>
  <path d="M468.36,142.47c-1.45,.99-3.17,1.52-4.93,1.52s-3.48-.53-4.93-1.52c1.45-.99,3.17-1.51,4.93-1.51s3.47,.53,4.93,1.51Z" fill-rule="evenodd"></path>
  <path d="M455.21,116.59c.41,.5,.68,1.1,.75,1.75,.07,.64-.04,1.29-.34,1.87-.08,.25-.23,.48-.43,.66-.2,.18-.44,.3-.7,.36-.26,.06-.53,.05-.79-.03-.25-.08-.49-.22-.67-.41-.42-.5-.68-1.11-.75-1.75-.07-.64,.04-1.29,.34-1.87,.08-.25,.23-.48,.43-.66,.2-.18,.44-.3,.7-.36,.26-.06,.53-.05,.79,.03,.26,.08,.49,.22,.67,.41Z" fill-rule="evenodd"></path>
  <path d="M472.84,116.35c.41,.5,.67,1.11,.74,1.75,.07,.64-.04,1.29-.33,1.87-.08,.25-.23,.48-.43,.66-.2,.18-.44,.31-.7,.37-.26,.06-.53,.05-.79-.03-.26-.08-.49-.22-.67-.41-.42-.5-.68-1.1-.75-1.75-.07-.64,.04-1.29,.33-1.87,.08-.25,.23-.48,.43-.66,.2-.18,.44-.31,.7-.37s.53-.05,.79,.03c.26,.08,.49,.22,.67,.41Z" fill-rule="evenodd"></path>
  <path d="M450.96,113.05c-.12,0-.23-.04-.32-.12-.05-.04-.09-.09-.12-.15-.03-.06-.05-.12-.06-.19,0-.07,0-.13,.02-.19,.02-.06,.05-.12,.1-.17,.85-.97,2.05-1.57,3.34-1.68,.69,0,1.37,.15,2,.43,.63,.28,1.19,.7,1.64,1.22,.05,.05,.08,.1,.11,.16,.02,.06,.04,.12,.04,.19s-.01,.13-.04,.19c-.02,.06-.06,.11-.11,.16-.05,.05-.1,.08-.16,.11-.06,.02-.12,.04-.19,.04s-.13-.01-.19-.04c-.06-.02-.11-.06-.16-.11-.36-.42-.81-.75-1.31-.98-.5-.23-1.04-.36-1.59-.37-1.01,.1-1.94,.57-2.62,1.32-.05,.06-.1,.1-.17,.13-.07,.03-.14,.05-.21,.05Z"></path>
  <path d="M474.88,112.65c-.13,0-.26-.05-.36-.14-.36-.42-.8-.75-1.29-.99-.5-.23-1.04-.36-1.59-.37-1.01,.1-1.96,.57-2.64,1.33-.09,.1-.21,.16-.34,.17-.13,.01-.26-.03-.36-.12-.1-.09-.16-.21-.17-.34,0-.13,.03-.26,.12-.36,.86-.97,2.06-1.57,3.35-1.68,.69,0,1.37,.15,1.99,.44,.63,.28,1.19,.7,1.65,1.21,.05,.05,.08,.1,.11,.16,.03,.06,.04,.13,.04,.19s-.01,.13-.04,.19c-.02,.06-.06,.12-.11,.16-.1,.09-.22,.14-.35,.14Z"></path>
  <path d="M463.71,132.75h-4.51c-.13,0-.26-.06-.35-.15-.09-.09-.15-.22-.15-.35,0-.13,.05-.26,.15-.35,.09-.09,.22-.15,.35-.15h4.51c.09,0,.18-.02,.26-.06,.08-.04,.15-.09,.21-.16,.06-.07,.1-.15,.13-.23,.03-.09,.03-.18,.02-.27l-1.53-10.07c0-.06,0-.13,0-.2,.01-.06,.04-.12,.08-.18,.04-.05,.09-.1,.14-.13,.06-.03,.12-.06,.18-.07,.07-.01,.13,0,.2,0,.07,.02,.12,.04,.18,.08,.05,.04,.1,.09,.13,.15,.03,.06,.05,.12,.06,.19l1.57,10.06c.03,.23,.02,.47-.05,.69-.07,.22-.18,.43-.33,.61-.15,.18-.34,.32-.55,.42-.21,.1-.44,.15-.68,.15h-.04Z"></path>
  <path d="M463.99,149.07c-.91-.01-1.8-.28-2.57-.77-.06-.04-.1-.08-.14-.14-.04-.05-.06-.12-.07-.18-.01-.06-.01-.13,0-.19,.01-.06,.04-.12,.08-.18,.07-.11,.19-.19,.32-.21,.13-.03,.26,0,.37,.07,.57,.37,1.24,.57,1.93,.57s1.36-.2,1.93-.57c.05-.05,.12-.08,.18-.1,.07-.02,.14-.03,.21-.02,.07,0,.14,.03,.2,.07,.06,.04,.11,.09,.15,.14,.04,.06,.07,.12,.08,.19,.01,.07,0,.14,0,.21-.02,.07-.05,.13-.09,.19-.04,.06-.1,.1-.16,.13-.71,.5-1.55,.77-2.41,.78Z"></path>
</svg>
