<?xml version="1.0" encoding="UTF-8"?>
<svg xmlns="http://www.w3.org/2000/svg" id="a" width="865.76" height="682.89" viewBox="0 0 865.76 682.89">
  <path d="M332.05,360.23c.67-6.78,5.38-46.35,24-44.5,0,0,14.35-2.53,15.47,25.61l.86,20.57c0,.24-.06,.49-.16,.71-.1,.22-.25,.42-.43,.59-.18,.16-.4,.29-.63,.37-.23,.08-.48,.11-.72,.08-.23,0-.47-.04-.68-.13-.22-.09-.41-.22-.58-.39-.17-.17-.3-.36-.38-.58-.09-.22-.13-.45-.13-.68,.5-8.06,1.82-42.31-11.49-43.79,0,0-10.81-2.7-14.17,12-2.94,9.97-5.03,20.17-6.25,30.49-.04,.34-.16,.67-.36,.95-.2,.28-.46,.52-.76,.68-.32,.19-.67,.3-1.04,.34-.37,.04-.74,0-1.08-.11-.46-.14-.86-.44-1.12-.85-.27-.4-.39-.88-.34-1.36Z" fill="#fff"></path>
  <path d="M370.48,364.16h-.11c-.32-.01-.64-.09-.93-.22-.29-.14-.56-.33-.78-.57-.19-.2-.34-.44-.43-.7-.09-.26-.13-.54-.11-.82,.43-7,1.92-41.82-11-43.26-2.54-.49-5.16-.02-7.37,1.32-3,1.86-5.12,5.31-6.25,10.25-2.94,9.95-5.02,20.13-6.24,30.43-.05,.42-.2,.82-.45,1.17-.24,.35-.57,.63-.94,.83-.38,.22-.8,.36-1.23,.41-.44,.04-.88,0-1.29-.15-.55-.19-1.02-.56-1.34-1.04s-.46-1.07-.41-1.65c.86-8.69,2.64-17.27,5.29-25.6,4.64-13.61,11.07-20.12,19.15-19.35,1.41-.12,2.83,.03,4.18,.47,1.35,.43,2.59,1.13,3.66,2.05,4.94,4,7.69,11.91,8.15,23.57l.86,20.57c.01,.29-.04,.58-.15,.85-.11,.27-.27,.51-.48,.72-.23,.23-.51,.42-.82,.54-.31,.12-.63,.18-.96,.18Zm-15.35-46.77c.71,0,1.42,.07,2.12,.21,13.46,1.5,12.48,34.3,11.87,44.32-.01,.14,0,.29,.06,.42,.05,.13,.12,.26,.22,.36,.26,.28,.62,.44,1,.46,.2,.01,.4-.01,.59-.09,.19-.07,.36-.18,.5-.32,.11-.1,.2-.23,.26-.37,.06-.14,.09-.29,.08-.45l-.86-20.57c-.56-14.12-4.52-20.2-7.75-22.81-.98-.84-2.11-1.48-3.34-1.88s-2.52-.55-3.8-.45h-.13c-7.57-.75-13.69,5.53-18.17,18.67-2.63,8.26-4.38,16.77-5.23,25.39-.03,.36,.06,.72,.26,1.01,.2,.3,.49,.52,.83,.64,.28,.09,.58,.12,.88,.09,.29-.04,.58-.13,.83-.29,.24-.12,.44-.3,.59-.51,.15-.22,.25-.47,.28-.73,1.23-10.35,3.32-20.59,6.26-30.59,1.19-5.19,3.45-8.85,6.71-10.85,1.79-1.09,3.84-1.67,5.94-1.66Z"></path>
  <path d="M402.21,368.65c-6.61,6.25-8.63,49.19-8.63,49.19-.21,15.85-12.24,16.85-12.24,16.85l-51.33,.2c-17.25,.2-17.46-16.44-17.46-16.44-2.73-25.44-11.78-50.92-12.2-52.09,1.11,.69,3.31,.51,5.74,0h.06c2.79-.68,5.53-1.55,8.2-2.61,1.65-.66,3.34-1.18,5.07-1.58,7.1-1.59,14.32-2.57,21.58-2.95,14.73-.58,34.75,1.23,58.17,10,1.05,.14,2.11-.06,3.04-.57Z" fill="#c7404e"></path>
  <path d="M329.69,435.39c-17.22,0-17.62-16.77-17.63-16.94-2.73-25.36-11.8-50.85-12.18-51.93v-1.1l.76,.47c.6,.37,2,.66,5.38-.09,2.78-.68,5.52-1.55,8.18-2.61,1.67-.66,3.39-1.19,5.14-1.6,7.12-1.6,14.37-2.6,21.66-3,19-.74,38.6,2.63,58.38,10,.88,.13,1.78,0,2.58-.4l.63,.77c-6.39,6.05-8.45,48.43-8.47,48.86-.21,16.09-12.57,17.31-12.69,17.32l-51.38,.2-.36,.05Zm-28.54-68.24c1.74,5,9.43,28.16,11.91,51.24,0,.7,.41,16,16.63,16h.31l51.34-.2c.43,0,11.54-1.17,11.74-16.35,.08-1.68,1.89-38.8,7.73-48.21-.57,.07-1.16,.07-1.73,0-19.74-7.36-39.25-10.71-58.07-10-7.22,.39-14.4,1.37-21.46,2.94-1.7,.39-3.37,.91-5,1.55-2.69,1.07-5.46,1.95-8.27,2.64-1.67,.47-3.41,.6-5.13,.39Z"></path>
  <path d="M402.97,367.15c0,.29-.06,.59-.19,.85-.13,.26-.33,.49-.57,.65-.93,.47-1.98,.63-3,.46-23.42-8.75-43.44-10.56-58.17-10-17.07,.66-27.06,4.53-27.06,4.53-2.53,1.06-5.13,1.93-7.79,2.61h-.06c-2.43,.54-4.63,.72-5.74,0-3.82-3.18,6.66-5.75,6.66-5.75,44.79-11.24,86.67,1.63,94.31,4.21,.49,.18,.91,.52,1.2,.96,.29,.44,.43,.96,.41,1.48Z"></path>
  <path d="M307.44,373.67c-.13,.02-.27,0-.38-.09-.11-.08-.18-.2-.21-.33-.02-.13,0-.27,.09-.38,.08-.11,.2-.18,.33-.21,7.41-2.59,15.16-4.07,23-4.41,.07,0,.13,0,.2,.03,.06,.02,.12,.06,.17,.11,.05,.05,.09,.1,.11,.16,.03,.06,.04,.13,.04,.19,0,.07-.01,.13-.03,.19-.02,.06-.06,.12-.11,.16s-.1,.08-.16,.11c-.06,.03-.12,.04-.19,.04-7.71,.34-15.33,1.8-22.62,4.34-.07,.05-.15,.07-.23,.07Z"></path>
  <path d="M367.96,370.95c-.06,0-.11,0-.17,0-7.37-2.65-25.44-1.94-25.62-1.93-.13,0-.26-.05-.35-.15-.09-.09-.15-.22-.15-.35s.05-.26,.15-.35,.22-.15,.35-.15c.75,0,18.45-.73,26,2,.13,.02,.25,.1,.33,.21,.08,.11,.11,.25,.09,.38-.02,.13-.1,.25-.21,.33-.11,.08-.25,.11-.38,.09l-.04-.07Z"></path>
  <path d="M385.17,390.12c-.07,0-.14-.02-.21-.05-14.22-6.51-40.87-6-41.14-6-.13,0-.25-.05-.35-.15-.09-.09-.15-.21-.15-.34,0-.13,.05-.26,.14-.35,.09-.09,.21-.15,.35-.16,.27,0,27.15-.53,41.57,6.08,.12,.06,.22,.16,.26,.28,.05,.13,.04,.26-.01,.39-.04,.09-.1,.17-.19,.22-.08,.05-.18,.08-.27,.08Z"></path>
  <path d="M310.31,385.29c-.11,0-.22-.04-.31-.11-.09-.07-.15-.17-.17-.27-.02-.06-.02-.13-.01-.2,0-.07,.03-.13,.06-.18,.03-.06,.08-.11,.13-.15,.05-.04,.11-.07,.18-.08,.37-.09,9.07-2.27,16.18-1.37,.13,.02,.25,.09,.33,.19,.08,.11,.12,.24,.1,.37,0,.06-.03,.13-.06,.19-.03,.06-.08,.11-.13,.15s-.11,.07-.18,.09c-.06,.02-.13,.02-.2,.01-6.91-.88-15.72,1.33-15.81,1.35l-.12,.02Z"></path>
  <path d="M380.19,399.47c-.06,.01-.13,.01-.19,0-11.24-4.59-30.69-3.75-30.88-3.74-.07,0-.13,0-.19-.03-.06-.02-.12-.06-.17-.1-.05-.04-.09-.1-.11-.16-.03-.06-.04-.12-.05-.19,0-.07,0-.13,.03-.19,.02-.06,.06-.12,.1-.17,.04-.05,.1-.09,.16-.12,.06-.03,.12-.04,.19-.04,.2,0,19.86-.86,31.3,3.81,.06,.02,.12,.06,.16,.11,.05,.05,.08,.1,.11,.16,.03,.06,.04,.12,.04,.19,0,.07-.01,.13-.04,.19-.04,.09-.11,.16-.19,.21-.08,.05-.18,.07-.27,.07Z"></path>
  <path d="M311.55,397.21c-.13,.02-.27,0-.38-.08-.11-.08-.19-.2-.21-.33-.02-.13,0-.27,.08-.38,.08-.11,.19-.19,.33-.21,4.54-1.58,9.39-2.06,14.15-1.38,.13,.02,.25,.1,.32,.21,.08,.11,.11,.24,.09,.37-.02,.13-.1,.24-.21,.32-.11,.08-.24,.1-.37,.08-4.59-.62-9.25-.16-13.63,1.34-.05,.03-.11,.05-.17,.06Z"></path>
  <path d="M385.17,410.79c-.06,.01-.13,.01-.19,0-11.83-4.87-32-3-32.21-3-.07,0-.13,0-.2-.02-.06-.02-.12-.05-.17-.09-.05-.04-.09-.09-.12-.15-.03-.06-.05-.12-.06-.19,0-.07,0-.13,.02-.19,.02-.06,.05-.12,.09-.17,.04-.05,.09-.09,.15-.12,.06-.03,.12-.05,.19-.05,.21,0,20.64-1.92,32.69,3.05,.12,.05,.21,.15,.27,.27,.05,.12,.05,.26,0,.38-.04,.09-.1,.16-.19,.21-.08,.05-.18,.08-.27,.08Z"></path>
  <path d="M323.14,409.59c-.05,.01-.11,.01-.16,0-2.56-.75-5.27-.8-7.85-.15-.06,.02-.13,.03-.2,.02-.07,0-.13-.03-.19-.06-.06-.03-.11-.08-.15-.13s-.07-.11-.09-.17c-.04-.13-.02-.26,.04-.38,.06-.12,.17-.2,.3-.24,2.78-.72,5.7-.67,8.45,.16,.12,.04,.23,.14,.28,.26,.06,.12,.07,.26,.03,.38-.04,.09-.1,.17-.19,.23-.08,.06-.18,.08-.28,.08Z"></path>
  <path d="M317.55,423.77c-.11,0-.22-.04-.31-.1-.09-.07-.15-.17-.18-.28-.03-.13,0-.26,.06-.37,.07-.11,.18-.19,.3-.23,.38-.1,9.24-2.28,15.62-.91,.06,.01,.13,.04,.18,.07,.06,.04,.1,.08,.14,.14,.04,.05,.06,.12,.07,.18,.01,.07,.01,.13,0,.2-.01,.07-.04,.13-.08,.18-.04,.05-.09,.1-.14,.13-.06,.04-.12,.06-.18,.07-.07,.01-.13,0-.2,0-6.15-1.31-15.07,.88-15.16,.91h-.12Z"></path>
  <path d="M380.03,424.68s-.1,0-.15,0c-11.69-3.7-24.58-2.85-24.71-2.84-.07,0-.13,0-.2-.02-.06-.02-.12-.05-.17-.1-.05-.04-.09-.1-.12-.16-.03-.06-.04-.13-.05-.19,0-.13,.04-.26,.13-.36,.09-.1,.21-.16,.34-.17,.13,0,13.21-.87,25.09,2.89,.13,.02,.25,.09,.33,.2,.08,.11,.11,.24,.09,.38-.02,.13-.09,.25-.2,.33-.11,.08-.24,.11-.38,.09v-.05Z"></path>
  <path d="M332.8,378.65c-.13,0-.25-.05-.34-.13-.09-.09-.15-.2-.16-.33-.32-3.61,2-7,2.13-7.15,.04-.05,.09-.1,.14-.14,.06-.04,.12-.06,.18-.07,.06-.01,.13-.01,.2,0,.06,.02,.13,.04,.18,.08,.05,.04,.1,.09,.13,.14,.04,.06,.06,.12,.07,.18,.01,.07,0,.13,0,.2-.01,.06-.04,.12-.08,.18,0,0-2.24,3.24-2,6.48,.01,.13-.03,.27-.12,.37-.09,.1-.21,.17-.34,.18h.01Z"></path>
  <path d="M340.19,387.25c-.13,0-.25-.07-.34-.17s-.13-.23-.13-.36c0,0,.27-5.18-2-8.92-.09-.13-2.36-3.66-1.72-6.55,.01-.07,.04-.13,.08-.18,.04-.05,.09-.1,.14-.14,.06-.04,.12-.06,.18-.07,.07-.01,.13,0,.2,0,.06,.01,.12,.04,.18,.08,.05,.04,.1,.08,.14,.14,.04,.05,.06,.12,.07,.18,.01,.06,0,.13,0,.19-.55,2.48,1.57,5.78,1.59,5.81,2.47,4,2.2,9.29,2.19,9.51,0,.07-.02,.14-.05,.2-.03,.06-.08,.12-.13,.16-.05,.04-.12,.08-.18,.09-.07,.02-.14,.02-.21,.01Z"></path>
  <path d="M340.19,420.25c-6.18-2.11-15.24-.75-15.24-.75-2.26-10.72,2.11-22.49,2.11-22.49,3-7.91,2.92-12.24,2.88-12.89,.67,.54,1.5,.83,2.36,.83,.84,0,1.65-.28,2.31-.79,.06,4.13,3.47,13.31,3.47,13.31,3.17,8.75,2.11,22.78,2.11,22.78Z" fill="#fff"></path>
  <path d="M340.64,420.93l-.61-.2c-6-2.05-14.92-.75-15-.74l-.46,.07-.1-.46c-2.27-10.73,2.09-22.64,2.14-22.76,3-7.91,2.87-12.22,2.84-12.69l-.08-1.13,.89,.71c.58,.43,1.28,.66,2,.66s1.42-.23,2-.66l.8-.61v1c.06,4,3.41,13.05,3.44,13.14,3.17,8.76,2.18,22.42,2.14,23v.67Zm-9.23-2.37c2.81-.06,5.61,.28,8.32,1,.16-2.82,.6-14.44-2.12-21.94-.13-.35-3-8.2-3.45-12.62-.58,.28-1.22,.42-1.86,.42s-1.28-.14-1.86-.42c0,1.8-.48,5.86-2.91,12.17,0,.11-4.18,11.43-2.18,21.75,2.01-.24,4.03-.36,6.06-.36Z"></path>
  <path d="M386.36,178.62s-2.8,32.07-8.21,41c-.51,.81-.98,1.65-1.4,2.51-2.64,5.59-11.16,24.73-12.85,42.3l-3.61,23.46s-2.12,9.87-6.84,14.24c-1.13,1.02-2.17,2.14-3.1,3.35-2.21,3-5.23,8.29-4.18,13.66,0,0,9.84-8.67,21-.7,1.82-5.38,2.16-11.16,1-16.72,0,0-.8-1.8,1.8-11.43,0,0,5.42-16,14.44-35.89,0,0,6.37-11.18,7.31-23.83,.15-1.92,.76-3.77,1.78-5.4,1.89-3.08,3.17-6.5,3.74-10.07,0,0,1-10.63,2.81-20.25l3.77-14.13s-6.64-2.1-17.46-2.1Z" fill="#fff"></path>
  <path d="M345.84,320.11l-.16-.85c-1.11-5.68,2.2-11.25,4.27-14.06,.94-1.24,2-2.38,3.16-3.42,4.55-4.21,6.67-13.88,6.69-14l3.6-23.43c1.7-17.63,10.3-36.94,12.9-42.43,.43-.88,.9-1.73,1.42-2.56,5.29-8.74,8.11-40.48,8.14-40.8v-.45h.46c10.78,0,17.48,2.12,17.55,2.14l.45,.14-3.84,14.62c-1.78,9.45-2.79,20.06-2.8,20.17-.58,3.64-1.88,7.14-3.81,10.28-.97,1.57-1.56,3.34-1.72,5.18-.93,12.61-7.3,23.93-7.36,24-8.89,19.56-14.35,35.64-14.4,35.8-2.45,9.06-1.84,11-1.82,11.09,1.22,5.68,.87,11.58-1,17.08l-.23,.6-.53-.37c-10.67-7.64-20,.33-20.35,.67l-.62,.6Zm41-141c-.37,4.11-3.12,32.3-8.24,40.77-.47,.78-1,1.61-1.37,2.47-2.58,5.45-11.12,24.63-12.8,42.13l-3.65,23.53c-.09,.44-2.21,10.11-7,14.54-1.1,.99-2.1,2.09-3,3.27-1.87,2.55-4.81,7.44-4.22,12.46,2.43-1.76,10.94-6.89,20.35-.58,1.58-5.13,1.83-10.57,.74-15.82-.06-.1-.77-2.14,1.81-11.67,.06-.19,5.54-16.32,14.47-36,.08-.15,6.34-11.27,7.26-23.66,.16-2,.8-3.92,1.86-5.62,1.85-3.03,3.1-6.39,3.67-9.89,0-.07,1-10.73,2.81-20.26l3.65-13.69c-5.35-1.35-10.85-2.01-16.37-1.96l.03-.02Z"></path>
  <path d="M387.55,216.89c-1.3,.05-2.59-.3-3.69-1-.05-.04-.1-.09-.13-.15-.03-.06-.06-.12-.06-.18,0-.07,0-.13,.01-.19,.02-.06,.04-.12,.08-.18,.04-.05,.09-.1,.15-.13,.06-.03,.12-.05,.18-.06,.07-.01,.13,0,.19,0,.06,.02,.12,.04,.18,.09,.09,.07,2.28,1.61,6.55,.13,.13-.04,.26-.03,.38,.03,.12,.06,.21,.16,.26,.29,.04,.12,.03,.26-.03,.38s-.16,.21-.28,.25c-1.21,.46-2.49,.7-3.79,.73Z"></path>
  <path d="M333.32,368.75c.72-8.08,5.78-55.17,25.77-53,0,0,15.44-3,16.64,30.48l.92,24.49c.01,.28-.04,.55-.14,.81-.1,.26-.26,.49-.45,.69-.2,.2-.43,.35-.69,.45-.26,.1-.54,.14-.82,.13-.26-.01-.52-.08-.76-.19-.24-.11-.45-.27-.63-.47-.18-.2-.31-.43-.4-.67-.09-.25-.13-.51-.11-.78,.54-9.61,2-50.36-12.36-52.13,0,0-11.63-3.21-15.24,14.23-3.17,11.9-5.42,24.04-6.72,36.29-.04,.39-.17,.77-.38,1.11-.21,.34-.49,.62-.83,.84-.33,.21-.71,.35-1.11,.39-.39,.05-.79,0-1.17-.12-.49-.21-.9-.57-1.18-1.03-.27-.46-.39-.99-.34-1.52Z" fill="#fff"></path>
  <path d="M374.65,373.33h-.1c-.33-.02-.65-.1-.95-.24-.3-.14-.57-.34-.79-.58-.22-.24-.39-.53-.5-.84-.11-.31-.16-.64-.14-.97,.46-8.32,2.07-49.88-11.92-51.61-2.57-.54-5.26-.07-7.5,1.3-3.49,2.15-5.91,6.37-7.19,12.55-3.17,11.89-5.41,24-6.71,36.23-.04,.48-.19,.94-.45,1.34-.25,.4-.6,.74-1.01,.99-.47,.32-1.01,.49-1.57,.5-.56,.01-1.12-.14-1.6-.43-.48-.29-.86-.72-1.11-1.22-.24-.51-.34-1.07-.27-1.63,.59-6.61,4.16-40.09,16.77-50.41,1.29-1.12,2.8-1.97,4.43-2.49s3.35-.69,5.05-.51c1.4-.14,2.82,0,4.17,.43,1.34,.43,2.59,1.12,3.65,2.05,3.9,3.1,8.69,10.56,9.34,28.48l.92,24.49c.01,.35-.04,.69-.17,1.01-.13,.32-.32,.61-.57,.86-.48,.46-1.12,.71-1.78,.7Zm-16.51-55.48c.77-.01,1.53,.08,2.28,.26,14.44,1.77,13.39,40.73,12.73,52.63-.01,.2,.01,.4,.08,.58,.07,.19,.17,.36,.3,.51,.13,.15,.29,.27,.47,.36s.38,.14,.58,.14c.21,0,.42-.03,.61-.1,.19-.08,.37-.19,.52-.34,.15-.15,.26-.32,.34-.51,.08-.19,.11-.4,.1-.61l-.92-24.49c-.63-17.51-5.21-24.73-8.93-27.71-.97-.84-2.1-1.48-3.32-1.88-1.22-.39-2.51-.54-3.8-.42h-.15c-1.58-.17-3.18,0-4.7,.47-1.52,.48-2.92,1.27-4.11,2.32-12.29,10.07-15.82,43.19-16.41,49.72-.04,.37,.02,.74,.18,1.07,.16,.33,.42,.61,.73,.8,.32,.19,.68,.29,1.05,.29,.37,0,.73-.12,1.04-.32,.28-.16,.52-.39,.69-.66,.17-.27,.28-.58,.31-.9,1.31-12.28,3.56-24.44,6.74-36.37,1.33-6.44,3.91-10.88,7.65-13.17,1.79-1.1,3.84-1.68,5.94-1.67Z"></path>
  <path d="M408.47,582.22s3.6,.3,29.68-2.7c0,0,10.19-1.5,18.58,.9,0,0,11.69,2.4,19.19-2.1,0,0,6.59-5.09,19.48,5.1-.44,.88-.69,1.84-.74,2.82-.05,.98,.1,1.96,.44,2.88,0,0,15.89,4.79,29.08,.3,0,0-10.19-47.52-8.4-74.49l-21.13-100.27-25.63-57.11-16.63-2.24-49.91,205.48,5.99,21.43Z" fill="#c7404e"></path>
  <path d="M511.37,591.82c-5.54-.03-11.06-.78-16.41-2.23l-.23-.07-.09-.22c-.71-1.85-.66-3.91,.14-5.73-12.18-9.47-18.5-4.9-18.56-4.85-7.62,4.58-19.1,2.29-19.59,2.19-8.22-2.35-18.31-.91-18.41-.89-25.85,3-29.64,2.71-29.79,2.7h-.35l-6.12-21.89v-.13l50-205.92,17.35,2.35,25.78,57.45,21.15,100.34v.09c-1.77,26.6,8.28,73.88,8.39,74.35l.09,.44-.42,.14c-4.18,1.32-8.55,1.96-12.93,1.88Zm-15.89-3.12c2,.56,16.18,4.25,28.12,.38-1-4.87-10-48.75-8.32-74.12l-21.11-100.15-25.49-56.8-15.91-2.15-49.78,204.92,5.86,21c1.35,0,7.32-.18,29.24-2.7,.09,0,10.38-1.49,18.78,.91,.08,0,11.55,2.3,18.79-2,.23-.19,7-5.19,20.05,5.13l.33,.26-.2,.37c-.75,1.54-.88,3.31-.36,4.95Z"></path>
  <path d="M563.43,632.06c-11.59,15.31-28.53,5.33-28.53,5.33l1.16-24.12c.47-20.64-.92-24.12-.92-24.12-1.69-3.7-2.41-7.77-2.09-11.83-.7-13-10.9-38.5-10.9-38.5-10.67-27.37-14.62-40.36-16.47-51.73-1.31-8-3.66-18.8-4.93-24.47-.56-2.49-1.81-4.77-3.62-6.58l-5.6-5.6c-3.23-2-5.83-13.64-7-19.72-.75-4.01-1.72-7.98-2.89-11.89-7.1-23.54-21-53.28-21-53.28,0,0,6.74-35.82,7.74-57.4,0,0,4,13.38,16.59,31.77,0,0,10,16.78,15,29.87,.26,1.24,.41,2.5,.46,3.77,1.11,32.77,5.73,50.29,5.73,50.29,2.49,6.98,5.71,13.68,9.59,20,30.58,40,25.85,107.93,25.85,107.93,.23,15.07,5.33,23,5.33,23,3.07,7.34,3.23,11.07,2.8,12.91-.5,2.06-.54,4.19-.14,6.27,3.56,16.76,13.84,38.1,13.84,38.1Z" fill="#fff"></path>
  <path d="M547.15,641.01c-4.36-.07-8.65-1.18-12.5-3.23l-.26-.15,1.16-24.38c.45-20.08-.83-23.77-.89-23.92-1.73-3.78-2.45-7.93-2.11-12.07-.68-12.67-10.77-38-10.87-38.26-10.2-26.18-14.52-39.74-16.5-51.83-1.3-8-3.64-18.74-4.91-24.44-.54-2.4-1.75-4.59-3.49-6.33l-5.56-5.56c-3.16-2.08-5.64-12-7.18-20-.76-3.99-1.72-7.94-2.88-11.83-7-23.24-20.8-52.92-20.93-53.22l-.07-.14v-.16c.07-.36,6.75-36,7.73-57.34l.14-2.94,.84,2.82c0,.14,4.13,13.54,16.52,31.63,.12,.2,10.09,17,15.05,30,.27,1.3,.44,2.61,.49,3.94,1.1,32.32,5.67,50,5.72,50.17,2.48,6.94,5.67,13.61,9.53,19.9,30.31,39.67,26,107.54,25.92,108.22,.23,14.69,5.2,22.58,5.25,22.66,3.17,7.55,3.31,11.39,2.87,13.3-.48,1.97-.53,4.01-.14,6,3.48,16.53,13.67,37.79,13.77,38l.14,.28-.19,.24c-5.1,6.76-11.25,8.64-16.65,8.64Zm-11.73-3.94c2.21,1.21,16.89,8.49,27.43-5.11-1.22-2.57-10.43-22.34-13.72-38-.43-2.15-.38-4.36,.14-6.48,.41-1.76,.26-5.38-2.77-12.61-.17-.25-5.14-8.1-5.37-23.15,.05-.72,4.36-68.22-25.74-107.62-3.91-6.34-7.15-13.08-9.67-20.09-.06-.21-4.66-18-5.76-50.43-.04-1.24-.19-2.47-.45-3.68-4.9-12.83-14.83-29.56-14.93-29.73-6.42-9.16-11.72-19.05-15.8-29.47-1.31,20.78-7.11,52.27-7.58,54.79,1.06,2.29,14.14,30.73,20.92,53.2,1.17,3.93,2.14,7.91,2.9,11.94,2.1,10.93,4.57,18,6.78,19.39l.09,.07,5.59,5.6c1.88,1.88,3.18,4.24,3.76,6.83,1.28,5.7,3.62,16.48,4.93,24.49,2,12,6.27,25.52,16.44,51.63,.1,.25,10.25,25.73,10.94,38.65-.32,3.99,.37,7.99,2,11.64,.07,.18,1.43,3.84,1,24.35l-1.13,23.79Z"></path>
  <path d="M563.34,649.65c-3.45,3.54-7.16,6.8-11.12,9.75-.85,.65-1.87,1.04-2.94,1.11-1.07,.07-2.13-.18-3.06-.71-4.66-2.71-9.82-8.47-9.82-8.47-.93-1.09-1.36-3.45-1.55-5.92-.16-2.66-.14-5.34,.05-8,0,0,16.94,10,28.53-5.33,.97,2.23,1.61,4.59,1.89,7,.73,6.6-1.98,10.57-1.98,10.57Z" fill="#231f20"></path>
  <path d="M548.91,661.01c-1.03,0-2.05-.27-2.94-.79-4.68-2.71-9.73-8.33-9.95-8.56-.89-1.06-1.43-3.09-1.67-6.23-.16-2.7-.14-5.4,.05-8.09l.07-.79,.69,.4c.67,.4,16.69,9.56,27.87-5.2l.53-.69,.33,.79c.99,2.27,1.64,4.67,1.93,7.13,.74,6.74-1.95,10.77-2.07,10.94v.06c-3.48,3.55-7.22,6.84-11.2,9.82-1.05,.79-2.33,1.22-3.64,1.21Zm-13.56-22.82c-.14,2.39-.14,4.79,0,7.18,.27,3.58,.92,5,1.43,5.64,0,0,5.15,5.72,9.69,8.36,.84,.48,1.81,.71,2.78,.64,.97-.07,1.9-.42,2.67-1.01,3.91-2.93,7.59-6.16,11-9.66,1.72-3.12,2.38-6.71,1.88-10.24-.23-2.08-.75-4.11-1.52-6.05-10.33,12.8-24.62,6.79-27.93,5.14Z"></path>
  <path d="M563.48,653.01l-10.1,9.12c-3.37,2.52-5.9,.7-5.9,.7l-6.59-4.91c-7.72-7-6.18-12.49-6.18-12.49h.14c.19,2.47,.62,4.83,1.55,5.92,0,0,5.16,5.76,9.82,8.47,.93,.53,1.99,.78,3.06,.71,1.07-.07,2.09-.46,2.94-1.11,3.95-2.95,7.67-6.21,11.12-9.75,0,0,2.71-4,2-10.61,2.75,9.62-1.86,13.95-1.86,13.95Z"></path>
  <path d="M443.04,631.68s-13,11.79-28.57-.8c0-.02,0-.04,0-.06,.36-1.17,6.45-21,6.76-40.48,.03-1.34-.27-2.67-.86-3.88-1.27-2.45-1.6-5.27-.93-7.94,0,0,5-11-1.2-26.38,0,0,10.69-37.71,13.74-48.93,0,0-1.29,31.71,.24,54.16,.35,5.06,1.41,10.05,3.15,14.82l.32,.85c1.14,2.94,1.22,6.18,.24,9.18,0,0-.7,3.1,1.3,19.89l5.81,29.57Z" fill="#fff"></path>
  <path d="M429.31,637.16c-4.45,0-9.66-1.45-15.16-5.89l-.28-.23,.13-.34c.27-.87,6.44-20.87,6.75-40.37,.02-1.26-.25-2.52-.81-3.65-1.34-2.55-1.7-5.5-1-8.29,.08-.18,4.86-11.07-1.18-26.06l-.06-.16v-.16c.11-.38,10.72-37.84,13.74-48.93l1.16-4.28-.18,4.43c0,.32-1.28,31.94,.24,54.11,.37,5.02,1.45,9.95,3.2,14.67l.32,.84c1.19,3.05,1.27,6.42,.24,9.53,0,.07-.62,3.32,1.32,19.66l5.81,29.82-.21,.19c-3.97,3.23-8.91,5.03-14.03,5.11Zm-14.26-6.46c14.06,11.13,25.7,2.26,27.45,.79l-5.74-29.29c-2-16.71-1.33-20-1.3-20.09,.95-2.89,.87-6.02-.21-8.87l-.33-.88c-1.76-4.83-2.83-9.88-3.18-15-1.19-17.39-.67-40.54-.39-50-3.77,13.64-11.87,42.23-12.56,44.67,6.11,15.32,1.18,26.5,1.13,26.61-.62,2.53-.29,5.2,.92,7.5,.62,1.28,.94,2.69,.91,4.12-.3,18.75-5.92,37.85-6.7,40.44Z"></path>
  <path d="M474.87,573.88c-.06,.01-.13,.01-.19,0-.06-.03-.12-.06-.16-.11-.05-.05-.08-.1-.11-.16-.02-.06-.04-.13-.04-.19,0-.07,.01-.13,.04-.19,16.86-40.39,23.72-97.77,23.79-98.34,.02-.13,.09-.25,.19-.33,.1-.08,.24-.12,.37-.11,.07,0,.13,.03,.19,.06,.06,.03,.11,.08,.15,.13,.04,.05,.07,.11,.09,.18,.02,.06,.02,.13,0,.2-.06,.57-6.94,58.09-23.86,98.6-.04,.08-.11,.15-.19,.2-.08,.05-.17,.07-.27,.07Z"></path>
  <path d="M495.4,583.92c-.07,0-.13-.02-.19-.04-.06-.03-.11-.07-.16-.11-.04-.05-.08-.1-.1-.16-.02-.06-.04-.13-.03-.19,0-.28,.2-7.14,4.21-23.19,.07-.31,7.21-31.67,9.43-51.2,.02-.13,.09-.25,.19-.33,.1-.08,.24-.12,.37-.11,.13,.02,.25,.09,.33,.19,.08,.1,.12,.24,.11,.37-2.23,19.58-9.38,51-9.46,51.31-4,15.93-4.18,22.91-4.18,23,0,.13-.07,.25-.16,.34-.1,.09-.22,.14-.35,.13Z"></path>
  <path d="M414.72,631.62l-.76-.47v-.59l1.33-.76-.36,1.26-.21,.56Z"></path>
  <path d="M443.97,644.94c-1.28,5.55-4.61,10.41-9.33,13.6-.74,.52-1.61,.82-2.51,.87-.9,.04-1.8-.17-2.58-.62l-9.07-5.18c-5.77-3.32-7.16-9.37-7.16-14.4,0-2.82,.4-5.62,1.15-8.33,15.59,12.59,28.58,.8,28.58,.8,1.45,4.27,1.77,8.84,.92,13.26Z" fill="#231f20"></path>
  <path d="M431.89,659.91c-.9,0-1.79-.23-2.58-.68l-9.08-5.22c-6.11-3.52-7.41-10-7.41-14.84,0-2.87,.4-5.72,1.17-8.48l.21-.71,.58,.47c15.06,12.17,27.41,1.29,27.93,.82l.58-.53,.23,.75c1.48,4.35,1.8,9,.94,13.51-1.32,5.67-4.72,10.64-9.53,13.91-.89,.64-1.95,.99-3.04,1Zm-17.14-28.17c-.6,2.45-.91,4.95-.93,7.47,0,4.56,1.21,10.69,6.91,14l9.07,5.18c.7,.4,1.5,.59,2.31,.55,.81-.04,1.58-.31,2.24-.78,4.61-3.13,7.87-7.88,9.13-13.3,.79-4.09,.55-8.32-.7-12.29-2.73,2.05-14.43,9.66-28.03-.83Z"></path>
  <path d="M443.97,644.94c-1.28,5.55-4.61,10.41-9.33,13.6-.74,.52-1.61,.82-2.51,.87-.9,.04-1.8-.17-2.58-.62l-9.07-5.18c-5.77-3.32-7.16-9.37-7.16-14.4l.2-.34c.55,2.92,1.78,5.66,3.59,8.01,1.82,2.35,4.16,4.23,6.85,5.5l6.41,3.36c.64,.34,1.34,.52,2.06,.54,.72,.02,1.43-.12,2.09-.41,2.69-1.23,7-4.2,9.31-11.07l.14,.14Z"></path>
  <path d="M462.8,46.01v25.91c-.12,5.12-2.23,9.99-5.89,13.57-3.66,3.58-8.58,5.58-13.7,5.58s-10.03-2-13.69-5.58c-3.66-3.58-5.77-8.45-5.89-13.57v-25.91c.12-5.12,2.23-9.99,5.89-13.57,3.66-3.58,8.58-5.58,13.69-5.58s10.04,2,13.7,5.58c3.66,3.58,5.77,8.45,5.89,13.57Z" fill="#fff"></path>
  <path d="M443.21,92.01c-4.3,.01-8.49-1.37-11.94-3.94-2.52-1.87-4.57-4.3-5.98-7.11-1.41-2.8-2.15-5.9-2.16-9.03v-25.92c-.06-2.68,.41-5.34,1.4-7.82,.98-2.49,2.45-4.76,4.32-6.67,1.87-1.91,4.11-3.43,6.57-4.47,2.47-1.04,5.12-1.57,7.79-1.57s5.33,.53,7.79,1.57c2.47,1.04,4.7,2.56,6.57,4.47,1.87,1.91,3.34,4.18,4.32,6.67,.98,2.49,1.46,5.15,1.4,7.82v25.91c0,5.33-2.12,10.44-5.89,14.2-3.77,3.77-8.88,5.88-14.2,5.89Zm0-65.11c-5.06,0-9.92,2.02-13.5,5.6-3.58,3.58-5.59,8.44-5.58,13.51v25.91c0,2.98,.71,5.92,2.05,8.59,1.34,2.66,3.29,4.98,5.69,6.75,2.84,2.1,6.21,3.37,9.73,3.67s7.05-.39,10.21-1.98c3.15-1.59,5.8-4.02,7.66-7.03,1.85-3.01,2.84-6.47,2.84-10v-25.91c0-5.06-2.01-9.91-5.6-13.49-3.58-3.58-8.43-5.59-13.49-5.59v-.03Z"></path>
  <path d="M440.77,20.71s-14.43-4.1-22.1,14.62c0,0-1.42,3.56-2.31,16.39-1.24,6.64-2.94,13.19-5.06,19.6-1.03,2.85-1.75,5.81-2.15,8.81-1,7.21-.7,19.18,7.74,28.45,0,0,2.14-1.6,4.1-.36,.82-.2,1.61-.5,2.37-.87,2.41-1.16,4.45-2.97,5.9-5.22,1.45-2.25,2.24-4.86,2.29-7.53l.16-6.88c-2.56-1.75-4.64-4.12-6.06-6.87-1.42-2.76-2.13-5.83-2.06-8.93v-20.57s6.69-19.08,18-16.38c0,0,8.17-6.13,14.79,6.29,0,0,3.3,7.1,6.3,11l.06,19.67s.09,7.61-4.71,12.56l.17,7.75c.04,2.91,.69,5.79,1.89,8.44,1.2,2.65,2.94,5.03,5.11,6.98,1.37,1.27,2.97,2.26,4.71,2.91,6.6,0,13.17,.95,19.49,2.84,0,0,18.28-1,17.53,18.29-.75,19.29-5.08,28.31-3.29,46.31l-1,.45,.45,19.18s4.65,1.35,11.55-.74c-1.53-.24-2.96-.95-4.08-2.02-1.12-1.07-1.9-2.46-2.22-3.98,0,0,17.69,7.34,34.67-3,0,0-12-3-14.19-15.38,0,0,7.8,11,21.39,10.19,0,0-14.89-6.6-17.29-32.38,0,0-.9-24.28-26.68-45,0,0-27.58-19.78-32.67-51.56-.02-.02-7.69-42.12-32.8-33.06Z"></path>
  <path d="M482.36,111.94h-.12c-6.5-1.58-10.08-8.54-11.94-14.09-1.13-3.41-1.84-6.94-2.11-10.52-.45-6.72-1.33-13.4-2.65-20-.01-.07-.02-.13,0-.2,.01-.07,.04-.13,.07-.19,.04-.06,.08-.11,.14-.14,.05-.04,.12-.07,.18-.08,.07-.01,.13-.02,.2,0,.07,.01,.13,.04,.19,.07,.06,.04,.1,.08,.14,.14,.04,.06,.07,.12,.08,.18,1.34,6.64,2.24,13.36,2.68,20.12,.27,3.5,.96,6.95,2.06,10.28,1.78,5.32,5.17,12,11.23,13.44,.13,.03,.24,.11,.31,.22,.07,.11,.09,.25,.06,.38-.03,.12-.09,.22-.19,.29-.1,.07-.21,.11-.33,.1Z" fill="#fff"></path>
  <path d="M524.55,151.57c-.11,0-.21-.03-.3-.09-.09-.06-.15-.15-.18-.26-9.42-30-30.25-43.12-30.46-43.25-11.85-7.2-17.39-21.68-17.44-21.83-5.77-15.07-9.23-21.15-9.26-21.21-.03-.06-.06-.12-.07-.18,0-.06,0-.13,.01-.19,.02-.06,.05-.12,.09-.17,.04-.05,.09-.1,.15-.13,.12-.07,.25-.08,.38-.05,.13,.03,.24,.12,.31,.23,0,.06,3.53,6.21,9.32,21.36,.06,.14,5.48,14.31,17,21.33,.22,.13,21.36,13.4,30.89,43.8,.02,.06,.03,.13,.03,.19,0,.07-.02,.13-.05,.19-.03,.06-.07,.11-.12,.15-.05,.04-.11,.07-.17,.09-.04,.01-.08,.02-.12,.02Z" fill="#fff"></path>
  <path d="M531.55,180.75c-.08,0-.16-.02-.23-.06-8.55-4.43-11-14.4-11.61-18.48-.49-3.15-1.05-5.94-1.71-8.51-4.2-16.56-9.56-23-9.61-23.09-.04-.05-.08-.11-.1-.17-.02-.06-.03-.13-.02-.19,0-.07,.02-.13,.05-.19,.03-.06,.07-.11,.12-.15,.09-.09,.22-.14,.35-.14s.26,.05,.35,.14c.23,.27,5.55,6.67,9.82,23.49,.66,2.61,1.23,5.42,1.73,8.6,.62,3.93,2.94,13.53,11.08,17.75,.07,.02,.13,.04,.18,.08,.05,.04,.1,.09,.14,.15,.04,.06,.06,.12,.07,.19,.01,.07,0,.14,0,.2-.01,.07-.04,.13-.08,.18-.04,.05-.09,.1-.15,.14-.06,.04-.12,.06-.19,.07-.07,.01-.13,0-.2,0Z" fill="#fff"></path>
  <path d="M534.55,186.14c-.06,0-.12,0-.18,0-16.82-6.64-21.62-25.96-21.67-26.13-.01-.07-.02-.13,0-.2,.01-.07,.04-.13,.07-.19,.04-.06,.08-.11,.14-.15,.05-.04,.12-.07,.18-.08,.07-.01,.13-.02,.2,0,.07,.01,.13,.04,.19,.07,.06,.04,.11,.08,.15,.14,.04,.06,.07,.12,.08,.18,.05,.19,4.74,19,21.08,25.43,.13,.02,.25,.1,.33,.21,.08,.11,.11,.25,.08,.38-.02,.13-.1,.25-.21,.33-.11,.08-.25,.11-.38,.08l-.05-.07Z" fill="#fff"></path>
  <path d="M529.9,189.64c-6.3,0-15.75-3.11-24.74-18.13-.07-.12-.08-.25-.05-.38,.03-.13,.12-.24,.23-.3,.06-.04,.12-.06,.18-.07,.07,0,.13,0,.19,0,.06,.02,.12,.04,.18,.08,.05,.04,.1,.09,.13,.15,14.74,24.64,30.06,16.56,30.71,16.21,.06-.03,.12-.05,.18-.06,.06,0,.13,0,.19,.01,.06,.02,.12,.05,.17,.09,.05,.04,.09,.09,.12,.15,.03,.06,.05,.12,.06,.18,0,.07,0,.13-.01,.2-.02,.06-.05,.12-.09,.17-.04,.05-.09,.09-.15,.13-2.29,1.07-4.79,1.61-7.31,1.56Z" fill="#fff"></path>
  <path d="M491,110.21c-.06,0-.13,0-.19,0-12.47-5.23-14.4-12-14.48-12.33-.03-.13-.01-.27,.06-.39,.07-.12,.18-.2,.32-.23,.13-.03,.27-.01,.39,.06,.12,.07,.2,.18,.24,.32,0,.06,1.93,6.64,13.9,11.66,.12,.05,.22,.15,.27,.27,.05,.12,.05,.26,0,.38-.05,.09-.12,.16-.21,.21-.09,.05-.19,.07-.29,.06Z" fill="#fff"></path>
  <path d="M478.61,93.82c-.13,0-.26-.06-.35-.15-8.2-8.2-9.67-14.76-9.73-15-.02-.13,0-.26,.08-.37,.07-.11,.18-.19,.31-.22,.07-.01,.13-.01,.2,0,.07,.01,.13,.04,.18,.07,.05,.04,.1,.08,.14,.14,.04,.05,.06,.12,.07,.18,0,.06,1.49,6.56,9.46,14.54,.09,.09,.14,.22,.14,.35s-.05,.26-.14,.35c-.1,.08-.23,.12-.36,.11Z" fill="#fff"></path>
  <path d="M518.21,191.75c-9.39,0-13.58-4.35-13.78-4.57-.05-.05-.08-.1-.11-.16-.02-.06-.04-.12-.04-.19s.01-.13,.04-.19c.03-.06,.06-.11,.11-.16,.05-.05,.1-.08,.16-.11,.06-.03,.13-.04,.19-.04s.13,.01,.19,.04c.06,.03,.12,.06,.16,.11,.05,.06,5.59,5.77,18.14,3.85,.13-.02,.26,.01,.37,.09,.11,.08,.18,.19,.2,.32,.01,.07,0,.13,0,.2-.02,.07-.04,.12-.08,.18-.04,.05-.09,.1-.15,.13-.06,.03-.12,.06-.19,.06-1.73,.28-3.47,.43-5.22,.44Z" fill="#fff"></path>
  <path d="M521.66,196.87c-3.36,0-6.69-.6-9.84-1.76-.06-.02-.12-.05-.17-.1-.05-.04-.09-.1-.12-.16-.03-.06-.05-.12-.05-.19,0-.07,0-.13,.03-.2,.02-.06,.06-.12,.1-.17,.04-.05,.1-.09,.16-.12,.06-.03,.13-.04,.19-.04,.07,0,.13,0,.2,.04,17.07,6.2,30.32-6.55,30.45-6.68,.04-.05,.1-.09,.16-.12,.06-.03,.13-.05,.2-.05s.14,0,.2,.04c.06,.03,.12,.06,.17,.11,.05,.05,.09,.11,.11,.17,.03,.06,.04,.13,.03,.2,0,.07-.02,.14-.05,.2-.03,.06-.07,.12-.13,.16-.11,.11-8.98,8.67-21.65,8.67Z"></path>
  <path d="M550.16,183.15c-.08,0-.17-.02-.24-.06-14-7.45-13.87-37-13.7-42.78,.04-1.04,.02-2.08-.07-3.12-2.09-20.7-31.9-31.67-32.2-31.78-.06-.02-.12-.05-.17-.1-.05-.04-.09-.1-.12-.16-.03-.06-.04-.12-.05-.19,0-.07,0-.13,.03-.19,.04-.12,.14-.23,.26-.28,.12-.06,.26-.06,.38-.02,.3,.11,30.71,11.3,32.85,32.62,.09,1.08,.12,2.17,.08,3.25-.17,5.73-.3,34.69,13.17,41.87,.12,.06,.2,.17,.24,.29,.04,.12,.03,.26-.03,.38-.04,.08-.11,.15-.18,.19-.08,.05-.17,.07-.26,.08Z"></path>
  <path d="M528.97,134.79c-.13,0-.26-.06-.35-.15-.09-.1-.15-.22-.15-.36,.2-22.82-18.36-35-18.55-35.14-30.18-21.84-37.16-42.36-37.23-42.56-.04-.13-.03-.26,.03-.38,.06-.12,.16-.21,.29-.25,.06-.02,.13-.03,.19-.03,.07,0,.13,.02,.19,.05,.06,.03,.11,.07,.15,.12,.04,.05,.08,.11,.1,.17,.07,.21,7,20.44,36.84,42.05,.17,.11,19.19,12.59,19,36,0,.13-.06,.25-.16,.34s-.22,.14-.35,.14Z"></path>
  <path d="M441.65,35.47c-.13,0-.25-.05-.34-.14-.09-.09-.15-.21-.16-.33l-.87-14.26c0-.13,.04-.26,.12-.36,.09-.1,.21-.16,.34-.17,.07,0,.13,0,.19,.02,.06,.02,.12,.05,.17,.1,.05,.04,.09,.1,.12,.16,.03,.06,.04,.12,.05,.19l.87,14.26c0,.13-.04,.26-.12,.36-.09,.1-.21,.16-.34,.17h-.03Z" fill="#fff"></path>
  <path d="M418.06,108.21c-.08,0-.17-.02-.24-.06-.07-.04-.14-.1-.18-.17-12.56-19.63,1.19-42.66,1.33-42.89,.03-.06,.08-.11,.13-.14,.05-.04,.11-.07,.18-.08,.06-.02,.13-.02,.2,0,.06,0,.13,.03,.18,.07,.06,.03,.11,.08,.14,.13,.04,.05,.07,.11,.08,.18,.02,.06,.02,.13,0,.2-.01,.07-.03,.13-.07,.18-.14,.22-13.57,22.73-1.35,41.83,.07,.11,.1,.25,.07,.38-.03,.13-.11,.24-.22,.31-.08,.05-.17,.08-.27,.08Z" fill="#fff"></path>
  <path d="M415.14,102.01c-.12,0-.24-.04-.33-.12-.09-.08-.15-.18-.17-.3-2.67-17.4,7-32.46,7.14-32.61,.07-.11,.19-.19,.31-.22,.13-.03,.26,0,.38,.07,.11,.07,.19,.19,.22,.32,.03,.13,0,.27-.07,.38-.1,.14-9.6,14.9-7,31.91,.01,.07,0,.13,0,.2-.02,.06-.04,.12-.08,.18-.04,.05-.09,.1-.14,.13-.06,.03-.12,.06-.18,.07h-.06Z" fill="#fff"></path>
  <path d="M420.99,108.72c-.08,0-.16-.02-.23-.05-.07-.03-.13-.09-.17-.15-8.6-11.41,2.16-33.34,2.62-34.26,.06-.12,.16-.21,.29-.25s.26-.04,.38,.02c.06,.03,.11,.07,.16,.12,.04,.05,.08,.11,.1,.17,.02,.06,.03,.13,.03,.19,0,.07-.02,.13-.05,.19-.11,.22-10.95,22.3-2.72,33.22,.08,.11,.11,.24,.1,.37-.02,.13-.09,.25-.19,.33-.09,.07-.19,.1-.3,.1Z" fill="#fff"></path>
  <path d="M416.89,109.08c-.07,.01-.13,.01-.2,0-2.12-.88-4.04-2.2-5.64-3.86-1.59-1.66-2.83-3.63-3.62-5.79-3.88-10.59,2.32-23.89,2.58-24.42,.03-.06,.07-.11,.11-.16,.05-.04,.11-.08,.17-.1,.06-.02,.13-.03,.19-.03,.07,0,.13,.02,.19,.05,.06,.03,.11,.07,.16,.12,.04,.05,.08,.1,.1,.17,.02,.06,.03,.13,.03,.19,0,.07-.02,.13-.05,.19-.07,.14-6.29,13.5-2.55,23.65,.75,2.03,1.91,3.89,3.42,5.45,1.5,1.56,3.31,2.79,5.31,3.62,.13,.03,.25,.11,.32,.22,.07,.11,.1,.25,.07,.38-.03,.13-.11,.25-.22,.32-.11,.07-.25,.1-.38,.07v-.07Z"></path>
  <path d="M444.39,167.43l-13.33-24.37c-10.1-19.9-10.3-34.83-10.3-34.83,.18-.04,.36-.09,.54-.15,2.96-.9,5.56-2.72,7.41-5.21,1.85-2.49,2.84-5.5,2.84-8.59v-6.62c3.98,2.95,8.93,4.28,13.85,3.72,4.92-.56,9.45-2.96,12.66-6.72l.17,7.57c.73,14.69,11.67,18.34,11.67,18.34,3.37,15.44-25.51,56.86-25.51,56.86Z" fill="#fff"></path>
  <path d="M444.34,168.38l-13.72-25.08c-10-19.78-10.35-34.91-10.36-35.06v-.4l.38-.09c.18,0,.35-.09,.52-.15,2.85-.88,5.35-2.65,7.12-5.05,1.78-2.4,2.74-5.3,2.75-8.28l.05-7.59,.79,.58c3.88,2.87,8.7,4.16,13.49,3.62s9.2-2.88,12.34-6.55l.86-1,.19,8.87c.7,14.17,11.22,17.84,11.33,17.87l.27,.09,.06,.28c3.35,15.44-24.43,55.57-25.61,57.27l-.46,.67Zm-23.06-59.77c.12,2.47,1.19,16.43,10.23,34.22l12.93,23.65c3.65-5.36,27.72-41.41,25.05-55.56-1.74-.71-11.07-5.14-11.74-18.67l-.14-6.34c-3.27,3.37-7.61,5.48-12.28,5.98-4.67,.5-9.36-.66-13.26-3.27v5.66c-.01,3.2-1.05,6.31-2.95,8.88-1.91,2.57-4.58,4.46-7.64,5.4l-.2,.05Z"></path>
  <path d="M420.76,108.23c-.38-.23-.81-.37-1.25-.42-.44-.05-.89,0-1.31,.12-.42,.13-.82,.35-1.15,.65-.33,.29-.6,.65-.79,1.06l-18.19,3.89s-9-1.94-13,9.44c0,0-3.75,8.2-.14,29.17,0,0,2.36,16.11-.14,26.52,6.41-.38,12.83,.32,19,2.08l1.66-9.86s.35,19.86,10.1,45l-1.35,9.74s-31.48,32.53-32.38,79.29c0,0-1.8,93.52-20.38,157.37,0,0-16.49,65.35-34.17,100.12,0,0,17.68,.6,28.77,12.89,0,0,7.8,10.79,17.09,10.49l-3.57,8.73s14.39,8.39,35.07,1.5c0,0,32.08-100.42,37.47-138.79,0,0,25-107.71,26.38-149.08,0,0,3.4,11.79,16.59,31.78,0,0,14.59,25.18,15.39,31.77,0,0,1,35.77,5.79,52.16,0,0,6-38.42-12-100,0,0-10.79-38.27-14.39-53.65,0,0-6.72-29.17-12.32-38.56l2.33-.21v-8.6l-3.48,.36s14.07-28.73,17.27-48.12l.2,4.8s4.5-2.3,19.83-1.85c0,0-1.49-8.84,1.2-26.68,0,0,1.65-11.39,1.8-15,0,0,5-22.78-17.23-22.93-6.34-1.81-12.9-2.77-19.49-2.84,0,0,2.3,5.94-6.29,24.13,0,0-10.9,21.93-19.24,32.74l-13.33-24.37s-10.44-21.73-10.34-34.84Z" fill="#c7404e"></path>
  <path d="M388.39,599.21c-11.64,0-19-4.21-19.14-4.27l-.38-.22,3.48-8.4c-9.1-.26-16.43-10.26-16.74-10.7-10.78-11.94-28.21-12.68-28.39-12.68h-.78l.35-.7c17.46-34.32,34-99.36,34.14-100,18.35-63.07,20.35-156.33,20.36-157.26,.87-45,30.32-77.28,32.4-79.51l1.31-9.45c-5.09-13.1-8.39-26.83-9.8-40.81l-1.05,6.21-.54-.16c-6.12-1.74-12.49-2.43-18.84-2.06l-.69,.06,.16-.67c2.45-10.21,.16-26.18,.13-26.34-3.59-20.87,0-29.1,.18-29.44,3.87-10.93,12.41-9.93,13.5-9.75l17.89-3.82c.51-.88,1.34-1.53,2.32-1.81,.94-.2,1.92-.05,2.76,.41l.25,.15v.28c-.09,12.85,10.15,34.4,10.25,34.61l12.95,23.68c8.15-10.85,18.61-31.84,18.72-32.06,8.34-17.64,6.3-23.67,6.27-23.73l-.24-.66h.7c6.62,.07,13.2,1.03,19.57,2.84,6.47,.06,11.31,2,14.39,5.87,5.52,6.9,3.36,17.24,3.26,17.67-.14,3.5-1.72,14.49-1.79,14.95-2.65,17.53-1.22,26.44-1.2,26.53l.1,.6h-.61c-15-.45-19.55,1.77-19.59,1.8l-.7,.34-.05-1.34c-3.82,17-14,38.84-16.11,43.28l3.14-.32v9.6l-2,.19c5.48,10,11.72,36.85,12,38,3.55,15.2,14.27,53.25,14.38,53.64,17.81,61,12.07,99.84,12,100.23l-.35,2.21-.63-2.15c-4.76-16.26-5.8-51.93-5.81-52.28-.78-6.38-15.18-31.29-15.32-31.54-9.63-14.58-14.08-24.92-15.77-29.4-2.28,42.69-26,145.51-26.28,146.57-5.33,37.92-37.16,137.82-37.48,138.82l-.08,.24-.24,.08c-5.27,1.77-10.8,2.67-16.36,2.67Zm-18.25-4.93c2.4,1.23,15.78,7.33,34,1.34,1.76-5.54,32.17-101.49,37.37-138.47,.26-1.12,25-108.18,26.37-149l.11-3.15,.87,3c0,.11,3.54,12,16.53,31.63,.61,1.06,14.66,25.37,15.46,32,0,.39,1,32.51,5.11,49.55,.93-9.62,2.86-45.37-12.28-97.21-.11-.38-10.83-38.46-14.39-53.68-.07-.29-6.78-29.19-12.27-38.41l-.4-.68,2.66-.25v-7.58l-3.83,.39,.4-.81c.14-.29,14.08-28.89,17.23-48l.79-4.79,.37,8.94c1.74-.6,7-1.93,18.79-1.63-.27-2.29-1-11.09,1.28-26.24,0-.11,1.64-11.41,1.79-14.94,0-.18,2.17-10.4-3.06-16.92-2.88-3.6-7.49-5.44-13.68-5.49h-.14c-6.05-1.74-12.3-2.7-18.6-2.87h-.07c.36,2,.63,8.79-6.48,23.85-.11,.23-11,22.11-19.29,32.84l-.47,.61-13.7-25.05c-.43-.91-10.3-21.66-10.36-34.76-.56-.25-1.18-.31-1.77-.18-.39,.12-.75,.32-1.06,.59-.31,.26-.57,.59-.75,.95l-.11,.19-18.51,4h-.1c-.36-.08-8.66-1.69-12.48,9.12-.05,.12-3.65,8.4-.12,28.91,0,.17,2.25,15.67,0,26.07,6.07-.27,12.14,.41,18,2l1.57-9.31,1,.08c0,.19,.47,20.06,10.06,44.86v.12l-1.39,10-.04,.11c-.32,.32-31.35,32.93-32.24,78.95,0,.93-2,94.32-20.4,157.5-.16,.63-16.48,64.94-33.87,99.53,3.56,.29,18.58,2.16,28.37,13,.11,.15,7.76,10.6,16.7,10.33h.77l-3.74,8.96Z"></path>
  <path d="M415.55,215.92s28.84,11.26,54.3,6.89v8.6s-35.21,2.49-55.65-5.75l1.35-9.74Z" fill="#231f20"></path>
  <path d="M459.65,220.01c-.12,0-.24-.04-.33-.12-.09-.08-.15-.19-.16-.32-3.83-30.46-15.1-51.65-15.21-51.86-.04-.06-.06-.12-.07-.19,0-.07,0-.14,.01-.2,.02-.07,.05-.13,.09-.18,.04-.05,.1-.1,.16-.13,.06-.03,.13-.05,.2-.06,.07,0,.14,0,.2,.02,.07,.02,.12,.06,.18,.1,.05,.05,.09,.1,.12,.16,.11,.21,11.46,21.55,15.32,52.21,.01,.13-.02,.26-.1,.37-.08,.1-.2,.17-.33,.19h-.07Z"></path>
  <path d="M466.73,181.48c-4.34,.04-8.53-1.55-11.74-4.47-.05-.05-.08-.1-.11-.16-.02-.06-.04-.12-.04-.19s.01-.13,.04-.19c.03-.06,.06-.11,.11-.16,.05-.05,.1-.08,.16-.11,.06-.03,.13-.04,.19-.04s.13,.01,.19,.04c.06,.03,.12,.06,.16,.11,.43,.45,10.75,10.93,27.57-2.91,.05-.04,.11-.07,.17-.09,.06-.02,.13-.03,.19-.02,.07,0,.13,.03,.19,.06,.06,.03,.11,.07,.15,.13,.04,.05,.08,.11,.1,.17,.02,.06,.03,.13,.02,.19,0,.07-.02,.13-.05,.19-.03,.06-.07,.11-.12,.15-6.74,5.59-12.57,7.31-17.18,7.31Z"></path>
  <path d="M483.81,180.35c-.12,0-.24-.04-.33-.12-.09-.08-.15-.19-.17-.31-1.63-11.91,1-34.4,1-34.62,4.45-19.62,4.56-31.78,4.57-31.9,0-.13,.05-.26,.15-.35,.09-.09,.22-.15,.35-.15,.13,0,.26,.06,.35,.15,.09,.1,.15,.22,.15,.36,0,.12-.12,12.37-4.59,32,0,.18-2.63,22.54-1,34.32,.02,.13-.02,.26-.1,.37-.08,.1-.2,.17-.33,.19l-.05,.06Z"></path>
  <path d="M405.42,171.38c-.07,0-.13-.02-.19-.05-.06-.03-.11-.07-.16-.11-.04-.05-.08-.1-.1-.17-.02-.06-.03-.13-.03-.19,.06-6.06-.63-12.11-2.06-18-1.72-6.47-2.89-13.07-3.49-19.73l-1.84-19.55c-.01-.13,.03-.27,.12-.37,.09-.1,.21-.17,.34-.18,.13,0,.26,.04,.36,.12,.1,.08,.17,.2,.18,.33l1.82,19.53c.59,6.61,1.75,13.16,3.46,19.57,1.45,6,2.15,12.15,2.09,18.32,0,.06-.01,.13-.04,.19-.03,.06-.06,.11-.11,.16-.05,.04-.1,.08-.16,.1-.06,.02-.12,.04-.19,.03Z"></path>
  <path d="M420.04,181.31c-1.85,.02-3.68-.27-5.43-.86-4.32-1.49-7.51-4.9-9.47-10.15-.03-.06-.05-.13-.05-.2,0-.07,0-.14,.03-.21,.03-.07,.06-.12,.11-.18s.11-.09,.18-.11c.07-.02,.14-.04,.21-.03,.07,0,.14,.02,.2,.06,.06,.03,.12,.08,.16,.13,.04,.06,.07,.12,.09,.19,1.86,4.95,4.84,8.16,8.86,9.55,8.79,3,19.79-3.59,19.89-3.66,.11-.05,.24-.06,.36-.02,.12,.04,.22,.11,.28,.22,.07,.11,.09,.23,.07,.35-.02,.12-.08,.23-.18,.31-.38,.23-7.66,4.61-15.31,4.61Z"></path>
  <path d="M454.77,230.09s-2.14,9-1.74,25.53c0,0,1.63,24.23-3.5,37.78-.05,.14-.13,.26-.24,.35-.11,.1-.24,.16-.38,.2-.14,.04-.29,.04-.43,0-.14-.03-.27-.1-.38-.2-1.26-1.12-3.69-2.81-6.3-2.31-.1,.02-.21,.01-.3-.02-.1-.04-.18-.1-.25-.18-.07-.08-.11-.18-.12-.28-.01-.1,0-.21,.04-.3,1.42-3.26,4.86-13.47,3.57-33.31l4.68-22.06,5.35-5.21Z" fill="#fff"></path>
  <path d="M448.7,294.48c-.34,0-.67-.12-.92-.35-1.16-1-3.45-2.66-5.88-2.18-.19,.04-.39,.02-.57-.05-.18-.07-.34-.18-.46-.34-.12-.15-.2-.33-.22-.53-.03-.19,0-.39,.08-.57,1.48-3.43,4.8-13.51,3.53-33.08v-.13l4.72-22.25,6.69-6.52-.4,1.67c0,.09-2.12,9.1-1.73,25.41,0,.22,1.58,24.47-3.53,38-.08,.22-.21,.41-.39,.56-.17,.15-.38,.26-.61,.31-.1,.02-.2,.04-.3,.04Zm-5.93-3.62c2.13,.15,4.13,1.04,5.67,2.52,.05,.04,.1,.07,.16,.09,.06,.02,.13,.02,.19,0,.06-.01,.12-.05,.17-.09,.05-.04,.09-.1,.11-.16,5-13.29,3.48-37.32,3.46-37.56-.3-8.06,.18-16.13,1.44-24.09l-4.09,4-4.63,21.85c1.27,19.73-2.11,30-3.62,33.46l.08,.1c.35-.07,.7-.11,1.06-.12Z"></path>
  <path d="M454.84,224.32s-12.23,9.41-15.88,16.72c-1.83,3.08-3.18,6.43-4,9.92-.19,.88-.1,1.79,.24,2.62,.34,.83,.93,1.54,1.69,2.03l4.28,2.78s-.63-5.43,4-13.79l9.62-15.11,.05-5.17Z" fill="#c7404e"></path>
  <path d="M441.76,259.39l-5.16-3.38c-.84-.55-1.49-1.33-1.87-2.25-.38-.92-.49-1.94-.29-2.92,.84-3.54,2.23-6.94,4.11-10.06,3.65-7.3,15.5-16.47,16-16.86l.82-.63-.13,6.35-9.69,15.23c-4.43,8.06-3.9,13.41-3.89,13.47l.1,1.05Zm12.56-34c-2.8,2.25-11.9,9.86-14.92,15.9-1.83,3.04-3.17,6.34-4,9.79-.16,.78-.08,1.59,.23,2.33,.31,.74,.83,1.36,1.5,1.8l3.47,2.26c0-2,.53-6.67,4.06-13.09l9.56-15,.1-3.99Z"></path>
  <path d="M441.15,258.39s2.72,3.35,6.17-5.64l7.38-23.12-9.33,14.57s-4.74,7.81-4.22,14.19Z" fill="#231f20"></path>
  <path d="M457.98,230.76s-3.21,20.85,.53,39.3c0,0,3.11,14.4,3.13,26.41,0,.28,.06,.55,.19,.8s.31,.46,.54,.63,.49,.27,.76,.32c.27,.04,.56,.02,.82-.07,1.84-.65,3.78-.94,5.73-.87,.46,.02,.91-.14,1.24-.45,.34-.31,.54-.74,.57-1.2,.23-4.2,.35-14.92-3.52-25.45-1.12-3.44-1.68-7.04-1.65-10.65l-2.24-24-3.75-6.52-2.35,1.75Z" fill="#fff"></path>
  <path d="M463.39,298.75c-.46,0-.92-.15-1.29-.42-.3-.21-.55-.48-.73-.81-.18-.32-.27-.68-.27-1.05,0-11.82-3.08-26.16-3.11-26.3-3.72-18.33-.58-39.28-.55-39.49v-.2l3-2.27,4.09,7.3,2.25,24c0,3.57,.56,7.11,1.66,10.5,3.9,10.63,3.78,21.47,3.55,25.64-.04,.59-.3,1.14-.73,1.54-.43,.4-1.01,.61-1.6,.59-1.88-.07-3.76,.22-5.54,.84-.23,.09-.48,.13-.73,.13Zm-5-67.72c-.31,2.17-2.92,21.73,.56,38.93,0,.14,3.12,14.58,3.14,26.51,0,.21,.05,.41,.14,.59,.09,.18,.23,.34,.4,.46,.16,.11,.34,.19,.54,.21,.19,.03,.39,0,.57-.05,1.9-.66,3.9-.97,5.91-.9,.33,.01,.64-.11,.89-.33,.24-.22,.39-.53,.4-.85,.23-4.11,.35-14.79-3.49-25.25-1.14-3.49-1.71-7.15-1.68-10.83l-2.22-23.81-3.41-6-1.75,1.32Z"></path>
  <path d="M512.49,482.01c-.11,0-.21-.03-.3-.1-.09-.07-.15-.16-.18-.26-5.35-19.25-13.37-22.73-13.45-22.76-.06-.02-.12-.06-.16-.11-.05-.05-.08-.1-.11-.16-.03-.06-.04-.12-.04-.19,0-.07,.01-.13,.04-.19,.02-.06,.06-.12,.11-.16,.05-.05,.1-.09,.16-.11s.12-.04,.19-.04c.07,0,.13,.01,.19,.04,.35,.14,8.54,3.62,14,23.42,.03,.13,.02,.27-.05,.38-.06,.12-.17,.2-.3,.24h-.09Z"></path>
  <path d="M501.49,450.3h-.1c-.06-.01-.12-.04-.18-.08-.05-.04-.1-.08-.14-.14-.04-.06-.06-.12-.07-.18-.01-.07-.01-.13,0-.2,1.94-8.82-.28-12.8-.31-12.84-.07-.12-.09-.25-.05-.38,.03-.13,.12-.24,.23-.31,.12-.07,.25-.09,.38-.05,.13,.03,.24,.12,.31,.23,.1,.18,2.46,4.31,.42,13.56-.03,.11-.09,.21-.18,.28-.09,.07-.2,.11-.31,.1Z"></path>
  <path d="M540.55,595.18c-1.7,.01-3.4-.15-5.07-.48-.13-.03-.25-.08-.36-.16-.11-.08-.2-.17-.27-.28-.07-.11-.12-.23-.14-.36-.02-.13-.02-.26,.01-.39,.06-.26,.22-.48,.44-.62,.22-.14,.49-.19,.75-.13,4.4,.83,8.94,.42,13.12-1.17,.12-.06,.26-.1,.39-.11,.14,0,.27,.01,.4,.06s.25,.12,.35,.22c.1,.09,.18,.21,.23,.34,.05,.13,.08,.26,.08,.4,0,.14-.03,.27-.09,.4-.06,.12-.14,.24-.24,.33-.1,.09-.22,.16-.35,.21-2.94,1.19-6.09,1.79-9.26,1.76Z" fill="#231f20"></path>
  <path d="M373.1,586.32c-.06,.01-.13,.01-.19,0-.06-.02-.12-.06-.16-.11-.05-.05-.08-.1-.11-.16-.03-.06-.04-.13-.04-.19,0-.07,.01-.13,.04-.19,.39-1,39.16-96.39,48.59-148.44,.01-.07,.03-.13,.07-.18,.03-.05,.08-.1,.14-.14,.05-.04,.11-.06,.18-.08,.06-.01,.13-.01,.19,0,.13,.02,.24,.1,.32,.21,.07,.11,.1,.24,.08,.37-9.44,52.11-48.26,147.6-48.66,148.6-.04,.09-.1,.17-.18,.22s-.17,.09-.27,.09Z"></path>
  <path d="M426.98,589.71c-2.04,0-4.08-.18-6.1-.5-.13-.02-.26-.07-.37-.13-.11-.07-.21-.16-.29-.27-.08-.11-.14-.23-.17-.36-.03-.13-.04-.26-.02-.4,.02-.13,.07-.26,.14-.37,.07-.11,.16-.21,.27-.29,.11-.08,.23-.14,.36-.17,.13-.03,.26-.04,.39-.02,10,1.53,14-1.18,14.08-1.21,.11-.08,.23-.13,.36-.16,.13-.03,.26-.03,.39-.01,.13,.02,.26,.07,.37,.14,.11,.07,.21,.16,.28,.27,.15,.21,.21,.48,.17,.74s-.19,.49-.4,.64c-.14,.14-2.89,2.09-9.46,2.09Z" fill="#231f20"></path>
  <path d="M484.24,179.84s2.51,20.28,3.49,33.56c0,0-1,2.94,1.68,9.79,0,0,5.74,29.37,10.49,38.73,0,0,7.57,18,8.57,29.35,.06,.77-.07,1.54-.37,2.24-.3,.71-.76,1.34-1.35,1.83-2.13,1.85-5.24,5.9-4.2,13.28,0,0,0,8.39-1.4,10.21,0,0-1.7,3.89,1.35,5.32,.09,.04,.19,.07,.29,.07,.1,0,.2-.02,.3-.05,.09-.04,.18-.1,.25-.17,.07-.07,.12-.16,.16-.26,.42-1.09,.92-2.14,1.51-3.15,.26-.4,.56-.78,.88-1.13,.56-.85,.85-1.85,.86-2.87,.04-.65,.22-1.29,.53-1.86,.1-.22,.27-.4,.49-.52,.21-.11,.46-.16,.7-.13,.24,.03,.46,.14,.63,.31,.17,.17,.29,.39,.32,.63,.41,2.22,.58,5.65-1.41,8.1-.39,.44-.87,.79-1.42,1l-8.57,3.66c-.32,.13-.57,.39-.7,.71-.13,.32-.13,.68,0,1,.13,.32,.38,.57,.69,.7,.31,.14,.66,.15,.98,.04l6-2.2c.22-.08,.46-.07,.67,.03,.21,.1,.37,.28,.45,.5,.07,.2,.07,.41,0,.61-.07,.2-.21,.36-.4,.46l-7.17,3.89c-.36,.2-.64,.51-.8,.88-.16,.38-.19,.79-.09,1.19,.06,.23,.17,.45,.31,.63,.15,.19,.33,.35,.54,.46,.21,.12,.44,.19,.67,.22,.24,.03,.48,0,.71-.06,2.94-.82,8.83-3,11.8-7.82,0,0,.7,1.54-1.12,4.33,0,0-3.49,5,.22,9.77,.06,.08,.14,.14,.23,.17,.09,.03,.19,.04,.29,.01,.1-.02,.18-.08,.25-.15,.07-.07,.11-.16,.12-.26,.44-3.3,1.38-6.52,2.8-9.54,1-1.66,1.65-3.51,1.91-5.43,.26-1.92,.14-3.88-.37-5.75,0,0-1.26-3.92-.14-14,0,0,3.26-10.77,.41-19.27-.36-1.07-.57-2.2-.6-3.33l-.53-21.28c-.2-7.63-1.2-15.21-3-22.63-1.67-7.29-3.81-14.47-6.4-21.49-1.21-3.11-1.88-6.39-2-9.72l-1.21-32.47s-10.9-1-18.31,1.83Z" fill="#fff"></path>
  <path d="M511.15,343.84c-.15,0-.3-.04-.44-.1-.14-.07-.26-.16-.35-.29-3.89-5-.28-10.3-.24-10.35,.53-.77,.9-1.64,1.1-2.56-3.17,4.05-8.3,6-11.24,6.82-.29,.08-.6,.1-.9,.07-.3-.04-.59-.13-.85-.29-.27-.15-.5-.35-.69-.59-.19-.24-.32-.52-.4-.81-.14-.5-.11-1.04,.1-1.52,.21-.48,.57-.88,1.03-1.12l7.16-3.85c.06-.03,.11-.08,.14-.14,.04-.06,.05-.13,.05-.2s-.02-.14-.05-.2c-.03-.06-.08-.11-.14-.14-.09-.04-.2-.04-.29,0l-5.95,2.2c-.45,.17-.94,.16-1.38-.03-.44-.19-.78-.55-.96-.99s-.17-.94,.01-1.38c.19-.44,.54-.79,.98-.97l8.58-3.66c.47-.2,.89-.5,1.22-.89,1.84-2.26,1.72-5.43,1.31-7.7-.02-.14-.08-.26-.18-.36-.1-.1-.22-.16-.36-.17s-.27,0-.39,.07c-.12,.07-.22,.17-.28,.29-.27,.51-.43,1.07-.47,1.65-.02,1.13-.37,2.24-1,3.18l-.1,.12c-.27,.31-.51,.65-.73,1-.58,.98-1.07,2.01-1.47,3.07-.06,.16-.16,.3-.28,.43-.12,.12-.26,.22-.42,.28-.16,.07-.33,.11-.5,.11s-.34-.04-.5-.11c-2.77-1.29-2.26-4.47-1.6-6l.06-.1c1.06-1.39,1.3-7.62,1.3-9.91-1.08-7.62,2.27-11.83,4.37-13.65,.53-.45,.94-1.01,1.21-1.65,.27-.64,.38-1.33,.33-2.01-1-11.16-8.46-29-8.53-29.2-4.72-9.29-10.28-37.63-10.52-38.84-2.42-6.23-1.85-9.33-1.69-9.93-1-13.12-3.46-33.25-3.49-33.45l-.05-.39,.37-.14c7.43-2.81,18.09-1.89,18.54-1.85h.44l1.21,32.91c.12,3.27,.8,6.5,2,9.55,2.61,7.04,4.76,14.25,6.42,21.57,1.8,7.45,2.8,15.07,3,22.73l.53,21.28c.03,1.08,.22,2.15,.57,3.18,2.87,8.56-.27,19.13-.4,19.58-1.07,9.71,.13,13.65,.14,13.69,.54,1.94,.67,3.98,.4,5.98-.28,2-.96,3.92-2.01,5.64-1.38,2.95-2.29,6.09-2.71,9.32-.03,.19-.11,.37-.24,.52-.13,.15-.3,.25-.49,.3h-.28Zm.56-15.84l.39,.85c0,.07,.79,1.82-1.15,4.82-.14,.2-3.23,4.75,.2,9.18,.44-3.36,1.4-6.63,2.85-9.69,.96-1.61,1.59-3.4,1.84-5.26,.26-1.86,.14-3.75-.34-5.57-.05-.13-1.27-4.1-.16-14.16,.06-.2,3.2-10.81,.43-19.06-.38-1.12-.59-2.3-.62-3.48l-.53-21.28c-.21-7.59-1.21-15.14-3-22.52-1.66-7.27-3.8-14.43-6.38-21.43-1.21-3.16-1.89-6.5-2-9.88l-1.18-32c-2-.14-10.92-.58-17.29,1.68,.36,2.9,2.56,21.07,3.45,33.19v.2s-.87,2.91,1.67,9.45c.08,.38,5.8,29.49,10.47,38.69,.09,.21,7.62,18.21,8.62,29.53,.06,.84-.08,1.69-.4,2.47-.33,.78-.83,1.48-1.48,2.03-2,1.69-5.06,5.61-4,12.83,0,.94,0,8.54-1.45,10.53-.18,.44-1.31,3.48,1.12,4.62,.03,.01,.06,.02,.09,.02s.06,0,.09-.02c.03-.01,.06-.03,.09-.05,.02-.02,.04-.05,.05-.09,.42-1.12,.94-2.2,1.54-3.23,.25-.38,.53-.75,.84-1.09l.1-.11c.48-.78,.74-1.67,.74-2.59,.04-.7,.24-1.38,.57-2,.15-.31,.4-.56,.71-.72,.3-.16,.65-.22,.99-.17,.34,.05,.66,.2,.91,.44,.25,.24,.41,.55,.48,.89,.46,2.47,.56,6-1.51,8.51-.43,.52-.99,.92-1.61,1.18l-8.57,3.66c-.18,.09-.33,.25-.4,.44-.07,.19-.07,.4,0,.6,.07,.19,.22,.35,.4,.44,.18,.09,.4,.11,.59,.05l6-2.19c.17-.06,.35-.09,.53-.09,.18,0,.36,.05,.52,.13,.17,.08,.31,.18,.44,.32,.12,.13,.22,.29,.28,.46,.11,.31,.11,.65,0,.96-.12,.31-.34,.56-.63,.72l-7.26,3.82c-.2,.11-.37,.28-.49,.48-.12,.2-.18,.43-.18,.66s.06,.46,.18,.66c.12,.2,.29,.37,.49,.48,.15,.09,.32,.14,.49,.16,.17,.02,.35,0,.51-.04,3.08-.86,8.67-3,11.51-7.6l.46-.83Z"></path>
  <path d="M496.55,219.59c-.57,0-1.15-.03-1.72-.1-.07,0-.13-.03-.19-.06-.06-.03-.11-.08-.15-.13-.04-.05-.07-.11-.08-.18-.02-.07-.02-.13,0-.2,.02-.13,.09-.25,.2-.33,.11-.08,.24-.11,.37-.1,0,0,4.68,.63,7-1.55,.1-.09,.23-.14,.36-.14,.13,0,.26,.06,.35,.16,.09,.1,.14,.23,.14,.36s-.06,.26-.16,.35c-1.75,1.61-4.4,1.91-6.11,1.91Z"></path>
  <path d="M348.55,323.73s3.87,7.62,8.09,2.93c0,0,2.22,1.29,4.22-1.52,0,0,2.34,2.23,4-1.29,0,0,4.1,2.7,3.63-9.49-.43-.01-.85,.14-1.18,.42-.33,.28-.53,.67-.58,1.1,0,0-.11-6.44-4-1.64,0,0-3.28-1.17-2.93,3.28,0,0,.47,4-3.28,5.28-.97,.4-2.06,.43-3.05,.08-.99-.35-1.82-1.04-2.34-1.96-1,.8-1.87,1.75-2.58,2.81Z" fill="#fff"></path>
  <path d="M353.73,328.69c-.16,.01-.31,.01-.47,0-3-.4-5.11-4.53-5.2-4.7l-.12-.26,.15-.24c.74-1.11,1.65-2.1,2.69-2.94l.47-.36,.28,.53c.46,.81,1.2,1.43,2.08,1.73,.88,.3,1.85,.27,2.71-.1,.96-.34,1.77-.99,2.3-1.85,.53-.86,.76-1.88,.64-2.89-.13-1.7,.22-2.88,1-3.5,.32-.22,.68-.37,1.06-.44,.38-.07,.77-.06,1.15,.04,1.18-1.4,2.18-1.93,3-1.64s1.27,1.35,1.46,2.3c.41-.34,.93-.51,1.46-.48h.44v.44c.22,5.68-.52,9-2.21,10-.26,.14-.54,.23-.83,.26-.29,.03-.58,0-.86-.1-.2,.44-.49,.83-.85,1.14-.37,.31-.8,.54-1.27,.66-.7,.1-1.41-.06-2-.46-.45,.66-1.1,1.15-1.86,1.41-.76,.26-1.57,.26-2.33,0-.36,.42-.81,.76-1.3,1.01-.5,.25-1.04,.39-1.59,.43Zm-4.63-4.93c.48,.86,2.21,3.63,4.3,3.91,.54,.03,1.09-.08,1.58-.31,.49-.23,.92-.59,1.24-1.03l.28-.3,.35,.2c.07,0,1.87,1,3.56-1.38l.33-.47,.42,.4c.21,.19,.46,.33,.73,.43,.27,.09,.56,.13,.84,.1,.61-.12,1.15-.68,1.62-1.67l.24-.52,.48,.31c.18,.1,.38,.16,.58,.16s.41-.05,.58-.16c.73-.42,1.89-2.09,1.71-8.53-.21,.09-.4,.24-.53,.43-.14,.19-.23,.4-.26,.64l-.9,4.22-.09-4.32c0-1.05-.33-2.7-.94-2.91-.16-.05-.8-.1-2.15,1.57l-.22,.28-.34-.12c-.27-.09-.55-.12-.83-.09-.28,.03-.55,.11-.79,.25-.52,.41-.74,1.31-.64,2.61,0,0,.47,4.39-3.62,5.79-.99,.4-2.08,.46-3.11,.17-1.03-.29-1.92-.92-2.55-1.78-.7,.64-1.34,1.35-1.88,2.13Z"></path>
  <path d="M362.81,300.65s1.05,8.44-6.68,16.17c-.36,.21-.68,.51-.92,.85-.24,.35-.41,.74-.49,1.15-.06,.45,0,.91,.15,1.34,.16,.43,.42,.81,.77,1.11,1.08,.96,1.88,2.19,2.32,3.57,.44,1.38,.49,2.85,.16,4.25-.02,.09-.07,.17-.13,.23-.06,.06-.14,.11-.23,.13-.09,.02-.18,.02-.27,0-.09-.02-.17-.07-.23-.13l-6.29-6.18c-.81-1-1.34-2.2-1.51-3.48-.18-1.28,0-2.58,.51-3.76,.69-1.58,1.22-3.22,1.58-4.9,.46-2.43,1.65-4.85,1.26-6.9" fill="#fff"></path>
  <path d="M357.62,330.01c-.13,0-.26-.02-.38-.07-.12-.05-.23-.12-.33-.22l-6.29-6.19c-.89-1.07-1.46-2.36-1.66-3.73-.2-1.37,0-2.77,.55-4.05,.68-1.56,1.19-3.18,1.52-4.85,.16-.82,.4-1.64,.63-2.44,.52-1.36,.74-2.82,.64-4.27-.01-.07-.01-.13,0-.2,.01-.07,.04-.13,.08-.18,.04-.05,.09-.1,.14-.14s.12-.06,.18-.08c.07-.01,.13-.01,.2,0,.07,.01,.13,.04,.18,.08,.06,.04,.1,.08,.14,.14,.04,.06,.06,.12,.07,.18,.14,1.61-.08,3.23-.66,4.74-.22,.77-.45,1.57-.6,2.35-.35,1.73-.88,3.43-1.58,5.05-.48,1.09-.66,2.3-.5,3.48,.16,1.18,.64,2.3,1.4,3.22l6.27,6.16c.31-1.31,.26-2.69-.14-3.98-.4-1.29-1.15-2.45-2.16-3.35-.41-.35-.72-.8-.91-1.31-.19-.51-.25-1.05-.17-1.59,.09-.48,.28-.93,.55-1.33,.27-.4,.63-.74,1.04-.99,7.41-7.44,6.5-15.63,6.49-15.71-.01-.13,.02-.26,.11-.37,.08-.1,.2-.17,.33-.19,.13-.01,.26,.02,.37,.11,.1,.08,.17,.2,.18,.33,.05,.35,1,8.77-6.82,16.58-.03,.04-.07,.07-.11,.09-.3,.18-.55,.42-.75,.7-.2,.28-.34,.6-.41,.94-.05,.37,0,.75,.13,1.1,.13,.35,.35,.66,.64,.9,1.14,1.02,1.99,2.33,2.45,3.79,.46,1.46,.52,3.02,.17,4.5-.04,.18-.12,.34-.24,.47-.12,.13-.28,.23-.45,.28-.1,.03-.21,.04-.31,.04Z"></path>
  <path d="M444.39,167.93h-.1c-.06-.01-.12-.04-.18-.07-.06-.04-.1-.08-.14-.14-.04-.05-.06-.11-.07-.18-.01-.06-.01-.13,0-.19,1.63-8.3-3.32-12-3.53-12.11-.11-.08-.18-.2-.2-.33-.02-.13,.01-.26,.09-.37,.08-.1,.19-.18,.32-.2s.26,0,.37,.09c.24,.16,5.7,4.15,3.93,13.11-.03,.11-.09,.21-.18,.28-.09,.07-.2,.11-.31,.11Z"></path>
  <path d="M444.55,165.52c-.13,0-.25-.05-.35-.15s-.15-.21-.15-.34c-.09-3.55,1.15-6.99,3.48-9.67,.05-.05,.1-.08,.16-.11s.12-.04,.19-.04,.13,.01,.19,.04c.06,.02,.11,.06,.16,.11,.05,.05,.08,.1,.11,.16,.03,.06,.04,.13,.04,.19s-.01,.13-.04,.19c-.03,.06-.06,.12-.11,.16-2.13,2.51-3.27,5.71-3.2,9,0,.07,0,.13-.03,.19-.02,.06-.06,.12-.1,.17-.04,.05-.1,.09-.16,.12-.06,.03-.12,.04-.19,.05v-.07Z"></path>
  <path d="M440.84,123.01c-.06,0-.12,0-.18,0-1.58-.45-3.23-.59-4.86-.43-1.49,.11-2.98,.11-4.46,0-3.05-.14-6.05-.85-8.84-2.09-.12-.06-.2-.17-.24-.29-.04-.13-.03-.26,.03-.38,.06-.12,.16-.21,.29-.25,.12-.04,.26-.03,.38,.03,2.67,1.18,5.54,1.86,8.46,2,1.43,.11,2.88,.11,4.31,0,1.78-.19,3.58-.03,5.29,.48,.13,.02,.25,.1,.33,.21,.08,.11,.11,.25,.08,.38-.02,.13-.1,.25-.21,.33-.11,.08-.25,.11-.38,.08v-.07Z"></path>
  <path d="M449.98,123.5h-.05c-.13-.01-.25-.08-.33-.17-.08-.1-.13-.23-.12-.36,0-.29,.37-2.76,6.33-2.4,.1,0,8.56,.85,13.13-1.18,.06-.04,.13-.06,.2-.06,.07,0,.14,0,.21,.02,.07,.02,.13,.06,.18,.1,.05,.05,.09,.11,.12,.17,.03,.06,.04,.13,.04,.2,0,.07-.02,.14-.04,.2-.03,.06-.07,.12-.12,.17-.05,.05-.11,.08-.18,.1-4.81,2.14-13.25,1.31-13.61,1.27-4.92-.3-5.25,1.47-5.25,1.49-.02,.12-.08,.23-.17,.31-.09,.08-.21,.13-.33,.13Z"></path>
  <path d="M423.63,54.82v15.19c-2.3-.46-4.06-3.69-4.06-7.6s1.76-7.13,4.06-7.59Z" fill="#fff"></path>
  <path d="M424.13,70.63l-.6-.12c-2.59-.52-4.46-3.92-4.46-8.09s1.87-7.57,4.46-8.09l.6-.12v16.42Zm-1-15.12c-1.78,.82-3.06,3.63-3.06,6.91s1.28,6.08,3.06,6.91v-13.82Z"></path>
  <path d="M467.69,61.35c0,4.23-2.07,7.66-4.64,7.66h-.25v-15.32h.25c2.57-.01,4.64,3.42,4.64,7.66Z" fill="#fff"></path>
  <path d="M463.05,69.51h-.75v-16.32h.75c2.88,0,5.14,3.59,5.14,8.17s-2.26,8.15-5.14,8.15Zm.25-15.31v14.3c2.16-.22,3.89-3.34,3.89-7.15s-1.73-6.93-3.89-7.15Z"></path>
  <path d="M460.02,230.45s6.11,19.27,3.29,29.41c1.02,.27,2.08,.38,3.13,.33,1.3-.05,2.54-.61,3.43-1.56,.9-.95,1.39-2.21,1.37-3.52-.15-6.36-1.57-18.61-9.5-27.65v1c0,.48-.16,.94-.46,1.31-.31,.37-.73,.61-1.21,.69h-.05Z" fill="#c7404e"></path>
  <path d="M466.13,260.7c-1.01,.02-2.02-.1-3-.37l-.45-.15,.13-.46c2.75-9.87-3.23-28.93-3.29-29.12l-.18-.58,.65-.07c.35-.06,.66-.24,.89-.51,.23-.27,.35-.61,.34-.97v-2.34l.88,1c8,9.13,9.46,21.44,9.62,28,.03,1.46-.51,2.87-1.52,3.93-.49,.51-1.07,.92-1.72,1.21s-1.34,.44-2.05,.45l-.3-.02Zm-2.21-1.21c.83,.16,1.67,.23,2.51,.2,.57,0,1.14-.13,1.67-.37,.53-.23,1-.57,1.39-.98,.83-.87,1.28-2.02,1.25-3.22-.15-6.15-1.47-17.54-8.52-26.32-.06,.44-.23,.86-.51,1.22-.28,.35-.64,.62-1.06,.78,.95,3.13,5.58,19.21,3.27,28.69Z"></path>
  <path d="M460.23,231.01l.26,24.66s-.21,4.49,2.82,4.18c0,0,2-5.12-.21-16.83-.73-4.05-1.69-8.06-2.87-12.01Z" fill="#231f20"></path>
  <path d="M459.67,221.92h-2.86c-1.14,0-2.07,.93-2.07,2.07v4.95c0,1.14,.93,2.07,2.07,2.07h2.86c1.14,0,2.07-.93,2.07-2.07v-4.95c0-1.14-.93-2.07-2.07-2.07Z" fill="#fff"></path>
  <path d="M459.67,231.51h-2.86c-.68,0-1.33-.27-1.82-.75s-.75-1.14-.75-1.82v-5c0-.68,.27-1.33,.76-1.81,.48-.48,1.13-.75,1.81-.75h2.86c.68,0,1.33,.27,1.81,.75,.48,.48,.75,1.13,.76,1.81v5c0,.68-.27,1.34-.75,1.82-.48,.48-1.13,.75-1.82,.75Zm-2.86-9.09c-.21,0-.41,.04-.6,.12-.19,.08-.36,.19-.51,.34-.14,.15-.26,.32-.34,.51-.08,.19-.12,.39-.12,.6v5c0,.42,.16,.82,.46,1.11,.29,.29,.69,.46,1.11,.46h2.86c.42,0,.82-.17,1.11-.46s.46-.69,.46-1.11v-5c0-.21-.04-.41-.12-.6-.08-.19-.19-.36-.34-.51-.15-.14-.32-.26-.51-.34-.19-.08-.39-.12-.6-.12h-2.86Z"></path>
  <path d="M336.07,381.17c0,.5-.1,.99-.28,1.45-.19,.46-.47,.88-.82,1.23-.35,.35-.77,.63-1.22,.82-.46,.19-.95,.29-1.44,.29-.86,0-1.69-.29-2.36-.83-.5-.4-.88-.92-1.13-1.51-.24-.59-.33-1.23-.26-1.86,.07-.63,.3-1.24,.67-1.76,.37-.52,.86-.94,1.44-1.21,.57-.28,1.21-.4,1.84-.37,.64,.04,1.25,.23,1.79,.57,.54,.34,.98,.81,1.29,1.36,.31,.56,.47,1.18,.47,1.82Z"></path>
  <path d="M349.1,428.1c-5.74-2.57-13.29,0-13.29,0-3.62-13.88,1.21-26.71,1.21-26.71,1.18-3.37,1.57-6.96,1.15-10.51l.24,.65c.85,.49,1.85,.64,2.8,.4s1.77-.84,2.29-1.67c-.17,2.77,.58,5.51,2.13,7.81,9.35,13.88,3.47,30.03,3.47,30.03Z" fill="#fff"></path>
  <path d="M349.38,428.78l-.49-.22c-5.49-2.46-12.84,0-12.91,0l-.51,.17-.14-.52c-3.62-13.88,1.18-26.89,1.23-27,1.12-3.28,1.5-6.76,1.12-10.2l1-.26,.17,.47c.46,.24,.96,.36,1.48,.36,.56,0,1.1-.14,1.59-.41,.49-.27,.9-.66,1.19-1.13l1.09-1.74-.16,2c-.16,2.64,.54,5.26,2,7.47,9.4,13.95,3.6,30.34,3.54,30.5l-.2,.51Zm-10.57-36.51c.14,3.15-.3,6.29-1.31,9.28-.06,.14-4.62,12.55-1.33,25.92,1.77-.52,7.67-2,12.62,0,.87-2.81,4.61-16.93-3.58-29.08-1.35-2-2.13-4.34-2.24-6.75-.58,.45-1.27,.74-2,.85-.73,.11-1.47,.03-2.16-.22Z"></path>
  <path d="M344.07,388.27c0,.75-.22,1.48-.64,2.1-.42,.62-1.01,1.11-1.7,1.39-.69,.29-1.45,.36-2.18,.22-.73-.15-1.41-.51-1.94-1.03-.53-.53-.89-1.2-1.03-1.94-.15-.73-.07-1.49,.22-2.18,.29-.69,.77-1.28,1.39-1.7,.62-.42,1.35-.64,2.1-.64,.5,0,.99,.09,1.45,.28,.46,.19,.88,.47,1.23,.82,.35,.35,.63,.77,.82,1.23,.19,.46,.28,.95,.28,1.45Z"></path>
  <path d="M438.95,51.61c-.11,0-.22-.04-.31-.11-4.37-3.45-7.76-.49-7.9-.36-.05,.05-.11,.09-.17,.11-.06,.03-.13,.04-.2,.04-.07,0-.13-.02-.2-.04-.06-.03-.12-.07-.16-.12-.05-.05-.08-.11-.1-.17-.02-.06-.03-.13-.03-.2,0-.07,.02-.13,.06-.19,.03-.06,.08-.11,.13-.16,0,0,4.14-3.68,9.19,.32,.05,.04,.1,.09,.13,.15s.05,.12,.06,.19c0,.07,0,.13-.02,.19-.02,.06-.05,.12-.09,.17-.05,.06-.1,.11-.17,.14-.07,.03-.14,.05-.22,.05Z"></path>
  <path d="M455.55,54.66c-.09,0-.17-.02-.25-.06-.07-.04-.14-.1-.18-.18-3.46-5.85-8.65-2.91-8.87-2.78-.06,.04-.12,.07-.19,.08-.07,.01-.14,.01-.21,0-.07-.01-.13-.04-.19-.08-.06-.04-.1-.09-.14-.15-.04-.06-.06-.13-.07-.2,0-.07,0-.14,.02-.21,.02-.07,.06-.13,.1-.18,.05-.05,.1-.09,.17-.12,.87-.49,1.83-.8,2.83-.91,1-.11,2-.01,2.96,.28,.96,.29,1.85,.78,2.61,1.42,.76,.65,1.39,1.44,1.83,2.34,.03,.06,.06,.12,.07,.18,0,.06,0,.13-.01,.19s-.05,.12-.09,.17c-.04,.05-.09,.1-.15,.13-.07,.05-.16,.07-.25,.07Z"></path>
  <path d="M433.32,59.88c.77,0,1.39-1.1,1.39-2.46s-.62-2.46-1.39-2.46-1.39,1.1-1.39,2.46,.62,2.46,1.39,2.46Z"></path>
  <path d="M449.62,60.88c.77,0,1.39-1.1,1.39-2.46s-.62-2.46-1.39-2.46-1.39,1.1-1.39,2.46,.62,2.46,1.39,2.46Z"></path>
  <path d="M445.38,70.31h-.09l-4.87-.81c-.13-.02-.24-.09-.32-.19-.08-.1-.11-.23-.1-.36l1.31-11c.01-.13,.08-.25,.18-.33,.1-.08,.24-.12,.37-.11,.13,.02,.25,.09,.33,.19,.08,.1,.12,.24,.11,.37l-1.25,10.51,4.41,.73c.13,.02,.25,.1,.32,.21,.08,.11,.11,.24,.09,.37-.02,.12-.08,.22-.17,.3-.09,.08-.2,.12-.32,.12Z"></path>
  <path d="M443.68,80.27h-.32c-3.75-.18-6.4-3.49-6.51-3.63-.08-.11-.12-.24-.1-.37s.08-.25,.18-.34c.1-.08,.24-.12,.37-.1,.13,.02,.25,.09,.33,.19,0,0,2.49,3.1,5.78,3.25,1.02,0,2.03-.22,2.95-.66,.92-.44,1.74-1.07,2.39-1.86,.09-.08,.22-.13,.34-.13,.13,0,.25,.05,.34,.14,.09,.09,.15,.21,.15,.33,0,.13-.03,.25-.11,.35-.72,.85-1.6,1.54-2.6,2.02-1,.49-2.08,.76-3.19,.81Z"></path>
  <path d="M463.4,64.01c-.12,0-.23-.04-.32-.11-.09-.07-.15-.17-.18-.29-.25-.91-.18-1.88,.2-2.75,.38-.87,1.04-1.58,1.88-2.02,.12-.04,.25-.04,.37,0,.12,.05,.21,.14,.26,.26,.05,.12,.06,.25,.02,.37-.04,.12-.13,.22-.24,.28-.35,.18-.65,.42-.9,.72-.25,.3-.43,.65-.54,1.02,.31-.15,.66-.2,1-.14,.13,.02,.25,.09,.33,.19,.08,.1,.12,.24,.1,.37-.02,.13-.09,.24-.2,.32-.1,.08-.23,.12-.36,.11-.09-.02-.17-.02-.26,0-.08,.02-.16,.06-.23,.12-.25,.3-.39,.68-.39,1.07,0,.12-.06,.24-.14,.33-.08,.09-.2,.14-.32,.15h-.08Z"></path>
  <path d="M423.55,64.64c-.12,0-.24-.06-.33-.15-.09-.09-.13-.21-.13-.34,0-.39-.15-.77-.4-1.07-.07-.05-.15-.09-.23-.11s-.17-.02-.26,0c-.13,.01-.26-.03-.36-.11-.1-.08-.17-.2-.2-.32-.02-.13,.02-.26,.1-.37,.08-.11,.2-.17,.33-.19,.34-.06,.69,0,1,.14-.12-.38-.32-.73-.58-1.03-.26-.3-.58-.54-.94-.71-.06-.03-.11-.06-.16-.11-.05-.05-.08-.1-.11-.16-.05-.12-.05-.26,0-.38,.05-.12,.15-.22,.28-.27,.12-.05,.26-.05,.38,0,.84,.44,1.5,1.15,1.88,2.02,.38,.87,.45,1.84,.2,2.75-.02,.11-.08,.21-.17,.29-.09,.07-.2,.12-.31,.12Z"></path>
  <path d="M360.86,324.9c-.09,0-.17-.02-.25-.06-.11-.07-.2-.18-.23-.31-.03-.13-.02-.27,.05-.38,1.6-3.01,2.21-6.45,1.77-9.83-.01-.07,0-.13,0-.2,.01-.06,.04-.12,.08-.18,.04-.05,.09-.1,.14-.13,.06-.03,.12-.06,.18-.07,.13-.02,.26,.01,.37,.09,.11,.08,.18,.19,.2,.32,.5,3.61-.16,7.29-1.89,10.5-.04,.07-.11,.14-.18,.18-.08,.04-.16,.06-.25,.06Z"></path>
</svg>
