<svg width="648" height="427" viewBox="0 0 648 427" fill="none" xmlns="http://www.w3.org/2000/svg">
<g clip-path="url(#clip0_1986_111)">
<rect width="648" height="427" fill="white"/>
<rect width="648" height="427" fill="#F8AF23"/>
<path d="M48.06 119.44C43.14 119.44 38.7 118.66 34.74 117.1C30.78 115.48 27.48 113.14 24.84 110.08L36.27 96.58C37.95 98.62 39.6 100.18 41.22 101.26C42.84 102.28 44.52 102.79 46.26 102.79C50.82 102.79 53.1 100.18 53.1 94.96V71.02H31.68V55H74.07V93.7C74.07 102.34 71.85 108.79 67.41 113.05C62.97 117.31 56.52 119.44 48.06 119.44ZM112.97 118V109.27L111.53 106.93V90.37C111.53 87.97 110.78 86.14 109.28 84.88C107.84 83.62 105.47 82.99 102.17 82.99C99.9497 82.99 97.6997 83.35 95.4197 84.07C93.1397 84.73 91.1897 85.66 89.5697 86.86L83.0897 73.45C85.9697 71.65 89.4197 70.27 93.4397 69.31C97.4597 68.35 101.39 67.87 105.23 67.87C113.69 67.87 120.23 69.76 124.85 73.54C129.53 77.32 131.87 83.32 131.87 91.54V118H112.97ZM99.0197 118.9C94.9997 118.9 91.6397 118.21 88.9397 116.83C86.2397 115.45 84.1997 113.62 82.8197 111.34C81.4397 109 80.7497 106.42 80.7497 103.6C80.7497 100.42 81.5597 97.72 83.1797 95.5C84.7997 93.28 87.2597 91.6 90.5597 90.46C93.9197 89.32 98.1497 88.75 103.25 88.75H113.51V98.56H106.49C104.33 98.56 102.74 98.92 101.72 99.64C100.76 100.3 100.28 101.32 100.28 102.7C100.28 103.84 100.7 104.8 101.54 105.58C102.44 106.3 103.64 106.66 105.14 106.66C106.52 106.66 107.78 106.3 108.92 105.58C110.12 104.8 110.99 103.6 111.53 101.98L114.14 108.01C113.36 111.67 111.71 114.4 109.19 116.2C106.67 118 103.28 118.9 99.0197 118.9ZM153.731 118L133.931 68.77H154.811L169.841 108.73H159.311L175.331 68.77H194.591L174.791 118H153.731ZM225.733 118V109.27L224.293 106.93V90.37C224.293 87.97 223.543 86.14 222.043 84.88C220.603 83.62 218.233 82.99 214.933 82.99C212.713 82.99 210.463 83.35 208.183 84.07C205.903 84.73 203.953 85.66 202.333 86.86L195.853 73.45C198.733 71.65 202.183 70.27 206.203 69.31C210.223 68.35 214.153 67.87 217.993 67.87C226.453 67.87 232.993 69.76 237.613 73.54C242.293 77.32 244.633 83.32 244.633 91.54V118H225.733ZM211.783 118.9C207.763 118.9 204.403 118.21 201.703 116.83C199.003 115.45 196.963 113.62 195.583 111.34C194.203 109 193.513 106.42 193.513 103.6C193.513 100.42 194.323 97.72 195.943 95.5C197.563 93.28 200.023 91.6 203.323 90.46C206.683 89.32 210.913 88.75 216.013 88.75H226.273V98.56H219.253C217.093 98.56 215.503 98.92 214.483 99.64C213.523 100.3 213.043 101.32 213.043 102.7C213.043 103.84 213.463 104.8 214.303 105.58C215.203 106.3 216.403 106.66 217.903 106.66C219.283 106.66 220.543 106.3 221.683 105.58C222.883 104.8 223.753 103.6 224.293 101.98L226.903 108.01C226.123 111.67 224.473 114.4 221.953 116.2C219.433 118 216.043 118.9 211.783 118.9ZM277.544 119.44C272.264 119.44 267.164 118.84 262.244 117.64C257.324 116.44 253.274 114.88 250.094 112.96L256.934 97.48C259.934 99.22 263.264 100.63 266.924 101.71C270.644 102.73 274.244 103.24 277.724 103.24C279.764 103.24 281.354 103.12 282.494 102.88C283.694 102.58 284.564 102.19 285.104 101.71C285.644 101.17 285.914 100.54 285.914 99.82C285.914 98.68 285.284 97.78 284.024 97.12C282.764 96.46 281.084 95.92 278.984 95.5C276.944 95.02 274.694 94.54 272.234 94.06C269.774 93.52 267.284 92.83 264.764 91.99C262.304 91.15 260.024 90.04 257.924 88.66C255.884 87.28 254.234 85.48 252.974 83.26C251.714 80.98 251.084 78.16 251.084 74.8C251.084 70.9 252.164 67.36 254.324 64.18C256.544 60.94 259.814 58.36 264.134 56.44C268.514 54.52 273.944 53.56 280.424 53.56C284.684 53.56 288.884 54.01 293.024 54.91C297.164 55.81 300.884 57.19 304.184 59.05L297.794 74.44C294.674 72.88 291.644 71.71 288.704 70.93C285.824 70.15 283.004 69.76 280.244 69.76C278.204 69.76 276.584 69.94 275.384 70.3C274.184 70.66 273.314 71.14 272.774 71.74C272.294 72.34 272.054 73 272.054 73.72C272.054 74.8 272.684 75.67 273.944 76.33C275.204 76.93 276.854 77.44 278.894 77.86C280.994 78.28 283.274 78.73 285.734 79.21C288.254 79.69 290.744 80.35 293.204 81.19C295.664 82.03 297.914 83.14 299.954 84.52C302.054 85.9 303.734 87.7 304.994 89.92C306.254 92.14 306.884 94.9 306.884 98.2C306.884 102.04 305.774 105.58 303.554 108.82C301.394 112 298.154 114.58 293.834 116.56C289.514 118.48 284.084 119.44 277.544 119.44ZM339.034 118.9C333.394 118.9 328.384 117.82 324.004 115.66C319.624 113.5 316.174 110.5 313.654 106.66C311.194 102.76 309.964 98.32 309.964 93.34C309.964 88.36 311.194 83.95 313.654 80.11C316.174 76.27 319.624 73.27 324.004 71.11C328.384 68.95 333.394 67.87 339.034 67.87C345.034 67.87 350.164 69.16 354.424 71.74C358.684 74.32 361.624 77.89 363.244 82.45L347.494 90.19C346.474 87.91 345.214 86.26 343.714 85.24C342.274 84.22 340.684 83.71 338.944 83.71C337.444 83.71 336.034 84.07 334.714 84.79C333.454 85.51 332.434 86.59 331.654 88.03C330.934 89.41 330.574 91.18 330.574 93.34C330.574 95.5 330.934 97.3 331.654 98.74C332.434 100.18 333.454 101.26 334.714 101.98C336.034 102.7 337.444 103.06 338.944 103.06C340.684 103.06 342.274 102.55 343.714 101.53C345.214 100.51 346.474 98.86 347.494 96.58L363.244 104.32C361.624 108.88 358.684 112.45 354.424 115.03C350.164 117.61 345.034 118.9 339.034 118.9ZM367.945 118V68.77H387.295V83.62L384.145 79.39C385.645 75.55 388.045 72.67 391.345 70.75C394.645 68.83 398.605 67.87 403.225 67.87V85.87C402.325 85.75 401.515 85.66 400.795 85.6C400.135 85.54 399.445 85.51 398.725 85.51C395.665 85.51 393.145 86.32 391.165 87.94C389.245 89.5 388.285 92.23 388.285 96.13V118H367.945ZM408.99 118V68.77H429.33V118H408.99ZM419.16 64.81C415.44 64.81 412.47 63.82 410.25 61.84C408.03 59.86 406.92 57.4 406.92 54.46C406.92 51.52 408.03 49.06 410.25 47.08C412.47 45.1 415.44 44.11 419.16 44.11C422.88 44.11 425.85 45.04 428.07 46.9C430.29 48.76 431.4 51.16 431.4 54.1C431.4 57.22 430.29 59.8 428.07 61.84C425.85 63.82 422.88 64.81 419.16 64.81ZM471.196 118.9C466.936 118.9 463.396 118 460.576 116.2C457.816 114.34 455.776 111.55 454.456 107.83C453.136 104.05 452.476 99.25 452.476 93.43C452.476 87.49 453.076 82.66 454.276 78.94C455.536 75.16 457.546 72.37 460.306 70.57C463.066 68.77 466.696 67.87 471.196 67.87C475.516 67.87 479.476 68.92 483.076 71.02C486.676 73.06 489.556 76 491.716 79.84C493.876 83.62 494.956 88.15 494.956 93.43C494.956 98.71 493.876 103.27 491.716 107.11C489.556 110.89 486.676 113.8 483.076 115.84C479.476 117.88 475.516 118.9 471.196 118.9ZM438.346 135.46V68.77H457.696V75.43L457.786 93.43L458.686 111.43V135.46H438.346ZM466.336 103.06C467.836 103.06 469.186 102.7 470.386 101.98C471.586 101.26 472.546 100.18 473.266 98.74C473.986 97.3 474.346 95.53 474.346 93.43C474.346 91.27 473.986 89.47 473.266 88.03C472.546 86.59 471.586 85.51 470.386 84.79C469.186 84.07 467.836 83.71 466.336 83.71C464.836 83.71 463.486 84.07 462.286 84.79C461.086 85.51 460.126 86.59 459.406 88.03C458.686 89.47 458.326 91.27 458.326 93.43C458.326 95.53 458.686 97.3 459.406 98.74C460.126 100.18 461.086 101.26 462.286 101.98C463.486 102.7 464.836 103.06 466.336 103.06ZM525.123 118.9C518.343 118.9 513.063 117.28 509.283 114.04C505.503 110.74 503.613 105.7 503.613 98.92V57.7H523.953V98.74C523.953 100.24 524.343 101.41 525.123 102.25C525.963 103.09 526.983 103.51 528.183 103.51C529.923 103.51 531.453 103.06 532.773 102.16L537.633 116.29C536.073 117.19 534.183 117.85 531.963 118.27C529.803 118.69 527.523 118.9 525.123 118.9ZM496.863 86.32V71.47H534.033V86.32H496.863Z" fill="#A77618"/>
<path d="M484.118 229.044C489.714 229.044 494.25 224.508 494.25 218.912C494.25 213.317 489.714 208.78 484.118 208.78C478.522 208.78 473.986 213.317 473.986 218.912C473.986 224.508 478.522 229.044 484.118 229.044Z" fill="#F8AF23"/>
<path d="M413.981 229.044C419.577 229.044 424.113 224.508 424.113 218.912C424.113 213.317 419.577 208.78 413.981 208.78C408.385 208.78 403.849 213.317 403.849 218.912C403.849 224.508 408.385 229.044 413.981 229.044Z" fill="#F87023"/>
<path d="M526.374 373.439H371.727V322.236C371.727 290.88 397.145 265.462 428.501 265.462H469.601C500.956 265.462 526.375 290.88 526.375 322.236L526.374 373.439Z" fill="#63BCE7"/>
<path d="M444.828 265.462H428.501C397.145 265.462 371.727 290.88 371.727 322.236V373.438H388.055V322.236C388.055 290.88 413.473 265.462 444.828 265.462Z" fill="#6377E7"/>
<path d="M449.05 275.855C440.749 275.855 434.02 269.127 434.02 260.826V248.58C434.02 240.279 440.749 233.551 449.05 233.551C457.35 233.551 464.079 240.279 464.079 248.58V260.826C464.079 269.127 457.35 275.855 449.05 275.855Z" fill="#F8AF23"/>
<path d="M434.02 248.58V260.826C434.02 267.228 438.03 272.68 443.669 274.846V234.561C438.03 236.727 434.02 242.179 434.02 248.58Z" fill="#F87023"/>
<path d="M367.173 287.545H530.927V380.857H367.173V287.545Z" fill="#CECECE"/>
<path d="M367.173 287.545H383.502V380.857H367.173V287.545Z" fill="#AFAFAF"/>
<path d="M527.065 392.75H371.035C366.293 392.75 361.82 390.547 358.928 386.788L354.366 380.857H543.735L539.173 386.788C536.281 390.548 531.808 392.75 527.065 392.75Z" fill="#CECECE"/>
<path d="M375.256 386.788L370.693 380.857H354.365L358.927 386.788C361.818 390.547 366.292 392.75 371.034 392.75H387.363C382.621 392.75 378.148 390.548 375.256 386.788Z" fill="#AFAFAF"/>
<path d="M449.05 342.435C453.85 342.435 457.741 338.544 457.741 333.744C457.741 328.944 453.85 325.052 449.05 325.052C444.249 325.052 440.358 328.944 440.358 333.744C440.358 338.544 444.249 342.435 449.05 342.435Z" fill="#AFAFAF"/>
<path d="M449.05 258.043C429.682 258.043 413.981 242.342 413.981 222.975V205.162C413.981 185.794 429.682 170.094 449.05 170.094C468.417 170.094 484.118 185.794 484.118 205.162V222.975C484.118 242.342 468.417 258.043 449.05 258.043Z" fill="#F8AF23"/>
<path d="M430.31 222.975V205.162C430.31 188.607 441.786 174.739 457.214 171.059C454.594 170.433 451.863 170.094 449.051 170.094C429.683 170.094 413.982 185.794 413.982 205.162V222.975C413.982 242.342 429.683 258.043 449.051 258.043C451.863 258.043 454.594 257.702 457.214 257.078C441.786 253.397 430.31 239.53 430.31 222.975Z" fill="#F87023"/>
<path d="M413.981 214.068H419.269L428.871 199.039L484.118 210.033V193.102C484.118 173.734 468.417 158.034 449.05 158.034C429.682 158.034 413.981 173.734 413.981 193.102V214.068Z" fill="#707070"/>
<path d="M457.214 158.999C454.594 158.373 451.863 158.034 449.051 158.034C429.683 158.034 413.982 173.734 413.982 193.102V214.068H419.271L428.873 199.039L430.311 199.325V193.102C430.31 176.546 441.786 162.679 457.214 158.999Z" fill="#5B5B5B"/>
<path d="M434.857 228.091C436.766 228.091 438.313 226.544 438.313 224.636C438.313 222.727 436.766 221.18 434.857 221.18C432.949 221.18 431.402 222.727 431.402 224.636C431.402 226.544 432.949 228.091 434.857 228.091Z" fill="#3F3679"/>
<path d="M463.243 228.091C465.151 228.091 466.698 226.544 466.698 224.636C466.698 222.727 465.151 221.18 463.243 221.18C461.334 221.18 459.787 222.727 459.787 224.636C459.787 226.544 461.334 228.091 463.243 228.091Z" fill="#3F3679"/>
<path d="M597.599 251.33H509.22C505.335 251.33 502.184 248.18 502.184 244.294V170.599C502.184 166.714 505.335 163.563 509.22 163.563H597.599C601.484 163.563 604.635 166.714 604.635 170.599V244.294C604.635 248.181 601.484 251.33 597.599 251.33Z" fill="#CECECE"/>
<path d="M597.599 163.563H581.271C585.156 163.563 588.306 166.714 588.306 170.599V244.294C588.306 248.18 585.156 251.33 581.271 251.33H597.599C601.484 251.33 604.635 248.18 604.635 244.294V170.599C604.635 166.714 601.484 163.563 597.599 163.563Z" fill="#E2E2E2"/>
<path d="M604.635 170.595C604.635 166.712 601.488 163.564 597.605 163.564H509.216C505.333 163.564 502.185 166.712 502.185 170.595V182.83H604.636V170.595H604.635Z" fill="#F8AF23"/>
<path d="M597.603 163.563H581.275C585.158 163.563 588.305 166.712 588.305 170.594V182.829H604.634V170.595C604.635 166.712 601.487 163.563 597.603 163.563Z" fill="#F8D323"/>
<path d="M514.734 176.407C516.507 176.407 517.945 174.97 517.945 173.197C517.945 171.423 516.507 169.986 514.734 169.986C512.961 169.986 511.523 171.423 511.523 173.197C511.523 174.97 512.961 176.407 514.734 176.407Z" fill="#F46275"/>
<path d="M527.102 176.407C528.875 176.407 530.312 174.97 530.312 173.197C530.312 171.423 528.875 169.986 527.102 169.986C525.328 169.986 523.891 171.423 523.891 173.197C523.891 174.97 525.328 176.407 527.102 176.407Z" fill="#F46275"/>
<path d="M539.47 176.407C541.243 176.407 542.681 174.97 542.681 173.197C542.681 171.423 541.243 169.986 539.47 169.986C537.697 169.986 536.26 171.423 536.26 173.197C536.26 174.97 537.697 176.407 539.47 176.407Z" fill="#F46275"/>
<path d="M593.311 175.853H551.757C550.666 175.853 549.772 174.96 549.772 173.869V172.945C549.772 171.854 550.665 170.961 551.757 170.961H593.311C594.402 170.961 595.296 171.854 595.296 172.945V173.869C595.295 174.96 594.402 175.853 593.311 175.853Z" fill="#F46275"/>
<path d="M521.23 207.447H585.588L579.493 266.785L553.409 274.314L526.788 266.785L521.23 207.447Z" fill="#F8AF23"/>
<path d="M367.418 403.296H347.376C346.453 403.296 345.706 404.043 345.706 404.966C345.706 405.889 346.453 406.636 347.376 406.636H367.418C368.341 406.636 369.088 405.889 369.088 404.966C369.088 404.043 368.341 403.296 367.418 403.296Z" fill="#3F3679"/>
<path d="M611.624 403.296H591.582C590.659 403.296 589.912 404.043 589.912 404.966C589.912 405.889 590.659 406.636 591.582 406.636H611.624C612.547 406.636 613.294 405.889 613.294 404.966C613.294 404.043 612.547 403.296 611.624 403.296Z" fill="#3F3679"/>
<path d="M580.229 403.296H378.771C377.849 403.296 377.102 404.043 377.102 404.966C377.102 405.889 377.849 406.636 378.771 406.636H580.23C581.153 406.636 581.9 405.889 581.9 404.966C581.9 404.043 581.152 403.296 580.229 403.296Z" fill="#3F3679"/>
<path d="M611.624 394.42C612.547 394.42 613.294 393.673 613.294 392.75C613.294 391.827 612.547 391.08 611.624 391.08H537.107C538.37 390.152 539.526 389.067 540.496 387.807L545.058 381.876C545.446 381.371 545.513 380.691 545.233 380.12C544.952 379.549 544.371 379.188 543.734 379.188H532.597V335.871H553.41C554.332 335.871 555.079 335.124 555.079 334.202V275.569L579.956 268.389C580.61 268.201 581.085 267.633 581.154 266.955L582.586 253H597.598C602.398 253 606.304 249.095 606.304 244.294V170.599C606.304 165.799 602.398 161.893 597.598 161.893H509.219C504.419 161.893 500.513 165.799 500.513 170.599V244.294C500.513 249.095 504.419 253 509.219 253H523.819L525.124 266.939C525.189 267.626 525.669 268.203 526.332 268.391L551.739 275.576V332.531H532.596V287.545C532.596 286.622 531.849 285.875 530.926 285.875H515.356C504.19 271.841 487.513 263.792 469.6 263.792H465.469C465.643 262.828 465.749 261.839 465.749 260.826V255.682C475.43 250.719 482.633 241.59 484.971 230.672C491.08 230.232 495.921 225.132 495.921 218.912C495.921 212.973 491.507 208.058 485.789 207.243V205.162V193.102C485.789 172.845 469.308 156.364 449.051 156.364C428.793 156.364 412.312 172.845 412.312 193.102V205.162V207.241C406.574 208.06 402.18 213.039 402.18 218.912C402.18 225.132 407.021 230.232 413.131 230.672C415.468 241.59 422.671 250.719 432.352 255.682V260.826C432.352 261.839 432.458 262.828 432.632 263.792H428.502C410.567 263.792 393.924 271.84 382.757 285.875H367.173C366.25 285.875 365.503 286.622 365.503 287.545V379.187H354.366C353.73 379.187 353.149 379.549 352.868 380.119C352.586 380.689 352.654 381.37 353.042 381.874L357.605 387.806C358.574 389.067 359.73 390.151 360.993 391.079H347.376C346.453 391.079 345.706 391.826 345.706 392.749C345.706 393.672 346.453 394.419 347.376 394.419H371.035H527.065L611.624 394.42ZM509.219 165.233H597.598C600.557 165.233 602.964 167.64 602.964 170.599V181.159H503.853V170.599C503.853 167.641 506.261 165.233 509.219 165.233ZM509.219 249.66C506.26 249.66 503.853 247.253 503.853 244.294V184.5H602.964V244.295C602.964 247.254 600.557 249.661 597.598 249.661H582.929L587.248 207.618C587.296 207.148 587.143 206.68 586.826 206.329C586.51 205.978 586.059 205.778 585.587 205.778H521.23C520.76 205.778 520.312 205.976 519.996 206.323C519.679 206.671 519.524 207.135 519.567 207.603L523.506 249.66H509.219ZM523.064 209.117H583.736L577.946 265.492L553.404 272.576L528.343 265.488L523.064 209.117ZM492.581 218.912C492.581 223.096 489.526 226.572 485.533 227.247C485.696 225.845 485.789 224.421 485.789 222.975V210.617C489.658 211.395 492.581 214.818 492.581 218.912ZM415.651 193.102C415.651 174.686 430.634 159.704 449.049 159.704C467.465 159.704 482.448 174.686 482.448 193.102V205.162V207.998L429.197 197.402C428.521 197.265 427.835 197.561 427.464 198.141L418.355 212.399H415.652V205.162L415.651 193.102ZM405.519 218.912C405.519 214.862 408.431 211.406 412.311 210.623V214.068V222.975C412.311 224.421 412.405 225.845 412.567 227.247C408.574 226.572 405.519 223.096 405.519 218.912ZM415.651 222.975V215.738H419.269C419.839 215.738 420.369 215.448 420.676 214.968L429.664 200.901L482.448 211.404V222.975C482.448 241.391 467.465 256.373 449.049 256.373C430.634 256.373 415.651 241.391 415.651 222.975ZM449.049 259.713C453.762 259.713 458.265 258.811 462.409 257.188V260.826C462.409 268.193 456.416 274.186 449.049 274.186C441.683 274.186 435.69 268.193 435.69 260.826V257.188C439.835 258.811 444.338 259.713 449.049 259.713ZM428.499 267.132H433.596C436.09 273.222 442.074 277.526 449.049 277.526C456.025 277.526 462.009 273.222 464.503 267.132H469.6C485.581 267.132 500.512 273.934 510.992 285.875H387.095C397.575 273.926 412.495 267.132 428.499 267.132ZM368.843 289.215H529.257V379.187H368.843V289.215ZM371.035 391.08C366.84 391.08 362.809 389.095 360.252 385.77L357.757 382.527H367.173H530.927H540.343L537.848 385.77C535.291 389.094 531.26 391.08 527.065 391.08H371.035Z" fill="#3F3679"/>
<path d="M449.05 323.384C443.336 323.384 438.688 328.032 438.688 333.745C438.688 339.457 443.336 344.105 449.05 344.105C454.763 344.105 459.411 339.457 459.411 333.745C459.411 328.031 454.763 323.384 449.05 323.384ZM449.05 340.764C445.178 340.764 442.028 337.615 442.028 333.744C442.028 329.872 445.178 326.723 449.05 326.723C452.922 326.723 456.071 329.872 456.071 333.744C456.071 337.615 452.922 340.764 449.05 340.764Z" fill="#3F3679"/>
<path d="M449.05 236.424C449.972 236.424 450.719 235.677 450.719 234.754V228.969C450.719 228.046 449.972 227.299 449.05 227.299C448.127 227.299 447.38 228.046 447.38 228.969V234.754C447.38 235.677 448.128 236.424 449.05 236.424Z" fill="#3F3679"/>
<path d="M455.598 243.316C456.206 242.622 456.137 241.567 455.443 240.959C454.748 240.351 453.695 240.42 453.086 241.113C452.062 242.281 450.59 242.951 449.049 242.951C447.509 242.951 446.037 242.281 445.013 241.113C444.404 240.42 443.348 240.351 442.656 240.959C441.963 241.567 441.893 242.622 442.501 243.316C444.16 245.206 446.547 246.29 449.049 246.29C451.552 246.29 453.94 245.206 455.598 243.316Z" fill="#3F3679"/>
<path d="M439.755 216.06H429.96C429.037 216.06 428.29 216.807 428.29 217.73C428.29 218.653 429.037 219.4 429.96 219.4H439.755C440.678 219.4 441.425 218.653 441.425 217.73C441.425 216.807 440.678 216.06 439.755 216.06Z" fill="#3F3679"/>
<path d="M458.345 219.4H468.14C469.063 219.4 469.81 218.653 469.81 217.73C469.81 216.807 469.063 216.06 468.14 216.06H458.345C457.423 216.06 456.676 216.807 456.676 217.73C456.676 218.653 457.423 219.4 458.345 219.4Z" fill="#3F3679"/>
<path d="M514.734 178.077C517.425 178.077 519.615 175.887 519.615 173.197C519.615 170.506 517.425 168.316 514.734 168.316C512.043 168.316 509.854 170.506 509.854 173.197C509.854 175.887 512.042 178.077 514.734 178.077ZM514.734 171.656C515.584 171.656 516.275 172.347 516.275 173.197C516.275 174.046 515.584 174.737 514.734 174.737C513.885 174.737 513.193 174.046 513.193 173.197C513.193 172.347 513.885 171.656 514.734 171.656Z" fill="#3F3679"/>
<path d="M527.102 178.077C529.792 178.077 531.982 175.887 531.982 173.197C531.982 170.506 529.792 168.316 527.102 168.316C524.411 168.316 522.221 170.506 522.221 173.197C522.221 175.887 524.411 178.077 527.102 178.077ZM527.102 171.656C527.951 171.656 528.642 172.347 528.642 173.197C528.642 174.046 527.951 174.737 527.102 174.737C526.252 174.737 525.561 174.046 525.561 173.197C525.561 172.347 526.252 171.656 527.102 171.656Z" fill="#3F3679"/>
<path d="M539.47 178.077C542.161 178.077 544.351 175.887 544.351 173.197C544.351 170.506 542.161 168.316 539.47 168.316C536.779 168.316 534.59 170.506 534.59 173.197C534.59 175.887 536.778 178.077 539.47 178.077ZM539.47 171.656C540.32 171.656 541.011 172.347 541.011 173.197C541.011 174.046 540.32 174.737 539.47 174.737C538.621 174.737 537.929 174.046 537.929 173.197C537.929 172.347 538.62 171.656 539.47 171.656Z" fill="#3F3679"/>
<path d="M551.757 177.524H593.311C595.326 177.524 596.966 175.884 596.966 173.869V172.945C596.966 170.93 595.326 169.291 593.311 169.291H551.757C549.742 169.291 548.103 170.93 548.103 172.945V173.869C548.103 175.884 549.742 177.524 551.757 177.524ZM551.442 172.945C551.442 172.775 551.586 172.631 551.757 172.631H593.311C593.481 172.631 593.626 172.775 593.626 172.945V173.869C593.626 174.039 593.482 174.184 593.311 174.184H551.757C551.587 174.184 551.442 174.041 551.442 173.869V172.945Z" fill="#3F3679"/>
<path d="M549.262 227.497C550.281 227.497 551.108 228.324 551.108 229.344V243.273C551.108 245.691 550.449 247.551 549.13 248.858C547.812 250.167 545.988 250.819 543.659 250.819C541.131 250.819 539.13 250.106 537.649 248.679C536.601 247.671 535.923 246.348 535.617 244.713C535.405 243.576 536.281 242.523 537.436 242.523H539.376C540.214 242.523 540.895 243.124 541.1 243.938C541.406 245.15 542.172 245.757 543.398 245.757C544.812 245.757 545.519 244.929 545.519 243.274V229.344C545.519 228.324 546.346 227.497 547.366 227.497H549.262Z" fill="#3F3679"/>
<path d="M570.461 247.455C569.842 248.478 568.927 249.294 567.718 249.904C566.509 250.514 565.043 250.818 563.323 250.818C560.732 250.818 558.598 250.187 556.922 248.924C555.913 248.165 555.18 247.224 554.723 246.102C554.241 244.919 555.184 243.632 556.462 243.632H558.726C559.478 243.632 560.111 244.114 560.42 244.801C560.575 245.144 560.785 245.441 561.052 245.691C561.587 246.192 562.267 246.443 563.094 246.443C563.812 246.443 564.378 246.246 564.793 245.854C565.207 245.463 565.415 244.94 565.415 244.286C565.415 243.697 565.224 243.209 564.844 242.817C564.461 242.425 563.988 242.103 563.423 241.853C562.856 241.603 562.072 241.303 561.07 240.954C559.611 240.453 558.419 239.969 557.494 239.5C556.567 239.033 555.774 238.336 555.11 237.411C554.445 236.484 554.113 235.281 554.113 233.8C554.113 232.429 554.462 231.242 555.158 230.24C555.854 229.239 556.819 228.471 558.05 227.938C559.278 227.403 560.689 227.136 562.279 227.136C564.848 227.136 566.888 227.746 568.403 228.966C569.231 229.632 569.861 230.436 570.295 231.376C570.859 232.598 569.956 233.996 568.61 233.996H566.281C565.559 233.996 564.922 233.564 564.607 232.915C564.472 232.637 564.301 232.393 564.092 232.184C563.645 231.739 563.042 231.515 562.279 231.515C561.626 231.515 561.096 231.688 560.695 232.037C560.291 232.385 560.092 232.896 560.092 233.572C560.092 234.117 560.27 234.58 560.628 234.959C560.99 235.341 561.439 235.652 561.984 235.891C562.53 236.13 563.313 236.435 564.337 236.805C565.817 237.306 567.026 237.8 567.963 238.291C568.898 238.782 569.704 239.496 570.378 240.431C571.053 241.368 571.391 242.586 571.391 244.089C571.391 245.309 571.083 246.432 570.461 247.455Z" fill="#3F3679"/>
<g clip-path="url(#clip1_1986_111)">
<path d="M67 190H258V381H67V190Z" fill="#FFDF00"/>
<path d="M195.304 339.219C199.151 345.501 204.156 350.118 213.009 350.118C220.446 350.118 225.197 346.401 225.197 341.266C225.197 335.111 220.316 332.931 212.13 329.351L207.643 327.426C194.691 321.908 186.087 314.995 186.087 300.382C186.087 286.921 196.344 276.674 212.372 276.674C223.784 276.674 231.988 280.646 237.9 291.045L223.923 300.019C220.846 294.501 217.526 292.327 212.372 292.327C207.115 292.327 203.783 295.662 203.783 300.019C203.783 305.403 207.118 307.583 214.819 310.918L219.306 312.84C234.556 319.379 243.165 326.046 243.165 341.035C243.165 357.194 230.471 366.047 213.424 366.047C196.755 366.047 185.987 358.104 180.717 347.693L195.304 339.219ZM131.901 340.775C134.72 345.777 137.285 350.007 143.452 350.007C149.348 350.007 153.068 347.699 153.068 338.729V277.699H171.016V338.971C171.016 357.555 160.12 366.014 144.216 366.014C129.845 366.014 121.523 358.577 117.291 349.62L131.901 340.775Z" fill="black"/>
</g>
</g>
<defs>
<clipPath id="clip0_1986_111">
<rect width="648" height="427" fill="white"/>
</clipPath>
<clipPath id="clip1_1986_111">
<rect width="191" height="191" fill="white" transform="translate(67 190)"/>
</clipPath>
</defs>
</svg>
