<svg xmlns="http://www.w3.org/2000/svg" width="14" height="11.377" viewBox="0 0 14 11.377"><path d="M13.941,6.964a5.746,5.746,0,0,1-1.651.453,2.879,2.879,0,0,0,1.264-1.589,5.767,5.767,0,0,1-1.824.7,2.874,2.874,0,0,0-4.894,2.62,8.156,8.156,0,0,1-5.92-3,2.878,2.878,0,0,0,.889,3.836,2.87,2.87,0,0,1-1.3-.36v.036a2.876,2.876,0,0,0,2.3,2.817,2.875,2.875,0,0,1-.756.1,2.767,2.767,0,0,1-.541-.052,2.879,2.879,0,0,0,2.683,2A5.758,5.758,0,0,1,.626,15.744a5.651,5.651,0,0,1-.684-.04,8.115,8.115,0,0,0,4.4,1.291,8.116,8.116,0,0,0,8.172-8.171c0-.124,0-.25-.008-.372A5.839,5.839,0,0,0,13.941,6.964Z" transform="translate(0.059 -5.617)" fill="#1a8cd8"/></svg>